<?xml version="1.0" standalone="no"?>
<!DOCTYPE svg PUBLIC "-//W3C//DTD SVG 1.1//EN" "http://www.w3.org/Graphics/SVG/1.1/DTD/svg11.dtd" >
<svg>
<metadata>
Created by FontForge 20090622 at Wed Oct 26 06:07:30 2016
 By deploy user
Copyright &#194;&#169; 2014 by Type Dynamic. All rights reserved.
</metadata>
<defs>
<font id="Sailec-Bold" horiz-adv-x="602" >
  <font-face 
    font-family="Sailec Bold"
    font-weight="700"
    font-stretch="normal"
    units-per-em="1000"
    panose-1="0 0 8 0 0 0 0 0 0 0"
    ascent="800"
    descent="-200"
    x-height="517"
    cap-height="748"
    bbox="-216 -378 1258 1079"
    underline-thickness="50"
    underline-position="-50"
    unicode-range="U+000D-U+FB02"
  />
<missing-glyph horiz-adv-x="735" 
d="M668 748v-748h-601v748h601zM479 645h-219l110 -179zM177 565v-386l125 193zM558 559l-120 -187l120 -186v373zM370 279l-108 -176h215z" />
    <glyph glyph-name="fi" unicode="fi" horiz-adv-x="670" 
d="M314 783q28 0 51 -3v-126q-24 2 -34 2q-38 0 -62.5 -22.5t-24.5 -59.5v-57h120v-126h-120v-391h-145v391h-94v126h94v53q0 97 58 155t157 58zM525 774q37 0 62.5 -25.5t25.5 -62.5q0 -36 -26 -62q-25 -25 -62 -25t-62 25q-20 18 -24 45t6 50.5t32 39.5t48 15zM598 517
v-517h-146v517h146z" />
    <glyph glyph-name="f_j" unicode="fj" horiz-adv-x="670" 
d="M314 783q28 0 51 -3v-126q-24 2 -34 2q-38 0 -62.5 -22.5t-24.5 -59.5v-57h120v-126h-120v-391h-145v391h-94v126h94v53q0 97 58 155t157 58zM613 686q0 -36 -25.5 -61.5t-62.5 -25.5t-62 25.5t-25 61.5q0 37 25 62.5t62 25.5t62.5 -25.5t25.5 -62.5zM453 517h146v-567
q0 -97 -58.5 -154.5t-155.5 -57.5q-29 0 -51 3v127q14 -3 34 -3q38 0 61.5 22.5t23.5 59.5v570z" />
    <glyph glyph-name=".notdef" horiz-adv-x="735" 
d="M668 748v-748h-601v748h601zM479 645h-219l110 -179zM177 565v-386l125 193zM558 559l-120 -187l120 -186v373zM370 279l-108 -176h215z" />
    <glyph glyph-name=".null" horiz-adv-x="0" 
 />
    <glyph glyph-name="nonmarkingreturn" horiz-adv-x="333" 
 />
    <glyph glyph-name="CR.001" unicode="&#xd;" horiz-adv-x="600" 
 />
    <glyph glyph-name="space" unicode=" " horiz-adv-x="226" 
 />
    <glyph glyph-name="exclam" unicode="!" horiz-adv-x="324" 
d="M247 748l-9 -520h-154l-8 520h171zM98 140q26 26 63 26t63 -26t26 -63t-26 -63q-26 -25 -63 -25t-63 25q-25 26 -25 63t25 63z" />
    <glyph glyph-name="quotedbl" unicode="&#x22;" horiz-adv-x="419" 
d="M181 755l-15 -282h-111l-14 282h140zM378 755l-14 -282h-112l-14 282h140z" />
    <glyph glyph-name="numbersign" unicode="#" horiz-adv-x="669" 
d="M601 748l-44 -185h106l-28 -116h-106l-36 -151h108l-27 -116h-108l-43 -180h-122l43 180h-112l-42 -180h-123l43 180h-104l27 116h105l35 151h-106l28 116h106l45 185h122l-45 -185h111l45 185h122zM407 447h-112l-35 -151h111z" />
    <glyph glyph-name="dollar" unicode="$" horiz-adv-x="663" 
d="M620 218q0 -97 -60 -155.5t-163 -70.5v-110h-121v112q-107 15 -168.5 76.5t-62.5 158.5l157 8q2 -51 42 -82.5t101 -31.5q118 0 118 86q0 38 -33.5 59.5t-120.5 43.5q-63 16 -97 28t-76 38q-74 48 -74 152q0 88 55 149q56 64 159 77v109h121v-112q94 -16 150 -75.5
t58 -148.5l-158 -8q-1 48 -32 76t-84 28q-52 0 -81.5 -24.5t-29.5 -65.5q0 -40 31 -59q33 -19 115 -38q129 -33 191 -80q63 -47 63 -140z" />
    <glyph glyph-name="percent" unicode="%" horiz-adv-x="892" 
d="M384 571q0 -83 -50 -136q-49 -52 -126 -52q-78 0 -127 52q-50 53 -50 136q0 84 50 136q49 52 127 52q77 0 126 -52q50 -52 50 -136zM763 748l-493 -748h-141l493 748h141zM138 571q0 -40 19 -63.5t51 -23.5q30 0 50 23q19 22 19 64q0 41 -19 63q-18 23 -50 23
q-33 0 -51.5 -22.5t-18.5 -63.5zM685 365q77 0 126 -51q50 -52 50 -136t-50 -137q-49 -52 -126 -52q-78 0 -127 52q-50 53 -50 137q0 85 49 135q49 52 128 52zM615 178q0 -41 19 -64t51 -23t50.5 23t18.5 64q0 40 -18.5 63t-50.5 23t-51 -23t-19 -63z" />
    <glyph glyph-name="ampersand" unicode="&#x26;" horiz-adv-x="720" 
d="M734 100l-86 -111l-117 98q-91 -97 -227 -97q-129 0 -197 61q-68 62 -68 155q0 65 29 113t88 91q-59 68 -59 140q0 100 62.5 154.5t169.5 54.5q94 0 156.5 -50.5t75.5 -139.5l-149 -12q-11 74 -83 74q-37 0 -57.5 -20.5t-20.5 -58.5q0 -45 56 -95l37 -31l158 -132
q18 43 37 119l136 -35q-24 -90 -64 -175zM306 121q69 0 122 53l-181 152q-51 -40 -51 -106q0 -46 29.5 -72.5t80.5 -26.5z" />
    <glyph glyph-name="quotesingle" unicode="'" horiz-adv-x="222" 
d="M181 755l-15 -282h-111l-14 282h140z" />
    <glyph glyph-name="parenleft" unicode="(" horiz-adv-x="298" 
d="M156 735l126 -44q-100 -172 -100 -371t100 -371l-126 -44q-119 179 -119 415t119 415z" />
    <glyph glyph-name="parenright" unicode=")" horiz-adv-x="298" 
d="M17 691l126 44q119 -182 119 -415t-119 -415l-126 44q99 175 99 371t-99 371z" />
    <glyph glyph-name="asterisk" unicode="*" horiz-adv-x="369" 
d="M225 764l-3 -122l115 40l25 -76l-116 -37l73 -95l-65 -48l-69 99l-70 -100l-65 49l73 95l-116 37l25 76l115 -40l-3 122h81z" />
    <glyph glyph-name="plus" unicode="+" horiz-adv-x="548" 
d="M345 612v-176h172v-132h-172v-178h-142v178h-172v132h172v176h142z" />
    <glyph glyph-name="comma" unicode="," horiz-adv-x="244" 
d="M124 166q38 0 60 -26.5t22 -71.5q0 -151 -153 -229v61q52 33 67 90q-35 2 -58.5 27t-23.5 60q0 37 25 63t61 26z" />
    <glyph glyph-name="hyphen" unicode="-" horiz-adv-x="406" 
d="M361 330v-136h-316v136h316z" />
    <glyph glyph-name="period" unicode="." horiz-adv-x="253" 
d="M63 140q26 26 63 26t63 -26t26 -63t-26 -63q-26 -25 -63 -25t-63 25q-25 26 -25 63t25 63z" />
    <glyph glyph-name="slash" unicode="/" horiz-adv-x="421" 
d="M414 748l-254 -815h-153l255 815h152z" />
    <glyph glyph-name="zero" unicode="0" horiz-adv-x="651" 
d="M326 759q128 0 205 -101q78 -101 78 -284q0 -182 -78 -284q-77 -101 -205 -101q-129 0 -207 101q-77 103 -77 284q0 183 77 284q78 101 207 101zM326 622q-127 0 -127 -248t127 -248q126 0 126 248t-126 248z" />
    <glyph glyph-name="one" unicode="1" horiz-adv-x="393" 
d="M317 748v-748h-154v554l-95 -67l-68 122l204 139h113z" />
    <glyph glyph-name="two" unicode="2" horiz-adv-x="542" 
d="M278 759q109 0 169 -55.5t60 -157.5q0 -82 -35 -146q-34 -63 -99 -132l-123 -131h261v-137h-462v121l206 227q58 63 77 99q20 40 20 92q0 39 -18.5 61t-52.5 22q-77 0 -79 -105l-154 9q2 109 62.5 171t167.5 62z" />
    <glyph glyph-name="three" unicode="3" horiz-adv-x="568" 
d="M281 759q109 0 171 -59q61 -58 61 -160t-82 -154q43 -16 69 -60t26 -104q0 -108 -67 -171q-68 -62 -177 -62q-115 0 -179.5 60.5t-67.5 167.5l154 9q4 -100 92 -100q43 0 66.5 26t23.5 73q0 45 -26.5 69.5t-72.5 24.5h-77v132h75q39 0 63.5 24t24.5 63q0 84 -77 84
q-78 0 -83 -93l-153 8q2 105 64 163.5t172 58.5z" />
    <glyph glyph-name="four" unicode="4" horiz-adv-x="603" 
d="M469 748v-480h111v-137h-111v-131h-139v131h-303v127l320 490h122zM329 489l-145 -221h145v221z" />
    <glyph glyph-name="five" unicode="5" horiz-adv-x="570" 
d="M300 475q101 0 166 -62q64 -61 64 -175t-68 -182q-67 -67 -182 -67q-111 0 -175.5 58.5t-67.5 159.5l154 9q2 -43 25.5 -66.5t64.5 -23.5q44 0 69 29.5t25 78.5t-24 76.5t-66 27.5q-43 0 -80 -26h-143v436h439v-136h-285v-154q37 17 84 17z" />
    <glyph glyph-name="six" unicode="6" horiz-adv-x="608" 
d="M340 748h185l-186 -259q101 -10 166 -78q64 -67 64 -171q0 -113 -74 -182q-73 -69 -189 -69t-191 69q-74 69 -74 182q0 82 55 161zM413 245q0 54 -29.5 85.5t-78.5 31.5q-58 0 -86 -40q-21 -28 -21 -77q0 -54 29.5 -86.5t77.5 -32.5t78 32.5t30 86.5z" />
    <glyph glyph-name="seven" unicode="7" horiz-adv-x="541" 
d="M511 748v-124l-292 -624h-169l292 612h-323v136h492z" />
    <glyph glyph-name="eight" unicode="8" horiz-adv-x="615" 
d="M549 548q0 -95 -72 -148q91 -61 91 -178q0 -107 -74 -170q-73 -63 -187 -63q-115 0 -188 63t-73 170q0 116 90 177q-71 53 -71 149q0 97 67 154q68 57 174 57t174 -57q69 -57 69 -154zM307 622q-39 0 -63.5 -23t-24.5 -62q0 -36 24.5 -59t63.5 -23t63.5 22t24.5 60
q0 39 -24 62t-64 23zM307 126q48 0 77.5 28t29.5 75t-29.5 74.5t-77.5 27.5t-77.5 -27.5t-29.5 -74.5t30 -75t77 -28z" />
    <glyph glyph-name="nine" unicode="9" horiz-adv-x="608" 
d="M302 759q116 0 190 -69q75 -69 75 -182q0 -82 -55 -161l-244 -347h-185l186 259q-101 10 -166 78q-64 67 -64 171q0 113 74 182q73 69 189 69zM303 386q58 0 86 40q21 29 21 77q0 54 -29.5 86.5t-77.5 32.5t-78 -32.5t-30 -86.5t29.5 -85.5t78.5 -31.5z" />
    <glyph glyph-name="colon" unicode=":" horiz-adv-x="253" 
d="M207 438q0 -36 -26 -61.5t-63 -25.5t-62.5 25.5t-25.5 61.5q0 37 25.5 63t62.5 26t63 -26t26 -63zM55 140q26 26 63 26t63 -26t26 -63t-26 -63q-26 -25 -63 -25t-63 25q-25 26 -25 63t25 63z" />
    <glyph glyph-name="semicolon" unicode=";" horiz-adv-x="253" 
d="M30 438q0 37 25.5 63t62.5 26t63 -26t26 -63q0 -36 -26 -61.5t-63 -25.5t-62.5 25.5t-25.5 61.5zM124 166q38 0 60 -26.5t22 -71.5q0 -151 -153 -229v61q52 33 67 90q-35 2 -58.5 27t-23.5 60q0 37 25 63t61 26z" />
    <glyph glyph-name="less" unicode="&#x3c;" horiz-adv-x="538" 
d="M507 635v-165l-193 -101l193 -101v-166l-478 267z" />
    <glyph glyph-name="equal" unicode="=" horiz-adv-x="548" 
d="M517 561v-137h-486v137h486zM517 316v-137h-486v137h486z" />
    <glyph glyph-name="greater" unicode="&#x3e;" horiz-adv-x="538" 
d="M31 635l478 -266l-478 -267v166l193 101l-193 101v165z" />
    <glyph glyph-name="question" unicode="?" horiz-adv-x="535" 
d="M268 760q114 0 182 -62t68 -165q0 -40 -16 -72q-10 -21 -22.5 -37.5t-23.5 -26.5t-36 -30q-42 -32 -58.5 -54.5t-16.5 -52.5v-32h-154v38q0 42 22.5 75.5t73.5 76.5q40 33 57 57.5t17 55.5q0 43 -25 68t-68 25q-44 0 -70 -26.5t-28 -73.5l-154 10q4 103 73 164
q70 62 179 62zM267 166q37 0 63 -26t26 -63t-26 -62.5t-63 -25.5q-36 0 -61.5 25.5t-25.5 62.5t25.5 63t61.5 26z" />
    <glyph glyph-name="at" unicode="@" horiz-adv-x="803" 
d="M765 247q0 -102 -42 -155.5t-118 -53.5q-77 0 -103 51q-48 -54 -127 -54q-86 0 -138 58q-53 59 -53 153q0 95 53 154q52 58 138 58q80 0 117 -46v31h106v-290q0 -39 35 -39q28 0 45 34.5t17 98.5q0 126 -84 210t-210 84q-127 0 -210 -84q-83 -85 -83 -210q0 -129 84 -212
q86 -81 203 -81q103 0 179 44l23 -65q-82 -46 -202 -46q-150 0 -254 101q-103 100 -103 259q0 156 102 258q104 102 261 102t261 -102q103 -102 103 -258zM487 238v17q0 48 -25.5 76t-68.5 28q-45 0 -70 -29.5t-25 -83.5q0 -53 26 -83t69 -30t68.5 28t25.5 77z" />
    <glyph glyph-name="A" unicode="A" horiz-adv-x="789" 
d="M459 748l322 -748h-170l-61 144h-311l-62 -144h-169l321 748h130zM395 509l-101 -239h202z" />
    <glyph glyph-name="B" unicode="B" horiz-adv-x="706" 
d="M75 0v748h313q108 0 170.5 -54t62.5 -154q0 -98 -73 -147q47 -19 75.5 -64.5t28.5 -110.5q0 -104 -65 -161t-177 -57h-335zM370 612h-141v-164h149q86 0 86 81q0 41 -24.5 62t-69.5 21zM394 317h-165v-180h163q102 0 102 89q0 45 -27 68t-73 23z" />
    <glyph glyph-name="C" unicode="C" horiz-adv-x="826" 
d="M429 759q138 0 236 -77q99 -77 119 -208l-161 -14q-16 78 -68 120t-131 42q-99 0 -159 -68q-59 -68 -59 -180q0 -119 61 -183q62 -65 158 -65q79 0 131 41t67 118l162 -14q-21 -129 -119 -206q-97 -76 -236 -76q-168 0 -275 104q-106 103 -106 281t106 281
q107 104 274 104z" />
    <glyph glyph-name="D" unicode="D" horiz-adv-x="803" 
d="M75 0v748h308q163 0 267 -101t104 -273q0 -173 -104 -274q-103 -100 -268 -100h-307zM384 616h-155v-484h155q101 0 159 63t58 179q0 117 -57.5 179.5t-159.5 62.5z" />
    <glyph glyph-name="E" unicode="E" 
d="M555 748v-136h-325v-162h282v-133h-282v-180h326v-137h-481v748h480z" />
    <glyph glyph-name="F" unicode="F" horiz-adv-x="588" 
d="M555 748v-136h-325v-162h265v-136h-265v-314h-155v748h480z" />
    <glyph glyph-name="G" unicode="G" horiz-adv-x="834" 
d="M428 408h357v-50q0 -168 -97 -268q-96 -101 -259 -101q-167 0 -274 104q-106 103 -106 281t106 281q107 104 273 104q131 0 226 -68q94 -67 124 -189l-160 -27q-16 69 -66 108t-125 39q-104 0 -162.5 -63.5t-58.5 -184.5t58.5 -184.5t162.5 -63.5q155 0 189 146h-188v136
z" />
    <glyph glyph-name="H" unicode="H" horiz-adv-x="762" 
d="M687 748v-748h-154v315h-303v-315h-155v748h155v-296h303v296h154z" />
    <glyph glyph-name="I" unicode="I" horiz-adv-x="305" 
d="M230 748v-748h-155v748h155z" />
    <glyph glyph-name="J" unicode="J" horiz-adv-x="614" 
d="M390 748h154v-481q0 -131 -70 -204.5t-193 -73.5q-117 0 -186.5 66.5t-76.5 185.5l155 25q4 -67 32 -103.5t77 -36.5q108 0 108 136v486z" />
    <glyph glyph-name="K" unicode="K" horiz-adv-x="721" 
d="M682 748l-257 -306l287 -442h-182l-208 318l-92 -111v-207h-155v748h155v-309l254 309h198z" />
    <glyph glyph-name="L" unicode="L" horiz-adv-x="591" 
d="M230 748v-611h326v-137h-481v748h155z" />
    <glyph glyph-name="M" unicode="M" horiz-adv-x="974" 
d="M898 748v-748h-153v404l-206 -396h-102l-207 396v-404h-155v748h137l276 -514l274 514h136z" />
    <glyph glyph-name="N" unicode="N" horiz-adv-x="764" 
d="M689 748v-748h-131l-328 463v-463h-155v748h131l329 -464v464h154z" />
    <glyph glyph-name="O" unicode="O" horiz-adv-x="875" 
d="M438 759q170 0 279 -106q109 -105 109 -279t-109 -280q-109 -105 -279 -105t-280 105q-109 106 -109 280t109 279q109 106 280 106zM438 622q-104 0 -168 -67q-64 -65 -64 -181q0 -114 64 -181t168 -67q103 0 166 67q64 67 64 181q0 116 -64 181q-63 67 -166 67z" />
    <glyph glyph-name="P" unicode="P" horiz-adv-x="667" 
d="M75 0v748h324q110 0 175 -64q66 -64 66 -177t-66 -177q-65 -64 -175 -64h-169v-266h-155zM379 612h-150v-209h150q47 0 75.5 27.5t28.5 76.5t-28.5 77t-75.5 28z" />
    <glyph glyph-name="Q" unicode="Q" horiz-adv-x="879" 
d="M869 32l-108 -110l-118 117q-92 -50 -205 -50q-170 0 -280 105q-109 106 -109 280t109 279q109 106 280 106q170 0 279 -106q109 -105 109 -279q0 -134 -69 -232zM438 126q53 0 98 19l-113 112l108 108l113 -112q24 53 24 121q0 116 -64 181q-63 67 -166 67
q-104 0 -168 -67q-64 -65 -64 -181q0 -114 64 -181t168 -67z" />
    <glyph glyph-name="R" unicode="R" horiz-adv-x="707" 
d="M675 0h-174l-146 269h-125v-269h-155v748h320q110 0 175 -64q66 -63 66 -176q0 -156 -120 -214zM229 612v-206h147q46 0 74.5 27.5t28.5 74.5q0 49 -28 76.5t-75 27.5h-147z" />
    <glyph glyph-name="S" unicode="S" horiz-adv-x="663" 
d="M328 759q122 0 198 -62q76 -61 79 -168l-158 -8q-1 48 -32 76t-84 28q-52 0 -81.5 -24.5t-29.5 -65.5q0 -40 31 -59q33 -19 115 -38q129 -33 191 -80q63 -47 63 -140q0 -112 -78 -171q-76 -58 -197 -58q-133 0 -216 63t-84 177l157 8q2 -51 42 -82.5t101 -31.5
q118 0 118 86q0 38 -33.5 59.5t-120.5 43.5q-63 16 -97 28t-76 38q-74 48 -74 152q0 98 69 163q69 66 197 66z" />
    <glyph glyph-name="T" unicode="T" horiz-adv-x="693" 
d="M674 748v-136h-250v-612h-154v612h-251v136h655z" />
    <glyph glyph-name="U" unicode="U" horiz-adv-x="777" 
d="M553 748h154v-444q0 -150 -85 -232q-86 -83 -233 -83q-148 0 -234 83q-85 82 -85 232v444h154v-442q0 -88 42 -134t123 -46q80 0 122 46t42 134v442z" />
    <glyph glyph-name="V" unicode="V" horiz-adv-x="783" 
d="M772 748l-315 -748h-130l-315 748h169l211 -508l210 508h170z" />
    <glyph glyph-name="W" unicode="W" horiz-adv-x="1125" 
d="M1113 748l-261 -748h-130l-159 474l-159 -474h-131l-261 748h168l160 -486l159 486h127l160 -486l159 486h168z" />
    <glyph glyph-name="X" unicode="X" horiz-adv-x="727" 
d="M696 748l-218 -368l231 -380h-179l-166 278l-167 -278h-179l231 380l-218 368h178l155 -265l154 265h178z" />
    <glyph glyph-name="Y" unicode="Y" horiz-adv-x="744" 
d="M733 748l-283 -460v-288h-154v288l-284 460h179l181 -307l181 307h180z" />
    <glyph glyph-name="Z" unicode="Z" horiz-adv-x="626" 
d="M582 748v-117l-348 -494h358v-137h-555v117l346 495h-341v136h540z" />
    <glyph glyph-name="bracketleft" unicode="[" horiz-adv-x="307" 
d="M287 718v-121h-89v-553h89v-121h-234v795h234z" />
    <glyph glyph-name="backslash" unicode="\" horiz-adv-x="421" 
d="M159 748l255 -815h-152l-255 815h152z" />
    <glyph glyph-name="bracketright" unicode="]" horiz-adv-x="307" 
d="M255 718v-795h-234v121h88v553h-88v121h234z" />
    <glyph glyph-name="asciicircum" unicode="^" horiz-adv-x="596" 
d="M298 766l271 -394h-165l-106 167l-106 -167h-165z" />
    <glyph glyph-name="underscore" unicode="_" horiz-adv-x="688" 
d="M643 0v-137h-598v137h598z" />
    <glyph glyph-name="grave" unicode="`" horiz-adv-x="268" 
d="M175 789l83 -191h-113l-136 191h166z" />
    <glyph glyph-name="a" unicode="a" horiz-adv-x="557" 
d="M274 527q105 0 160 -53t55 -155v-319h-141v42q-51 -53 -132 -53t-126.5 39.5t-45.5 113.5q0 148 207 157l92 5v20q0 80 -67 80q-34 0 -53 -19.5t-19 -48.5l-146 6q0 72 60 128q62 57 156 57zM343 186v22l-78 -5q-75 -3 -75 -54q0 -47 60 -47q42 0 67.5 22.5t25.5 61.5z
" />
    <glyph glyph-name="b" unicode="b" horiz-adv-x="657" 
d="M72 777h146v-305q48 55 145 55q111 0 180 -74q70 -73 70 -195t-70 -195q-69 -74 -180 -74q-49 0 -89.5 17.5t-63.5 46.5v-53h-138v777zM340 402q-55 0 -88.5 -36t-33.5 -96v-23q0 -62 33.5 -97t88.5 -35q57 0 91 38t34 105t-34 105.5t-91 38.5z" />
    <glyph glyph-name="c" unicode="c" horiz-adv-x="592" 
d="M309 527q95 0 163 -54q69 -55 82 -146l-143 -12q-5 40 -32.5 63.5t-69.5 23.5q-53 0 -85 -38.5t-32 -105.5q0 -66 32.5 -104.5t84.5 -38.5q43 0 70 22.5t33 61.5l142 -13q-15 -92 -82 -144q-68 -53 -163 -53q-118 0 -191 72q-74 74 -74 197q0 125 74 197q73 72 191 72z
" />
    <glyph glyph-name="d" unicode="d" horiz-adv-x="657" 
d="M584 777v-777h-137v53q-23 -29 -63.5 -46.5t-90.5 -17.5q-109 0 -180 74q-69 73 -69 195t69 195q71 74 180 74q98 0 146 -55v305h145zM317 402q-57 0 -91 -38.5t-34 -105.5t34 -105t91 -38q55 0 88.5 35t33.5 97v23q0 60 -33.5 96t-88.5 36z" />
    <glyph glyph-name="e" unicode="e" horiz-adv-x="598" 
d="M554 270v-58h-355q2 -49 30.5 -77t77.5 -28q79 0 95 57l147 -7q-14 -75 -81 -121q-67 -47 -157 -47q-121 0 -194 73t-73 196q0 124 73 196q73 73 190 73q113 0 180 -69q67 -67 67 -188zM306 413q-47 0 -75.5 -27.5t-31.5 -76.5h208q-2 50 -28 77t-73 27z" />
    <glyph glyph-name="f" unicode="f" horiz-adv-x="380" 
d="M314 783q28 0 51 -3v-126q-24 2 -34 2q-38 0 -62.5 -22.5t-24.5 -59.5v-57h120v-126h-120v-391h-145v391h-94v126h94v53q0 97 58 155t157 58z" />
    <glyph glyph-name="g" unicode="g" horiz-adv-x="648" 
d="M293 527q106 0 154 -64v54h137v-536q0 -111 -71 -179q-70 -67 -190 -67q-115 0 -183 52.5t-83 146.5l145 5q5 -38 36 -59t80 -21q57 0 89 29t32 82v74q-51 -55 -146 -55q-109 0 -180 74q-69 73 -69 195t69 195q71 74 180 74zM317 402q-57 0 -91 -38.5t-34 -105.5
t34 -105.5t91 -38.5q55 0 88.5 36t33.5 96v24q0 60 -33.5 96t-88.5 36z" />
    <glyph glyph-name="h" unicode="h" horiz-adv-x="616" 
d="M72 777h146v-304q42 54 131 54q92 0 147 -56.5t55 -154.5v-316h-146v288q0 48 -24.5 75.5t-66.5 27.5q-43 0 -69.5 -28.5t-26.5 -75.5v-287h-146v777z" />
    <glyph glyph-name="i" unicode="i" horiz-adv-x="291" 
d="M145 774q37 0 62.5 -25.5t25.5 -62.5q0 -36 -26 -62q-25 -25 -62 -25t-62 25q-20 18 -24 45t6 50.5t32 39.5t48 15zM218 517v-517h-146v517h146z" />
    <glyph glyph-name="j" unicode="j" horiz-adv-x="291" 
d="M233 686q0 -36 -25.5 -61.5t-62.5 -25.5t-62 25.5t-25 61.5q0 37 25 62.5t62 25.5t62.5 -25.5t25.5 -62.5zM73 517h146v-567q0 -97 -58.5 -154.5t-155.5 -57.5q-29 0 -51 3v127q13 -3 34 -3q38 0 61.5 22.5t23.5 59.5v570z" />
    <glyph glyph-name="k" unicode="k" horiz-adv-x="582" 
d="M218 777v-444l167 184h177l-195 -221l209 -296h-177l-135 187l-46 -50v-137h-146v777h146z" />
    <glyph glyph-name="l" unicode="l" horiz-adv-x="291" 
d="M218 777v-777h-146v777h146z" />
    <glyph glyph-name="m" unicode="m" horiz-adv-x="930" 
d="M667 527q90 0 143 -57t53 -153v-317h-146v288q0 103 -86 103q-38 0 -61.5 -23t-28.5 -63v-305h-146v288q0 49 -22 76t-62 27q-43 0 -68 -28.5t-25 -75.5v-287h-146v517h138v-53q41 63 136 63q110 0 162 -82q52 82 159 82z" />
    <glyph glyph-name="n" unicode="n" horiz-adv-x="618" 
d="M349 527q92 0 147 -56.5t55 -154.5v-316h-146v288q0 48 -24.5 75.5t-66.5 27.5q-43 0 -69.5 -28.5t-26.5 -75.5v-287h-146v517h138v-53q41 63 139 63z" />
    <glyph glyph-name="o" unicode="o" horiz-adv-x="638" 
d="M594 258q0 -120 -78 -195q-77 -74 -197 -74q-119 0 -198 74q-77 75 -77 195q0 121 77 195q79 74 198 74q120 0 197 -74q78 -73 78 -195zM411 363q-35 39 -92 39t-92 -39q-35 -38 -35 -105t35 -105t92 -38t92 38t35 105t-35 105z" />
    <glyph glyph-name="p" unicode="p" horiz-adv-x="657" 
d="M363 527q111 0 180 -74q70 -73 70 -195t-70 -195q-69 -74 -180 -74q-96 0 -145 55v-299h-146v772h138v-54q48 64 153 64zM340 402q-55 0 -88.5 -36t-33.5 -96v-24q0 -60 33.5 -96t88.5 -36q57 0 91 38.5t34 105.5t-34 105.5t-91 38.5z" />
    <glyph glyph-name="q" unicode="q" horiz-adv-x="657" 
d="M293 527q106 0 154 -64v54h137v-772h-145v299q-49 -55 -146 -55q-109 0 -180 74q-69 73 -69 195t69 195q71 74 180 74zM317 402q-57 0 -91 -38.5t-34 -105.5t34 -105.5t91 -38.5q55 0 88.5 36t33.5 96v24q0 60 -33.5 96t-88.5 36z" />
    <glyph glyph-name="r" unicode="r" horiz-adv-x="378" 
d="M355 522v-141q-63 0 -100 -32.5t-37 -86.5v-262h-146v517h141v-59q40 64 142 64z" />
    <glyph glyph-name="s" unicode="s" horiz-adv-x="506" 
d="M249 527q93 0 147.5 -45t61.5 -122l-145 -8q-3 63 -66 63q-59 0 -59 -44q0 -23 22 -33q12 -6 79 -24q94 -25 135 -57.5t41 -95.5q0 -80 -56 -126t-156 -46q-99 0 -155.5 43.5t-64.5 124.5l146 8q3 -64 75 -64q30 0 47.5 12.5t17.5 34.5q0 23 -18 33.5t-76 25.5
q-69 17 -112 36q-36 19 -52 46t-19 75q0 75 55.5 119t151.5 44z" />
    <glyph glyph-name="t" unicode="t" horiz-adv-x="404" 
d="M373 391h-122l-1 -192q0 -38 21.5 -58t56.5 -20q13 0 45 5v-130q-42 -6 -81 -6q-90 0 -139.5 44.5t-48.5 129.5l1 227h-94v126h95l1 171h146l-1 -171h121v-126z" />
    <glyph glyph-name="u" unicode="u" 
d="M530 517v-517h-138v52q-39 -63 -134 -63q-89 0 -140 54t-51 149v325h146v-294q0 -98 83 -98q41 0 64.5 27.5t23.5 72.5v292h146z" />
    <glyph glyph-name="v" unicode="v" horiz-adv-x="573" 
d="M568 517l-223 -517h-117l-223 517h161l121 -304l120 304h161z" />
    <glyph glyph-name="w" unicode="w" horiz-adv-x="846" 
d="M842 517l-199 -517h-116l-104 274l-104 -274h-116l-198 517h160l101 -296l106 296h102l107 -296l101 296h160z" />
    <glyph glyph-name="x" unicode="x" horiz-adv-x="553" 
d="M538 517l-160 -256l164 -261h-167l-99 161l-98 -161h-166l161 261l-159 256h166l96 -158l96 158h166z" />
    <glyph glyph-name="y" unicode="y" horiz-adv-x="573" 
d="M567 517l-331 -772h-159l132 301l-202 471h161l119 -308l118 308h162z" />
    <glyph glyph-name="z" unicode="z" horiz-adv-x="455" 
d="M414 517v-97l-211 -302h219v-118h-388v96l212 303h-208v118h376z" />
    <glyph glyph-name="braceleft" unicode="{" horiz-adv-x="303" 
d="M282 718v-121h-6q-45 0 -58.5 -28.5t-2.5 -101.5q4 -39 4 -69.5t-17.5 -51.5t-54.5 -25q37 -4 54.5 -25.5t17.5 -52t-4 -69.5q-11 -73 2.5 -101.5t58.5 -28.5h6v-121h-6q-113 0 -171 61q-58 60 -34 176q17 55 7.5 78t-53.5 23h-8v119h8q44 0 53.5 23t-7.5 78
q-24 116 34 176q58 61 171 61h6z" />
    <glyph glyph-name="bar" unicode="|" horiz-adv-x="288" 
d="M217 748v-815h-146v815h146z" />
    <glyph glyph-name="braceright" unicode="}" horiz-adv-x="303" 
d="M21 597v121h6q112 0 170 -61q59 -61 35 -176q-17 -55 -7.5 -78t53.5 -23h8v-119h-8q-44 0 -53.5 -23t7.5 -78q24 -115 -35 -176q-58 -61 -170 -61h-6v121h6q45 0 58.5 28.5t2.5 101.5q-4 39 -4 69.5t17.5 52t53.5 25.5q-36 4 -53.5 25t-17.5 52t4 69q11 73 -2.5 101.5
t-58.5 28.5h-6z" />
    <glyph glyph-name="asciitilde" unicode="~" horiz-adv-x="544" 
d="M468 463l66 -96q-72 -93 -161 -93q-44 0 -100 28q-56 29 -89 29q-36 0 -60 -11.5t-48 -40.5l-66 97q70 91 160 91q40 0 96 -29q55 -28 92 -28q66 0 110 53z" />
    <glyph glyph-name="exclamdown" unicode="&#xa1;" horiz-adv-x="324" 
d="M163 334q-37 0 -63 26t-26 63t26 62.5t63 25.5q36 0 61.5 -25.5t25.5 -62.5t-25.5 -63t-61.5 -26zM77 -248l8 520h154l8 -520h-170z" />
    <glyph glyph-name="cent" unicode="&#xa2;" horiz-adv-x="592" 
d="M309 115q43 0 70 22.5t33 61.5l142 -13q-13 -76 -63.5 -127t-125.5 -65v-112h-121v114q-92 18 -146 87.5t-54 174.5t53.5 174.5t146.5 88.5v106h121v-105q76 -15 126.5 -66.5t62.5 -128.5l-143 -12q-5 40 -32.5 63.5t-69.5 23.5q-53 0 -85 -38.5t-32 -105.5
q0 -66 32.5 -104.5t84.5 -38.5z" />
    <glyph glyph-name="sterling" unicode="&#xa3;" horiz-adv-x="566" 
d="M215 137h329v-137h-516v126q59 12 79.5 52.5t13.5 125.5v2h-94v121h83l-6 63q-13 129 43 199t173 70q102 0 158 -54t59 -152l-154 -8q0 36 -17 56.5t-49 20.5q-78 0 -69 -104l8 -91h150v-121h-138v-5q11 -104 -53 -164z" />
    <glyph glyph-name="currency" unicode="&#xa4;" horiz-adv-x="601" 
d="M489 252q0 -52 -18 -92l112 -112l-92 -91l-111 111q-34 -15 -79 -15q-42 0 -78 16l-113 -112l-92 91l113 113q-19 39 -19 91q0 50 19 92l-113 113l92 92l113 -113q36 16 78 16t78 -16l112 113l92 -92l-113 -113q19 -42 19 -92zM231 252q0 -46 18.5 -71t51.5 -25
q32 0 50.5 26t18.5 70q0 45 -18.5 70.5t-50.5 25.5t-51 -25.5t-19 -70.5z" />
    <glyph glyph-name="yen" unicode="&#xa5;" horiz-adv-x="744" 
d="M733 748l-242 -394h92v-90h-133v-66h133v-91h-133v-107h-154v107h-134v91h134v66h-134v90h93l-243 394h179l181 -307l181 307h180z" />
    <glyph glyph-name="brokenbar" unicode="&#xa6;" horiz-adv-x="288" 
d="M217 748v-319h-146v319h146zM217 252v-319h-146v319h146z" />
    <glyph glyph-name="section" unicode="&#xa7;" horiz-adv-x="529" 
d="M431 260q59 -38 59 -116q0 -77 -61 -125q-61 -47 -163 -47q-108 0 -169 45t-61 123l146 6q0 -31 22 -49.5t63 -18.5q36 0 56.5 15t20.5 42q0 25 -21.5 38.5t-79.5 26.5q-107 22 -161 56q-51 34 -51 104q0 76 69 119q-54 37 -54 113q0 75 58 121t154 46q102 0 159 -42.5
t58 -117.5l-145 -5q-1 58 -71 58q-67 0 -67 -53q0 -24 19.5 -36.5t74.5 -25.5q112 -23 161 -57q50 -33 50 -102q0 -73 -66 -118zM165 374q0 -28 27.5 -42t105.5 -29l23 -5q42 30 42 65q0 29 -27 42.5t-106 28.5l-23 5q-42 -28 -42 -65z" />
    <glyph glyph-name="dieresis" unicode="&#xa8;" horiz-adv-x="371" 
d="M169 679q0 -33 -23.5 -56t-56.5 -23t-56 22.5t-23 56.5q0 32 23 55t56 23t56.5 -23t23.5 -55zM361 679q0 -34 -23 -56.5t-56 -22.5t-56 22.5t-23 56.5q0 32 23 55t56 23t56 -23t23 -55z" />
    <glyph glyph-name="copyright" unicode="&#xa9;" horiz-adv-x="595" 
d="M298 761q116 0 192 -73q78 -74 78 -183t-78 -183q-76 -73 -192 -73q-118 0 -194 73q-77 74 -77 183t77 183q76 73 194 73zM298 711q-96 0 -155 -58q-59 -59 -59 -148t59 -148q59 -58 155 -58q95 0 153 58q60 59 60 148t-60 148q-58 58 -153 58zM299 663q57 0 96.5 -31.5
t47.5 -84.5l-83 -5q-9 51 -63 51q-32 0 -51 -23.5t-19 -62.5t20 -62.5t51 -23.5q24 0 41 13t21 37l83 -6q-9 -53 -48 -84t-96 -31q-68 0 -111 43t-43 114t42.5 113.5t111.5 42.5z" />
    <glyph glyph-name="ordfeminine" unicode="&#xaa;" horiz-adv-x="457" 
d="M225 757q181 0 181 -167v-257h-123v31q-37 -39 -111 -39q-66 0 -103.5 32t-37.5 89q0 118 180 128l65 4v21q0 24 -13.5 38.5t-37.5 14.5q-26 0 -41 -14.5t-15 -37.5l-127 4q0 59 50 106q52 47 133 47zM276 481v18l-55 -4q-58 -4 -58 -41q0 -35 43 -35q29 -1 49.5 16
t20.5 46z" />
    <glyph glyph-name="guillemotleft" unicode="&#xab;" horiz-adv-x="581" 
d="M178 493l116 -72l-117 -163l117 -163l-116 -72l-163 235zM448 493l116 -72l-116 -163l116 -163l-116 -72l-163 235z" />
    <glyph glyph-name="logicalnot" unicode="&#xac;" 
d="M564 450v-303h-114v190h-417v113h531z" />
    <glyph glyph-name="registered" unicode="&#xae;" horiz-adv-x="595" 
d="M298 761q116 0 192 -73q78 -74 78 -183t-78 -183q-76 -73 -192 -73q-118 0 -194 73q-77 74 -77 183t77 183q76 73 194 73zM298 299q95 0 153 58q60 59 60 148t-60 148q-58 58 -153 58q-96 0 -155 -58q-59 -59 -59 -148t59 -148q59 -58 155 -58zM419 559q0 -61 -43 -86
l57 -120h-88l-50 106h-35v-106h-80v306h140q45 0 72 -26.5t27 -73.5zM260 594v-71h39q38 0 38 36q0 35 -38 35h-39z" />
    <glyph glyph-name="overscore" unicode="&#xaf;" horiz-adv-x="317" 
d="M308 731v-112h-300v112h300z" />
    <glyph glyph-name="degree" unicode="&#xb0;" horiz-adv-x="377" 
d="M188 758q73 0 117.5 -40.5t44.5 -109.5v-22q0 -69 -44.5 -109.5t-117.5 -40.5t-117 40.5t-44 109.5v22q0 69 44 109.5t117 40.5zM188 669q-29 0 -45.5 -17.5t-16.5 -48.5v-12q0 -31 16.5 -48.5t45.5 -17.5q28 0 45 18t17 48v12q0 30 -17 48t-45 18z" />
    <glyph glyph-name="plusminus" unicode="&#xb1;" horiz-adv-x="548" 
d="M345 723v-176h172v-132h-172v-177h-142v177h-172v132h172v176h142zM517 186v-136h-486v136h486z" />
    <glyph glyph-name="acute" unicode="&#xb4;" horiz-adv-x="268" 
d="M258 789l-135 -191h-114l85 191h164z" />
    <glyph glyph-name="paragraph" unicode="&#xb6;" horiz-adv-x="711" 
d="M694 748v-108h-70v-707h-113v707h-96v-707h-112v435h-56q-98 0 -155 49.5t-57 141.5q0 90 57 139.5t155 49.5h447z" />
    <glyph glyph-name="middot" unicode="&#xb7;" horiz-adv-x="269" 
d="M63 386q26 26 63 26t63 -26t26 -63t-26 -63q-26 -25 -63 -25t-63 25q-25 26 -25 63t25 63z" />
    <glyph glyph-name="cedilla" unicode="&#xb8;" horiz-adv-x="274" 
d="M95 12h64l-13 -53q48 -3 80 -31.5t32 -72.5q0 -50 -40 -78.5t-100 -28.5q-62 0 -99 19l23 77q23 -14 55 -14q52 0 52 35q0 37 -55 37q-18 0 -36 -5z" />
    <glyph glyph-name="ordmasculine" unicode="&#xba;" horiz-adv-x="513" 
d="M256 757q98 0 160 -60q63 -60 63 -157q0 -98 -63 -156q-62 -59 -160 -59t-160 59t-62 156t62 157q63 60 160 60zM256 645q-41 0 -65.5 -28t-24.5 -77q0 -48 24.5 -76t65.5 -28q42 0 67 28t25 76q0 49 -25 77t-67 28z" />
    <glyph glyph-name="guillemotright" unicode="&#xbb;" horiz-adv-x="581" 
d="M133 493l163 -235l-163 -235l-116 72l117 163l-117 163zM403 493l163 -235l-163 -235l-116 72l117 163l-117 163z" />
    <glyph glyph-name="onequarter" unicode="&#xbc;" horiz-adv-x="736" 
d="M690 748l-507 -748h-148l506 748h149zM202 733v-411h-112v264l-47 -31l-47 91l135 87h71zM675 411v-249h44v-99h-44v-63h-112v63h-164v87l168 261h108zM563 260l-66 -98h66v98z" />
    <glyph glyph-name="onehalf" unicode="&#xbd;" horiz-adv-x="780" 
d="M690 748l-507 -748h-148l506 748h149zM202 733v-411h-112v264l-47 -31l-47 91l135 87h71zM617 418q67 0 103 -36t36 -97q0 -67 -63 -138l-43 -48h108v-99h-276v77l130 140q32 35 32 69q0 32 -24 32q-29 0 -29 -37l-110 6q1 60 38 95.5t98 35.5z" />
    <glyph glyph-name="threequarters" unicode="&#xbe;" horiz-adv-x="814" 
d="M768 748l-507 -748h-148l506 748h149zM162 739q65 0 100 -33.5t35 -91.5q0 -53 -43 -81q48 -23 48 -87q0 -60 -39 -96t-102 -36q-66 0 -103 34.5t-38 94.5l113 8q1 -37 28 -37q29 0 29 35q0 36 -34 36h-45v90h43q15 0 24.5 9t9.5 24q0 31 -26 31q-27 0 -27 -33l-109 6
q0 60 35 93.5t101 33.5zM753 411v-249h44v-99h-44v-63h-112v63h-164v87l168 261h108zM641 260l-66 -98h66v98z" />
    <glyph glyph-name="questiondown" unicode="&#xbf;" horiz-adv-x="535" 
d="M178 440q0 36 26 61.5t63 25.5t62.5 -25.5t25.5 -61.5q0 -37 -25.5 -63t-62.5 -26t-63 26t-26 63zM267 -243q-116 0 -184 62q-67 61 -67 165q0 40 16 72q15 31 31.5 49t51.5 45q41 32 57.5 55t16.5 52v31h155v-37q0 -42 -22.5 -75.5t-73.5 -76.5q-41 -34 -57.5 -58
t-16.5 -55q0 -44 25 -68.5t68 -24.5t69 26.5t29 73.5l154 -10q-4 -103 -73 -164q-70 -62 -179 -62z" />
    <glyph glyph-name="Agrave" unicode="&#xc0;" horiz-adv-x="789" 
d="M328 949l128 -154h-133l-194 154h199zM459 748l322 -748h-170l-61 144h-311l-62 -144h-169l321 748h130zM395 509l-101 -239h202z" />
    <glyph glyph-name="Aacute" unicode="&#xc1;" horiz-adv-x="789" 
d="M654 949l-194 -154h-133l128 154h199zM459 748l322 -748h-170l-61 144h-311l-62 -144h-169l321 748h130zM395 509l-101 -239h202z" />
    <glyph glyph-name="Acircumflex" unicode="&#xc2;" horiz-adv-x="789" 
d="M466 955l116 -160h-123l-64 75l-65 -75h-122l117 160h141zM459 748l322 -748h-170l-61 144h-311l-62 -144h-169l321 748h130zM395 509l-101 -239h202z" />
    <glyph glyph-name="Atilde" unicode="&#xc3;" horiz-adv-x="789" 
d="M320 959q35 0 74 -27q41 -26 59 -26q41 0 42 46h82q5 -63 -25 -109t-83 -46q-34 0 -75 26q-39 27 -57 27q-42 0 -42 -46h-82q-4 63 24 109q30 46 83 46zM459 748l322 -748h-170l-61 144h-311l-62 -144h-169l321 748h130zM395 509l-101 -239h202z" />
    <glyph glyph-name="Adieresis" unicode="&#xc4;" horiz-adv-x="789" 
d="M243 934q23 23 56 23t56 -23q24 -23 24 -56t-24 -56q-23 -23 -56 -23t-56 23t-23 56t23 56zM436 934q23 23 56 23t56 -23t23 -56t-23 -56t-56 -23t-56 23t-23 56t23 56zM459 748l322 -748h-170l-61 144h-311l-62 -144h-169l321 748h130zM395 509l-101 -239h202z" />
    <glyph glyph-name="Aring" unicode="&#xc5;" horiz-adv-x="789" 
d="M395 1008q48 0 80.5 -30.5t32.5 -77.5q0 -46 -33 -76.5t-80 -30.5q-49 0 -82.5 30.5t-33.5 76.5q0 47 33.5 77.5t82.5 30.5zM395 941q-19 0 -30.5 -11.5t-11.5 -29.5q0 -17 11.5 -28t30.5 -11q17 0 28 11t11 28q0 18 -11 29.5t-28 11.5zM459 748l322 -748h-170l-61 144
h-311l-62 -144h-169l321 748h130zM395 509l-101 -239h202z" />
    <glyph glyph-name="AE" unicode="&#xc6;" horiz-adv-x="1053" 
d="M1006 612h-326v-162h282v-133h-282v-180h326v-137h-480v144h-236l-97 -144h-188l504 748h497v-136zM374 270h152v230z" />
    <glyph glyph-name="Ccedilla" unicode="&#xc7;" horiz-adv-x="826" 
d="M623 285l162 -14q-21 -124 -112 -200q-92 -75 -221 -81l-9 -36q48 -3 80 -31.5t32 -72.5q0 -50 -40 -78.5t-100 -28.5q-62 0 -99 19l23 77q23 -14 55 -14q52 0 52 35q0 37 -55 37q-18 0 -36 -5l32 99q-150 13 -245 116q-93 102 -93 267q0 178 106 281q107 104 274 104
q138 0 236 -77q99 -77 119 -208l-161 -14q-16 78 -68 120t-131 42q-99 0 -159 -68q-59 -68 -59 -180q0 -119 61 -183q62 -65 158 -65q79 0 131 41t67 118z" />
    <glyph glyph-name="Egrave" unicode="&#xc8;" 
d="M252 949l128 -154h-133l-194 154h199zM555 748v-136h-325v-162h282v-133h-282v-180h326v-137h-481v748h480z" />
    <glyph glyph-name="Eacute" unicode="&#xc9;" 
d="M579 949l-194 -154h-133l128 154h199zM555 748v-136h-325v-162h282v-133h-282v-180h326v-137h-481v748h480z" />
    <glyph glyph-name="Ecircumflex" unicode="&#xca;" 
d="M390 955l116 -160h-123l-64 75l-65 -75h-122l117 160h141zM555 748v-136h-325v-162h282v-133h-282v-180h326v-137h-481v748h480z" />
    <glyph glyph-name="Edieresis" unicode="&#xcb;" 
d="M167 934q23 23 56 23t56 -23q24 -23 24 -56t-24 -56q-23 -23 -56 -23t-56 23t-23 56t23 56zM360 934q23 23 56 23t56 -23t23 -56t-23 -56t-56 -23t-56 23t-23 56t23 56zM555 748v-136h-325v-162h282v-133h-282v-180h326v-137h-481v748h480z" />
    <glyph glyph-name="Igrave" unicode="&#xcc;" horiz-adv-x="305" 
d="M90 949l128 -154h-133l-194 154h199zM230 748v-748h-155v748h155z" />
    <glyph glyph-name="Iacute" unicode="&#xcd;" horiz-adv-x="305" 
d="M417 949l-194 -154h-133l128 154h199zM230 748v-748h-155v748h155z" />
    <glyph glyph-name="Icircumflex" unicode="&#xce;" horiz-adv-x="305" 
d="M228 955l116 -160h-123l-64 75l-65 -75h-122l117 160h141zM230 748v-748h-155v748h155z" />
    <glyph glyph-name="Idieresis" unicode="&#xcf;" horiz-adv-x="305" 
d="M5 934q23 23 56 23t56 -23q24 -23 24 -56t-24 -56q-23 -23 -56 -23t-56 23t-23 56t23 56zM198 934q23 23 56 23t56 -23t23 -56t-23 -56t-56 -23t-56 23t-23 56t23 56zM230 748v-748h-155v748h155z" />
    <glyph glyph-name="Eth" unicode="&#xd0;" horiz-adv-x="805" 
d="M92 432v316h308q163 0 267 -101t104 -273q0 -173 -104 -274q-103 -100 -268 -100h-307v315h-84v117h84zM246 315v-183h155q101 0 159 63t58 179q0 117 -57.5 179.5t-159.5 62.5h-155v-184h110v-117h-110z" />
    <glyph glyph-name="Ntilde" unicode="&#xd1;" horiz-adv-x="764" 
d="M300 959q35 0 74 -27q41 -26 59 -26q41 0 42 46h82q5 -63 -25 -109t-83 -46q-34 0 -75 26q-39 27 -57 27q-42 0 -42 -46h-82q-4 63 24 109q30 46 83 46zM689 748v-748h-131l-328 463v-463h-155v748h131l329 -464v464h154z" />
    <glyph glyph-name="Ograve" unicode="&#xd2;" horiz-adv-x="875" 
d="M367 949l128 -154h-133l-194 154h199zM438 759q170 0 279 -106q109 -105 109 -279t-109 -280q-109 -105 -279 -105t-280 105q-109 106 -109 280t109 279q109 106 280 106zM438 622q-104 0 -168 -67q-64 -65 -64 -181q0 -114 64 -181t168 -67q103 0 166 67q64 67 64 181
q0 116 -64 181q-63 67 -166 67z" />
    <glyph glyph-name="Oacute" unicode="&#xd3;" horiz-adv-x="875" 
d="M694 949l-194 -154h-133l128 154h199zM438 759q170 0 279 -106q109 -105 109 -279t-109 -280q-109 -105 -279 -105t-280 105q-109 106 -109 280t109 279q109 106 280 106zM438 622q-104 0 -168 -67q-64 -65 -64 -181q0 -114 64 -181t168 -67q103 0 166 67q64 67 64 181
q0 116 -64 181q-63 67 -166 67z" />
    <glyph glyph-name="Ocircumflex" unicode="&#xd4;" horiz-adv-x="875" 
d="M505 955l116 -160h-123l-64 75l-65 -75h-122l117 160h141zM438 759q170 0 279 -106q109 -105 109 -279t-109 -280q-109 -105 -279 -105t-280 105q-109 106 -109 280t109 279q109 106 280 106zM438 622q-104 0 -168 -67q-64 -65 -64 -181q0 -114 64 -181t168 -67
q103 0 166 67q64 67 64 181q0 116 -64 181q-63 67 -166 67z" />
    <glyph glyph-name="Otilde" unicode="&#xd5;" horiz-adv-x="875" 
d="M359 959q35 0 74 -27q41 -26 59 -26q41 0 42 46h82q5 -63 -25 -109t-83 -46q-34 0 -75 26q-39 27 -57 27q-42 0 -42 -46h-82q-4 63 24 109q30 46 83 46zM438 759q170 0 279 -106q109 -105 109 -279t-109 -280q-109 -105 -279 -105t-280 105q-109 106 -109 280t109 279
q109 106 280 106zM438 622q-104 0 -168 -67q-64 -65 -64 -181q0 -114 64 -181t168 -67q103 0 166 67q64 67 64 181q0 116 -64 181q-63 67 -166 67z" />
    <glyph glyph-name="Odieresis" unicode="&#xd6;" horiz-adv-x="875" 
d="M283 934q23 23 56 23t56 -23q24 -23 24 -56t-24 -56q-23 -23 -56 -23t-56 23t-23 56t23 56zM476 934q23 23 56 23t56 -23t23 -56t-23 -56t-56 -23t-56 23t-23 56t23 56zM438 759q170 0 279 -106q109 -105 109 -279t-109 -280q-109 -105 -279 -105t-280 105
q-109 106 -109 280t109 279q109 106 280 106zM438 622q-104 0 -168 -67q-64 -65 -64 -181q0 -114 64 -181t168 -67q103 0 166 67q64 67 64 181q0 116 -64 181q-63 67 -166 67z" />
    <glyph glyph-name="multiply" unicode="&#xd7;" horiz-adv-x="549" 
d="M408 601l97 -97l-134 -133l135 -135l-97 -97l-135 135l-134 -135l-97 97l135 135l-134 134l96 97l134 -135z" />
    <glyph glyph-name="Oslash" unicode="&#xd8;" horiz-adv-x="868" 
d="M684 799l95 -71l-59 -77q106 -107 106 -277q0 -174 -109 -280q-109 -105 -279 -105q-107 0 -192 43l-62 -81l-95 72l61 80q-101 104 -101 271q0 174 109 279q109 106 280 106q104 0 185 -40zM206 374q0 -86 39 -148l289 378q-42 18 -96 18q-104 0 -168 -67
q-64 -65 -64 -181zM438 126q103 0 166 67q64 67 64 181q0 92 -42 154l-292 -381q46 -21 104 -21z" />
    <glyph glyph-name="Ugrave" unicode="&#xd9;" horiz-adv-x="777" 
d="M321 949l128 -154h-133l-194 154h199zM553 748h154v-444q0 -150 -85 -232q-86 -83 -233 -83q-148 0 -234 83q-85 82 -85 232v444h154v-442q0 -88 42 -134t123 -46q80 0 122 46t42 134v442z" />
    <glyph glyph-name="Uacute" unicode="&#xda;" horiz-adv-x="777" 
d="M648 949l-194 -154h-133l128 154h199zM553 748h154v-444q0 -150 -85 -232q-86 -83 -233 -83q-148 0 -234 83q-85 82 -85 232v444h154v-442q0 -88 42 -134t123 -46q80 0 122 46t42 134v442z" />
    <glyph glyph-name="Ucircumflex" unicode="&#xdb;" horiz-adv-x="777" 
d="M460 955l116 -160h-123l-64 75l-65 -75h-122l117 160h141zM553 748h154v-444q0 -150 -85 -232q-86 -83 -233 -83q-148 0 -234 83q-85 82 -85 232v444h154v-442q0 -88 42 -134t123 -46q80 0 122 46t42 134v442z" />
    <glyph glyph-name="Udieresis" unicode="&#xdc;" horiz-adv-x="777" 
d="M237 934q23 23 56 23t56 -23q24 -23 24 -56t-24 -56q-23 -23 -56 -23t-56 23t-23 56t23 56zM430 934q23 23 56 23t56 -23t23 -56t-23 -56t-56 -23t-56 23t-23 56t23 56zM553 748h154v-444q0 -150 -85 -232q-86 -83 -233 -83q-148 0 -234 83q-85 82 -85 232v444h154v-442
q0 -88 42 -134t123 -46q80 0 122 46t42 134v442z" />
    <glyph glyph-name="Yacute" unicode="&#xdd;" horiz-adv-x="744" 
d="M632 949l-194 -154h-133l128 154h199zM733 748l-283 -460v-288h-154v288l-284 460h179l181 -307l181 307h180z" />
    <glyph glyph-name="Thorn" unicode="&#xde;" horiz-adv-x="656" 
d="M230 748v-95h157q110 0 175 -64q67 -63 67 -176q0 -112 -67 -176q-65 -64 -175 -64h-157v-173h-155v748h155zM367 516h-138v-206h138q47 0 75.5 27.5t28.5 75.5t-28.5 75.5t-75.5 27.5z" />
    <glyph glyph-name="germandbls" unicode="&#xdf;" horiz-adv-x="659" 
d="M308 785q110 0 174 -48q66 -48 66 -128q0 -65 -44 -101q-43 -35 -43 -73q0 -35 55 -76q28 -20 47 -37.5t36.5 -53t17.5 -77.5q0 -95 -66 -147q-64 -52 -167 -52q-59 0 -107 19l28 116q32 -13 66 -13q44 0 71.5 24.5t27.5 66.5q0 31 -22.5 60.5t-55.5 50.5t-55.5 51.5
t-22.5 64.5q0 58 43 89q44 29 44 63q0 37 -23.5 58t-66.5 21q-44 0 -69 -26.5t-25 -74.5v-562h-146v566q0 100 65 159q65 60 172 60z" />
    <glyph glyph-name="agrave" unicode="&#xe0;" horiz-adv-x="557" 
d="M255 789l83 -191h-113l-136 191h166zM274 527q105 0 160 -53t55 -155v-319h-141v42q-51 -53 -132 -53t-126.5 39.5t-45.5 113.5q0 148 207 157l92 5v20q0 80 -67 80q-34 0 -53 -19.5t-19 -48.5l-146 6q0 72 60 128q62 57 156 57zM343 186v22l-78 -5q-75 -3 -75 -54
q0 -47 60 -47q42 0 67.5 22.5t25.5 61.5z" />
    <glyph glyph-name="aacute" unicode="&#xe1;" horiz-adv-x="557" 
d="M475 789l-135 -191h-114l85 191h164zM274 527q105 0 160 -53t55 -155v-319h-141v42q-51 -53 -132 -53t-126.5 39.5t-45.5 113.5q0 148 207 157l92 5v20q0 80 -67 80q-34 0 -53 -19.5t-19 -48.5l-146 6q0 72 60 128q62 57 156 57zM343 186v22l-78 -5q-75 -3 -75 -54
q0 -47 60 -47q42 0 67.5 22.5t25.5 61.5z" />
    <glyph glyph-name="acircumflex" unicode="&#xe2;" horiz-adv-x="557" 
d="M356 776l117 -177h-122l-65 82l-65 -82h-122l116 177h141zM274 527q105 0 160 -53t55 -155v-319h-141v42q-51 -53 -132 -53t-126.5 39.5t-45.5 113.5q0 148 207 157l92 5v20q0 80 -67 80q-34 0 -53 -19.5t-19 -48.5l-146 6q0 72 60 128q62 57 156 57zM343 186v22l-78 -5
q-75 -3 -75 -54q0 -47 60 -47q42 0 67.5 22.5t25.5 61.5z" />
    <glyph glyph-name="atilde" unicode="&#xe3;" horiz-adv-x="557" 
d="M210 761q35 0 74 -27q41 -27 59 -27q40 0 42 47h82q5 -64 -25 -110t-83 -46q-34 0 -75 26q-39 27 -57 27q-42 0 -42 -46h-82q-4 63 24 109q30 47 83 47zM274 527q105 0 160 -53t55 -155v-319h-141v42q-51 -53 -132 -53t-126.5 39.5t-45.5 113.5q0 148 207 157l92 5v20
q0 80 -67 80q-34 0 -53 -19.5t-19 -48.5l-146 6q0 72 60 128q62 57 156 57zM343 186v22l-78 -5q-75 -3 -75 -54q0 -47 60 -47q42 0 67.5 22.5t25.5 61.5z" />
    <glyph glyph-name="adieresis" unicode="&#xe4;" horiz-adv-x="557" 
d="M268 679q0 -33 -23.5 -56t-56.5 -23t-56 22.5t-23 56.5q0 32 23 55t56 23t56.5 -23t23.5 -55zM460 679q0 -34 -23 -56.5t-56 -22.5t-56 22.5t-23 56.5q0 32 23 55t56 23t56 -23t23 -55zM274 527q105 0 160 -53t55 -155v-319h-141v42q-51 -53 -132 -53t-126.5 39.5
t-45.5 113.5q0 148 207 157l92 5v20q0 80 -67 80q-34 0 -53 -19.5t-19 -48.5l-146 6q0 72 60 128q62 57 156 57zM343 186v22l-78 -5q-75 -3 -75 -54q0 -47 60 -47q42 0 67.5 22.5t25.5 61.5z" />
    <glyph glyph-name="aring" unicode="&#xe5;" horiz-adv-x="557" 
d="M192 788q38 35 93 35t93 -35t38 -87q0 -53 -38 -88q-37 -34 -93 -34t-93 34q-38 35 -38 88q0 52 38 87zM285 745q-28 3 -39.5 -20.5t0 -46.5t39.5 -20q27 -3 38.5 20t0 46.5t-38.5 20.5zM274 527q105 0 160 -53t55 -155v-319h-141v42q-51 -53 -132 -53t-126.5 39.5
t-45.5 113.5q0 148 207 157l92 5v20q0 80 -67 80q-34 0 -53 -19.5t-19 -48.5l-146 6q0 72 60 128q62 57 156 57zM343 186v22l-78 -5q-75 -3 -75 -54q0 -47 60 -47q42 0 67.5 22.5t25.5 61.5z" />
    <glyph glyph-name="ae" unicode="&#xe6;" horiz-adv-x="899" 
d="M855 270v-58h-355q2 -49 30.5 -77t77.5 -28q78 0 95 57l147 -7q-14 -75 -81 -121q-68 -47 -158 -47q-125 0 -198 78q-75 -78 -185 -78q-87 0 -135.5 40.5t-48.5 114.5q0 146 207 155l92 5v19q0 82 -68 82q-34 0 -52.5 -20t-18.5 -49l-146 6q0 73 59 129t154 56
q105 0 160 -61q68 61 177 61q112 0 180 -69q67 -67 67 -188zM606 413q-46 0 -74.5 -27.5t-31.5 -76.5h208q-2 49 -28.5 76.5t-73.5 27.5zM343 186v22l-78 -5q-75 -3 -75 -53q0 -46 60 -46q41 0 67 21t26 61z" />
    <glyph glyph-name="ccedilla" unicode="&#xe7;" horiz-adv-x="592" 
d="M309 115q43 0 70 22.5t33 61.5l142 -13q-14 -85 -75 -138t-149 -58l-9 -35q48 -3 80 -31.5t32 -72.5q0 -50 -40 -78.5t-100 -28.5q-62 0 -99 19l23 77q23 -14 55 -14q52 0 52 35q0 37 -55 37q-18 0 -36 -5l32 99q-98 13 -160 84q-61 70 -61 182q0 125 74 197
q73 72 191 72q95 0 163 -54q69 -55 82 -146l-143 -12q-5 40 -32.5 63.5t-69.5 23.5q-53 0 -85 -38.5t-32 -105.5q0 -66 32.5 -104.5t84.5 -38.5z" />
    <glyph glyph-name="egrave" unicode="&#xe8;" horiz-adv-x="598" 
d="M356 598h-113l-136 191h166zM554 270v-58h-355q2 -49 30.5 -77t77.5 -28q79 0 95 57l147 -7q-14 -75 -81 -121q-67 -47 -157 -47q-121 0 -194 73t-73 196q0 124 73 196q73 73 190 73q113 0 180 -69q67 -67 67 -188zM306 413q-47 0 -75.5 -27.5t-31.5 -76.5h208
q-2 50 -28 77t-73 27z" />
    <glyph glyph-name="eacute" unicode="&#xe9;" horiz-adv-x="598" 
d="M494 789l-135 -191h-114l85 191h164zM554 270v-58h-355q2 -49 30.5 -77t77.5 -28q79 0 95 57l147 -7q-14 -75 -81 -121q-67 -47 -157 -47q-121 0 -194 73t-73 196q0 124 73 196q73 73 190 73q113 0 180 -69q67 -67 67 -188zM306 413q-47 0 -75.5 -27.5t-31.5 -76.5h208
q-2 50 -28 77t-73 27z" />
    <glyph glyph-name="ecircumflex" unicode="&#xea;" horiz-adv-x="598" 
d="M304 681l-65 -82h-122l116 177h141l117 -177h-122zM554 270v-58h-355q2 -49 30.5 -77t77.5 -28q79 0 95 57l147 -7q-14 -75 -81 -121q-67 -47 -157 -47q-121 0 -194 73t-73 196q0 124 73 196q73 73 190 73q113 0 180 -69q67 -67 67 -188zM306 413q-47 0 -75.5 -27.5
t-31.5 -76.5h208q-2 50 -28 77t-73 27z" />
    <glyph glyph-name="edieresis" unicode="&#xeb;" horiz-adv-x="598" 
d="M127 679q0 32 23 55t56 23t56.5 -23t23.5 -55q0 -33 -23.5 -56t-56.5 -23t-56 22.5t-23 56.5zM320 679q0 32 23 55t56 23t56 -23t23 -55q0 -34 -23 -56.5t-56 -22.5t-56 22.5t-23 56.5zM554 270v-58h-355q2 -49 30.5 -77t77.5 -28q79 0 95 57l147 -7q-14 -75 -81 -121
q-67 -47 -157 -47q-121 0 -194 73t-73 196q0 124 73 196q73 73 190 73q113 0 180 -69q67 -67 67 -188zM306 413q-47 0 -75.5 -27.5t-31.5 -76.5h208q-2 50 -28 77t-73 27z" />
    <glyph glyph-name="igrave" unicode="&#xec;" horiz-adv-x="291" 
d="M118 789l83 -191h-113l-136 191h166zM218 517v-517h-146v517h146z" />
    <glyph glyph-name="iacute" unicode="&#xed;" horiz-adv-x="291" 
d="M338 789l-135 -191h-114l85 191h164zM218 517v-517h-146v517h146z" />
    <glyph glyph-name="icircumflex" unicode="&#xee;" horiz-adv-x="291" 
d="M219 776l117 -177h-122l-65 82l-65 -82h-122l116 177h141zM218 517v-517h-146v517h146z" />
    <glyph glyph-name="idieresis" unicode="&#xef;" horiz-adv-x="291" 
d="M131 679q0 -33 -23.5 -56t-56.5 -23t-56 22.5t-23 56.5q0 32 23 55t56 23t56.5 -23t23.5 -55zM323 679q0 -34 -23 -56.5t-56 -22.5t-56 22.5t-23 56.5q0 32 23 55t56 23t56 -23t23 -55zM218 517v-517h-146v517h146z" />
    <glyph glyph-name="eth" unicode="&#xf0;" horiz-adv-x="608" 
d="M421 802l68 -63l-69 -65q142 -133 142 -405q0 -133 -72 -207q-70 -73 -191 -73q-108 0 -181 67q-74 68 -74 182q0 111 73 177q73 67 181 67q50 0 98 -17q-22 79 -67 125l-71 -67l-66 65l58 54q-49 20 -119 23v112q121 0 212 -48zM304 110q53 0 84 35t31 92q0 59 -30.5 93
t-84.5 34q-52 0 -84.5 -35t-32.5 -92t32.5 -92t84.5 -35z" />
    <glyph glyph-name="ntilde" unicode="&#xf1;" horiz-adv-x="618" 
d="M245 761q35 0 74 -27q41 -27 59 -27q40 0 42 47h82q5 -64 -25 -110t-83 -46q-34 0 -75 26q-39 27 -57 27q-42 0 -42 -46h-82q-4 63 24 109q30 47 83 47zM349 527q92 0 147 -56.5t55 -154.5v-316h-146v288q0 48 -24.5 75.5t-66.5 27.5q-43 0 -69.5 -28.5t-26.5 -75.5v-287
h-146v517h138v-53q41 63 139 63z" />
    <glyph glyph-name="ograve" unicode="&#xf2;" horiz-adv-x="638" 
d="M287 789l83 -191h-113l-136 191h166zM594 258q0 -120 -78 -195q-77 -74 -197 -74q-119 0 -198 74q-77 75 -77 195q0 121 77 195q79 74 198 74q120 0 197 -74q78 -73 78 -195zM411 363q-35 39 -92 39t-92 -39q-35 -38 -35 -105t35 -105t92 -38t92 38t35 105t-35 105z" />
    <glyph glyph-name="oacute" unicode="&#xf3;" horiz-adv-x="638" 
d="M508 789l-135 -191h-114l85 191h164zM594 258q0 -120 -78 -195q-77 -74 -197 -74q-119 0 -198 74q-77 75 -77 195q0 121 77 195q79 74 198 74q120 0 197 -74q78 -73 78 -195zM411 363q-35 39 -92 39t-92 -39q-35 -38 -35 -105t35 -105t92 -38t92 38t35 105t-35 105z" />
    <glyph glyph-name="ocircumflex" unicode="&#xf4;" horiz-adv-x="638" 
d="M388 776l117 -177h-122l-65 82l-65 -82h-122l116 177h141zM594 258q0 -120 -78 -195q-77 -74 -197 -74q-119 0 -198 74q-77 75 -77 195q0 121 77 195q79 74 198 74q120 0 197 -74q78 -73 78 -195zM411 363q-35 39 -92 39t-92 -39q-35 -38 -35 -105t35 -105t92 -38t92 38
t35 105t-35 105z" />
    <glyph glyph-name="otilde" unicode="&#xf5;" horiz-adv-x="638" 
d="M242 761q35 0 74 -27q41 -27 59 -27q40 0 42 47h82q5 -64 -25 -110t-83 -46q-34 0 -75 26q-39 27 -57 27q-42 0 -42 -46h-82q-4 63 24 109q30 47 83 47zM594 258q0 -120 -78 -195q-77 -74 -197 -74q-119 0 -198 74q-77 75 -77 195q0 121 77 195q79 74 198 74
q120 0 197 -74q78 -73 78 -195zM411 363q-35 39 -92 39t-92 -39q-35 -38 -35 -105t35 -105t92 -38t92 38t35 105t-35 105z" />
    <glyph glyph-name="odieresis" unicode="&#xf6;" horiz-adv-x="638" 
d="M300 679q0 -33 -23.5 -56t-56.5 -23t-56 22.5t-23 56.5q0 32 23 55t56 23t56.5 -23t23.5 -55zM492 679q0 -34 -23 -56.5t-56 -22.5t-56 22.5t-23 56.5q0 32 23 55t56 23t56 -23t23 -55zM594 258q0 -120 -78 -195q-77 -74 -197 -74q-119 0 -198 74q-77 75 -77 195
q0 121 77 195q79 74 198 74q120 0 197 -74q78 -73 78 -195zM411 363q-35 39 -92 39t-92 -39q-35 -38 -35 -105t35 -105t92 -38t92 38t35 105t-35 105z" />
    <glyph glyph-name="divide" unicode="&#xf7;" horiz-adv-x="548" 
d="M211 676q26 26 63 26t63 -26t26 -63t-26 -62t-63 -25t-63 25q-25 25 -25 62t25 63zM517 440v-137h-486v137h486zM211 192q26 26 63 26t63 -26q26 -25 26 -62t-26 -63t-63 -26t-63 26q-25 26 -25 63t25 62z" />
    <glyph glyph-name="oslash" unicode="&#xf8;" horiz-adv-x="638" 
d="M480 552l80 -60l-36 -47q70 -73 70 -187q0 -120 -78 -195q-77 -74 -197 -74q-67 0 -121 24l-44 -59l-80 59l42 56q-72 75 -72 189q0 121 77 195q79 74 198 74q67 0 124 -25zM192 258q0 -41 13 -71l157 208q-17 7 -43 7q-57 0 -92 -39t-35 -105zM319 115q58 0 92.5 38.5
t34.5 104.5q0 36 -11 67l-155 -205q22 -5 39 -5z" />
    <glyph glyph-name="ugrave" unicode="&#xf9;" 
d="M271 789l83 -191h-113l-136 191h166zM530 517v-517h-138v52q-39 -63 -134 -63q-89 0 -140 54t-51 149v325h146v-294q0 -98 83 -98q41 0 64.5 27.5t23.5 72.5v292h146z" />
    <glyph glyph-name="uacute" unicode="&#xfa;" 
d="M492 789l-135 -191h-114l85 191h164zM530 517v-517h-138v52q-39 -63 -134 -63q-89 0 -140 54t-51 149v325h146v-294q0 -98 83 -98q41 0 64.5 27.5t23.5 72.5v292h146z" />
    <glyph glyph-name="ucircumflex" unicode="&#xfb;" 
d="M372 776l117 -177h-122l-65 82l-65 -82h-122l116 177h141zM530 517v-517h-138v52q-39 -63 -134 -63q-89 0 -140 54t-51 149v325h146v-294q0 -98 83 -98q41 0 64.5 27.5t23.5 72.5v292h146z" />
    <glyph glyph-name="udieresis" unicode="&#xfc;" 
d="M284 679q0 -33 -23.5 -56t-56.5 -23t-56 22.5t-23 56.5q0 32 23 55t56 23t56.5 -23t23.5 -55zM476 679q0 -34 -23 -56.5t-56 -22.5t-56 22.5t-23 56.5q0 32 23 55t56 23t56 -23t23 -55zM530 517v-517h-138v52q-39 -63 -134 -63q-89 0 -140 54t-51 149v325h146v-294
q0 -98 83 -98q41 0 64.5 27.5t23.5 72.5v292h146z" />
    <glyph glyph-name="yacute" unicode="&#xfd;" horiz-adv-x="573" 
d="M476 789l-135 -191h-114l85 191h164zM567 517l-331 -772h-159l132 301l-202 471h161l119 -308l118 308h162z" />
    <glyph glyph-name="thorn" unicode="&#xfe;" horiz-adv-x="657" 
d="M72 777h146v-305q48 55 145 55q111 0 180 -74q70 -73 70 -195t-70 -195q-69 -74 -180 -74q-96 0 -145 55v-299h-146v1032zM340 402q-55 0 -88.5 -36t-33.5 -96v-24q0 -60 33.5 -96t88.5 -36q57 0 91 38.5t34 105.5t-34 105.5t-91 38.5z" />
    <glyph glyph-name="ydieresis" unicode="&#xff;" horiz-adv-x="573" 
d="M269 679q0 -33 -23.5 -56t-56.5 -23t-56 22.5t-23 56.5q0 32 23 55t56 23t56.5 -23t23.5 -55zM461 679q0 -34 -23 -56.5t-56 -22.5t-56 22.5t-23 56.5q0 32 23 55t56 23t56 -23t23 -55zM567 517l-331 -772h-159l132 301l-202 471h161l119 -308l118 308h162z" />
    <glyph glyph-name="Amacron" unicode="&#x100;" horiz-adv-x="789" 
d="M545 926v-111h-300v111h300zM459 748l322 -748h-170l-61 144h-311l-62 -144h-169l321 748h130zM395 509l-101 -239h202z" />
    <glyph glyph-name="amacron" unicode="&#x101;" horiz-adv-x="557" 
d="M435 731v-112h-300v112h300zM274 527q105 0 160 -53t55 -155v-319h-141v42q-51 -53 -132 -53t-126.5 39.5t-45.5 113.5q0 148 207 157l92 5v20q0 80 -67 80q-34 0 -53 -19.5t-19 -48.5l-146 6q0 72 60 128q62 57 156 57zM343 186v22l-78 -5q-75 -3 -75 -54q0 -47 60 -47
q42 0 67.5 22.5t25.5 61.5z" />
    <glyph glyph-name="Abreve" unicode="&#x102;" horiz-adv-x="789" 
d="M462 961h118q0 -80 -50 -122.5t-136 -42.5t-135.5 42.5t-49.5 122.5h118q0 -30 18.5 -47t48.5 -17q31 0 49.5 17t18.5 47zM459 748l322 -748h-170l-61 144h-311l-62 -144h-169l321 748h130zM395 509l-101 -239h202z" />
    <glyph glyph-name="abreve" unicode="&#x103;" horiz-adv-x="557" 
d="M353 758h118q0 -80 -50 -122.5t-136 -42.5t-135.5 42.5t-49.5 122.5h118q0 -30 18.5 -47.5t48.5 -17.5q31 0 49.5 17.5t18.5 47.5zM274 527q105 0 160 -53t55 -155v-319h-141v42q-51 -53 -132 -53t-126.5 39.5t-45.5 113.5q0 148 207 157l92 5v20q0 80 -67 80
q-34 0 -53 -19.5t-19 -48.5l-146 6q0 72 60 128q62 57 156 57zM343 186v22l-78 -5q-75 -3 -75 -54q0 -47 60 -47q42 0 67.5 22.5t25.5 61.5z" />
    <glyph glyph-name="Aogonek" unicode="&#x104;" horiz-adv-x="789" 
d="M664 -115q28 0 50 12l13 -71q-39 -18 -87 -18q-58 0 -92 24.5t-34 70.5q0 67 93 107l-57 134h-311l-62 -144h-169l321 748h130l322 -748h-85q-41 -23 -57 -39.5t-16 -39.5q0 -36 41 -36zM294 270h202l-101 239z" />
    <glyph glyph-name="aogonek" unicode="&#x105;" horiz-adv-x="557" 
d="M489 319v-319h-34q-39 -22 -55 -39t-16 -39q0 -36 41 -36q27 0 50 12l13 -71q-39 -18 -87 -18q-58 0 -92 24.5t-34 70.5q0 61 73 98v40q-51 -53 -132 -53t-126.5 39.5t-45.5 113.5q0 148 207 157l92 5v20q0 80 -67 80q-34 0 -53 -19.5t-19 -48.5l-146 6q0 72 60 128
q62 57 156 57q105 0 160 -53t55 -155zM343 186v22l-78 -5q-75 -3 -75 -54q0 -47 60 -47q42 0 67.5 22.5t25.5 61.5z" />
    <glyph glyph-name="Cacute" unicode="&#x106;" horiz-adv-x="826" 
d="M680 949l-194 -154h-133l128 154h199zM429 759q138 0 236 -77q99 -77 119 -208l-161 -14q-16 78 -68 120t-131 42q-99 0 -159 -68q-59 -68 -59 -180q0 -119 61 -183q62 -65 158 -65q79 0 131 41t67 118l162 -14q-21 -129 -119 -206q-97 -76 -236 -76q-168 0 -275 104
q-106 103 -106 281t106 281q107 104 274 104z" />
    <glyph glyph-name="cacute" unicode="&#x107;" horiz-adv-x="592" 
d="M492 789l-135 -191h-114l85 191h164zM309 527q95 0 163 -54q69 -55 82 -146l-143 -12q-5 40 -32.5 63.5t-69.5 23.5q-53 0 -85 -38.5t-32 -105.5q0 -66 32.5 -104.5t84.5 -38.5q43 0 70 22.5t33 61.5l142 -13q-15 -92 -82 -144q-68 -53 -163 -53q-118 0 -191 72
q-74 74 -74 197q0 125 74 197q73 72 191 72z" />
    <glyph glyph-name="Ccircumflex" unicode="&#x108;" horiz-adv-x="826" 
d="M492 955l116 -160h-123l-64 75l-65 -75h-122l117 160h141zM429 759q138 0 236 -77q99 -77 119 -208l-161 -14q-16 78 -68 120t-131 42q-99 0 -159 -68q-59 -68 -59 -180q0 -119 61 -183q62 -65 158 -65q79 0 131 41t67 118l162 -14q-21 -129 -119 -206q-97 -76 -236 -76
q-168 0 -275 104q-106 103 -106 281t106 281q107 104 274 104z" />
    <glyph glyph-name="ccircumflex" unicode="&#x109;" horiz-adv-x="592" 
d="M373 776l117 -177h-122l-65 82l-65 -82h-122l116 177h141zM309 527q95 0 163 -54q69 -55 82 -146l-143 -12q-5 40 -32.5 63.5t-69.5 23.5q-53 0 -85 -38.5t-32 -105.5q0 -66 32.5 -104.5t84.5 -38.5q43 0 70 22.5t33 61.5l142 -13q-15 -92 -82 -144q-68 -53 -163 -53
q-118 0 -191 72q-74 74 -74 197q0 125 74 197q73 72 191 72z" />
    <glyph glyph-name="Cdotaccent" unicode="&#x10a;" horiz-adv-x="826" 
d="M421 973q37 0 62.5 -25.5t25.5 -62.5t-25.5 -62t-62.5 -25q-36 0 -61.5 25t-25.5 62t26 62.5t61 25.5zM429 759q138 0 236 -77q99 -77 119 -208l-161 -14q-16 78 -68 120t-131 42q-99 0 -159 -68q-59 -68 -59 -180q0 -119 61 -183q62 -65 158 -65q79 0 131 41t67 118
l162 -14q-21 -129 -119 -206q-97 -76 -236 -76q-168 0 -275 104q-106 103 -106 281t106 281q107 104 274 104z" />
    <glyph glyph-name="cdotaccent" unicode="&#x10b;" horiz-adv-x="592" 
d="M302 770q37 0 62.5 -26t25.5 -62q0 -37 -25.5 -62.5t-62.5 -25.5q-36 0 -61.5 25.5t-25.5 62.5q0 36 26 62t61 26zM309 527q95 0 163 -54q69 -55 82 -146l-143 -12q-5 40 -32.5 63.5t-69.5 23.5q-53 0 -85 -38.5t-32 -105.5q0 -66 32.5 -104.5t84.5 -38.5q43 0 70 22.5
t33 61.5l142 -13q-15 -92 -82 -144q-68 -53 -163 -53q-118 0 -191 72q-74 74 -74 197q0 125 74 197q73 72 191 72z" />
    <glyph glyph-name="Ccaron" unicode="&#x10c;" horiz-adv-x="826" 
d="M608 955l-116 -160h-141l-117 160h122l65 -75l64 75h123zM429 759q138 0 236 -77q99 -77 119 -208l-161 -14q-16 78 -68 120t-131 42q-99 0 -159 -68q-59 -68 -59 -180q0 -119 61 -183q62 -65 158 -65q79 0 131 41t67 118l162 -14q-21 -129 -119 -206q-97 -76 -236 -76
q-168 0 -275 104q-106 103 -106 281t106 281q107 104 274 104z" />
    <glyph glyph-name="ccaron" unicode="&#x10d;" horiz-adv-x="592" 
d="M490 773l-117 -176h-141l-116 176h122l65 -82l65 82h122zM309 527q95 0 163 -54q69 -55 82 -146l-143 -12q-5 40 -32.5 63.5t-69.5 23.5q-53 0 -85 -38.5t-32 -105.5q0 -66 32.5 -104.5t84.5 -38.5q43 0 70 22.5t33 61.5l142 -13q-15 -92 -82 -144q-68 -53 -163 -53
q-118 0 -191 72q-74 74 -74 197q0 125 74 197q73 72 191 72z" />
    <glyph glyph-name="Dcaron" unicode="&#x10e;" horiz-adv-x="803" 
d="M535 955l-116 -160h-141l-117 160h122l65 -75l64 75h123zM75 0v748h308q163 0 267 -101t104 -273q0 -173 -104 -274q-103 -100 -268 -100h-307zM384 616h-155v-484h155q101 0 159 63t58 179q0 117 -57.5 179.5t-159.5 62.5z" />
    <glyph glyph-name="dcaron" unicode="&#x10f;" horiz-adv-x="816" 
d="M439 472v305h145v-777h-137v53q-23 -29 -63.5 -46.5t-90.5 -17.5q-109 0 -180 74q-69 73 -69 195t69 195q71 74 180 74q98 0 146 -55zM717 776q38 0 60 -26.5t22 -71.5q0 -151 -153 -229v61q52 33 67 90q-35 2 -58.5 27t-23.5 60q0 37 25 63t61 26zM439 247v23
q0 60 -33.5 96t-88.5 36q-57 0 -91 -38.5t-34 -105.5t34 -105t91 -38q55 0 88.5 35t33.5 97z" />
    <glyph glyph-name="Dcroat" unicode="&#x110;" horiz-adv-x="805" 
d="M93 432v316h307q164 0 268 -101t104 -273q0 -174 -105 -274q-103 -100 -268 -100h-306v315h-85v117h85zM247 315v-183h154q102 0 159.5 62.5t57.5 179.5t-57.5 179.5t-159.5 62.5h-154v-184h109v-117h-109z" />
    <glyph glyph-name="dslash" unicode="&#x111;" horiz-adv-x="655" 
d="M654 708v-112h-70v-596h-137v53q-23 -29 -63.5 -46.5t-90.5 -17.5q-109 0 -180 74q-69 73 -69 195t69 195q71 74 180 74q98 0 146 -55v124h-84v112h84v69h145v-69h70zM439 247v23q0 60 -33.5 96t-88.5 36q-57 0 -91 -38.5t-34 -105.5t34 -105t91 -38q55 0 88.5 35
t33.5 97z" />
    <glyph glyph-name="Emacron" unicode="&#x112;" 
d="M469 926v-111h-300v111h300zM555 748v-136h-325v-162h282v-133h-282v-180h326v-137h-481v748h480z" />
    <glyph glyph-name="emacron" unicode="&#x113;" horiz-adv-x="598" 
d="M454 731v-112h-300v112h300zM554 270v-58h-355q2 -49 30.5 -77t77.5 -28q79 0 95 57l147 -7q-14 -75 -81 -121q-67 -47 -157 -47q-121 0 -194 73t-73 196q0 124 73 196q73 73 190 73q113 0 180 -69q67 -67 67 -188zM306 413q-47 0 -75.5 -27.5t-31.5 -76.5h208
q-2 50 -28 77t-73 27z" />
    <glyph glyph-name="Ebreve" unicode="&#x114;" 
d="M387 961h118q0 -80 -50 -122.5t-136 -42.5t-135.5 42.5t-49.5 122.5h118q0 -30 18.5 -47t48.5 -17q31 0 49.5 17t18.5 47zM555 748v-136h-325v-162h282v-133h-282v-180h326v-137h-481v748h480z" />
    <glyph glyph-name="ebreve" unicode="&#x115;" horiz-adv-x="598" 
d="M303 593q-86 0 -135.5 42.5t-49.5 122.5h118q0 -30 18.5 -47.5t48.5 -17.5q31 0 49.5 17.5t18.5 47.5h118q0 -80 -50 -122.5t-136 -42.5zM554 270v-58h-355q2 -49 30.5 -77t77.5 -28q79 0 95 57l147 -7q-14 -75 -81 -121q-67 -47 -157 -47q-121 0 -194 73t-73 196
q0 124 73 196q73 73 190 73q113 0 180 -69q67 -67 67 -188zM306 413q-47 0 -75.5 -27.5t-31.5 -76.5h208q-2 50 -28 77t-73 27z" />
    <glyph glyph-name="Edotaccent" unicode="&#x116;" 
d="M319 973q37 0 62.5 -25.5t25.5 -62.5t-25.5 -62t-62.5 -25q-36 0 -61.5 25t-25.5 62t26 62.5t61 25.5zM555 748v-136h-325v-162h282v-133h-282v-180h326v-137h-481v748h480z" />
    <glyph glyph-name="edotaccent" unicode="&#x117;" horiz-adv-x="598" 
d="M304 594q-36 0 -61.5 25.5t-25.5 62.5q0 36 26 62t61 26q37 0 62.5 -26t25.5 -62q0 -37 -25.5 -62.5t-62.5 -25.5zM554 270v-58h-355q2 -49 30.5 -77t77.5 -28q79 0 95 57l147 -7q-14 -75 -81 -121q-67 -47 -157 -47q-121 0 -194 73t-73 196q0 124 73 196q73 73 190 73
q113 0 180 -69q67 -67 67 -188zM306 413q-47 0 -75.5 -27.5t-31.5 -76.5h208q-2 50 -28 77t-73 27z" />
    <glyph glyph-name="Eogonek" unicode="&#x118;" 
d="M569 -103l13 -71q-39 -18 -87 -18q-58 0 -92 24.5t-34 70.5q0 59 71 97h-365v748h480v-136h-325v-162h282v-133h-282v-180h326v-137h-5q-41 -23 -57 -39.5t-16 -39.5q0 -36 41 -36q27 0 50 12z" />
    <glyph glyph-name="eogonek" unicode="&#x119;" horiz-adv-x="598" 
d="M554 270v-58h-355q2 -49 30.5 -77t77.5 -28q79 0 95 57l147 -7q-10 -57 -56 -100.5t-112 -59.5q-37 -21 -52.5 -37.5t-15.5 -38.5q0 -36 41 -36q28 0 50 12l13 -71q-39 -18 -87 -18q-58 0 -92 24.5t-34 70.5q0 55 58 89q-101 15 -159.5 86t-58.5 180q0 124 73 196
q73 73 190 73q113 0 180 -69q67 -67 67 -188zM306 413q-47 0 -75.5 -27.5t-31.5 -76.5h208q-2 50 -28 77t-73 27z" />
    <glyph glyph-name="Ecaron" unicode="&#x11a;" 
d="M506 955l-116 -160h-141l-117 160h122l65 -75l64 75h123zM555 748v-136h-325v-162h282v-133h-282v-180h326v-137h-481v748h480z" />
    <glyph glyph-name="ecaron" unicode="&#x11b;" horiz-adv-x="598" 
d="M374 597h-141l-116 176h122l65 -82l65 82h122zM554 270v-58h-355q2 -49 30.5 -77t77.5 -28q79 0 95 57l147 -7q-14 -75 -81 -121q-67 -47 -157 -47q-121 0 -194 73t-73 196q0 124 73 196q73 73 190 73q113 0 180 -69q67 -67 67 -188zM306 413q-47 0 -75.5 -27.5
t-31.5 -76.5h208q-2 50 -28 77t-73 27z" />
    <glyph glyph-name="Gcircumflex" unicode="&#x11c;" horiz-adv-x="834" 
d="M422 870l-65 -75h-122l117 160h141l116 -160h-123zM428 408h357v-50q0 -168 -97 -268q-96 -101 -259 -101q-167 0 -274 104q-106 103 -106 281t106 281q107 104 273 104q131 0 226 -68q94 -67 124 -189l-160 -27q-16 69 -66 108t-125 39q-104 0 -162.5 -63.5
t-58.5 -184.5t58.5 -184.5t162.5 -63.5q155 0 189 146h-188v136z" />
    <glyph glyph-name="gcircumflex" unicode="&#x11d;" horiz-adv-x="648" 
d="M388 776l117 -177h-122l-65 82l-65 -82h-122l116 177h141zM293 527q106 0 154 -64v54h137v-536q0 -111 -71 -179q-70 -67 -190 -67q-115 0 -183 52.5t-83 146.5l145 5q5 -38 36 -59t80 -21q57 0 89 29t32 82v74q-51 -55 -146 -55q-109 0 -180 74q-69 73 -69 195t69 195
q71 74 180 74zM317 402q-57 0 -91 -38.5t-34 -105.5t34 -105.5t91 -38.5q55 0 88.5 36t33.5 96v24q0 60 -33.5 96t-88.5 36z" />
    <glyph glyph-name="Gbreve" unicode="&#x11e;" horiz-adv-x="834" 
d="M422 796q-86 0 -135.5 42.5t-49.5 122.5h118q0 -30 18.5 -47t48.5 -17q31 0 49.5 17t18.5 47h118q0 -80 -50 -122.5t-136 -42.5zM428 408h357v-50q0 -168 -97 -268q-96 -101 -259 -101q-167 0 -274 104q-106 103 -106 281t106 281q107 104 273 104q131 0 226 -68
q94 -67 124 -189l-160 -27q-16 69 -66 108t-125 39q-104 0 -162.5 -63.5t-58.5 -184.5t58.5 -184.5t162.5 -63.5q155 0 189 146h-188v136z" />
    <glyph glyph-name="gbreve" unicode="&#x11f;" horiz-adv-x="648" 
d="M385 758h118q0 -80 -50 -122.5t-136 -42.5t-135.5 42.5t-49.5 122.5h118q0 -30 18.5 -47.5t48.5 -17.5q31 0 49.5 17.5t18.5 47.5zM293 527q106 0 154 -64v54h137v-536q0 -111 -71 -179q-70 -67 -190 -67q-115 0 -183 52.5t-83 146.5l145 5q5 -38 36 -59t80 -21
q57 0 89 29t32 82v74q-51 -55 -146 -55q-109 0 -180 74q-69 73 -69 195t69 195q71 74 180 74zM317 402q-57 0 -91 -38.5t-34 -105.5t34 -105.5t91 -38.5q55 0 88.5 36t33.5 96v24q0 60 -33.5 96t-88.5 36z" />
    <glyph glyph-name="Gdotaccent" unicode="&#x120;" horiz-adv-x="834" 
d="M422 798q-36 0 -61.5 25t-25.5 62t25.5 62.5t61.5 25.5q37 0 62.5 -25.5t25.5 -62.5t-25.5 -62t-62.5 -25zM428 408h357v-50q0 -168 -97 -268q-96 -101 -259 -101q-167 0 -274 104q-106 103 -106 281t106 281q107 104 273 104q131 0 226 -68q94 -67 124 -189l-160 -27
q-16 69 -66 108t-125 39q-104 0 -162.5 -63.5t-58.5 -184.5t58.5 -184.5t162.5 -63.5q155 0 189 146h-188v136z" />
    <glyph glyph-name="gdotaccent" unicode="&#x121;" horiz-adv-x="648" 
d="M318 770q37 0 62.5 -26t25.5 -62q0 -37 -25.5 -62.5t-62.5 -25.5q-36 0 -61.5 25.5t-25.5 62.5q0 36 26 62t61 26zM293 527q106 0 154 -64v54h137v-536q0 -111 -71 -179q-70 -67 -190 -67q-115 0 -183 52.5t-83 146.5l145 5q5 -38 36 -59t80 -21q57 0 89 29t32 82v74
q-51 -55 -146 -55q-109 0 -180 74q-69 73 -69 195t69 195q71 74 180 74zM317 402q-57 0 -91 -38.5t-34 -105.5t34 -105.5t91 -38.5q55 0 88.5 36t33.5 96v24q0 60 -33.5 96t-88.5 36z" />
    <glyph glyph-name="Gcommaaccent" unicode="&#x122;" horiz-adv-x="834" 
d="M428 408h357v-50q0 -168 -97 -268q-96 -101 -259 -101q-167 0 -274 104q-106 103 -106 281t106 281q107 104 273 104q131 0 226 -68q94 -67 124 -189l-160 -27q-16 69 -66 108t-125 39q-104 0 -162.5 -63.5t-58.5 -184.5t58.5 -184.5t162.5 -63.5q155 0 189 146h-188v136
zM424 -48q38 0 60 -26.5t22 -71.5q0 -151 -153 -229v61q52 33 67 90q-35 2 -58.5 27t-23.5 60q0 37 25 63t61 26z" />
    <glyph glyph-name="gcommaaccent" unicode="&#x123;" horiz-adv-x="648" 
d="M327 724q-35 2 -58.5 27t-23.5 60q0 37 25 63t61 26q38 0 60 -26.5t22 -71.5q0 -151 -153 -229v61q52 33 67 90zM447 517h137v-536q0 -111 -71 -179q-70 -67 -190 -67q-115 0 -183 52.5t-83 146.5l145 5q5 -38 36 -59t80 -21q57 0 89 29t32 82v74q-51 -55 -146 -55
q-109 0 -180 74q-69 73 -69 195t69 195q71 74 180 74q106 0 154 -64v54zM439 246v24q0 60 -33.5 96t-88.5 36q-57 0 -91 -38.5t-34 -105.5t34 -105.5t91 -38.5q55 0 88.5 36t33.5 96z" />
    <glyph glyph-name="Hcircumflex" unicode="&#x124;" horiz-adv-x="762" 
d="M453 955l116 -160h-123l-64 75l-65 -75h-122l117 160h141zM687 748v-748h-154v315h-303v-315h-155v748h155v-296h303v296h154z" />
    <glyph glyph-name="hcircumflex" unicode="&#x125;" horiz-adv-x="616" 
d="M218 961l116 -160h-122l-64 76l-65 -76h-122l116 160h141zM72 777h146v-304q42 54 131 54q92 0 147 -56.5t55 -154.5v-316h-146v288q0 48 -24.5 75.5t-66.5 27.5q-43 0 -69.5 -28.5t-26.5 -75.5v-287h-146v777z" />
    <glyph glyph-name="Hbar" unicode="&#x126;" horiz-adv-x="779" 
d="M770 656v-117h-75v-539h-154v315h-303v-315h-154v539h-75v117h75v92h154v-92h303v92h154v-92h75zM541 452v87h-303v-87h303z" />
    <glyph glyph-name="hbar" unicode="&#x127;" horiz-adv-x="616" 
d="M349 527q92 0 147 -56.5t55 -154.5v-316h-146v288q0 48 -24.5 75.5t-66.5 27.5q-43 0 -69.5 -28.5t-26.5 -75.5v-287h-146v596h-69v112h69v69h146v-69h85v-112h-85v-123q42 54 131 54z" />
    <glyph glyph-name="Itilde" unicode="&#x128;" horiz-adv-x="305" 
d="M82 959q35 0 74 -27q41 -26 59 -26q41 0 42 46h82q5 -63 -25 -109t-83 -46q-34 0 -75 26q-39 27 -57 27q-42 0 -42 -46h-82q-5 63 25 109q28 46 82 46zM230 748v-748h-155v748h155z" />
    <glyph glyph-name="itilde" unicode="&#x129;" horiz-adv-x="291" 
d="M73 761q35 0 74 -27q41 -27 59 -27q40 0 42 47h82q5 -64 -25 -110t-83 -46q-34 0 -75 26q-39 27 -57 27q-42 0 -42 -46h-82q-5 63 25 109q29 47 82 47zM218 517v-517h-146v517h146z" />
    <glyph glyph-name="Imacron" unicode="&#x12a;" horiz-adv-x="305" 
d="M307 926v-111h-300v111h300zM230 748v-748h-155v748h155z" />
    <glyph glyph-name="imacron" unicode="&#x12b;" horiz-adv-x="291" 
d="M298 731v-112h-300v112h300zM218 517v-517h-146v517h146z" />
    <glyph glyph-name="Ibreve" unicode="&#x12c;" horiz-adv-x="305" 
d="M224 961h118q0 -80 -50 -122.5t-136 -42.5t-135.5 42.5t-49.5 122.5h118q0 -30 18.5 -47t48.5 -17q31 0 49.5 17t18.5 47zM230 748v-748h-155v748h155z" />
    <glyph glyph-name="ibreve" unicode="&#x12d;" horiz-adv-x="291" 
d="M216 758h118q0 -80 -50 -122.5t-136 -42.5t-135.5 42.5t-49.5 122.5h118q0 -30 18.5 -47.5t48.5 -17.5q31 0 49.5 17.5t18.5 47.5zM218 517v-517h-146v517h146z" />
    <glyph glyph-name="Iogonek" unicode="&#x12e;" horiz-adv-x="305" 
d="M230 748v-748h-63q-39 -22 -55 -39t-16 -39q0 -36 41 -36q27 0 50 12l13 -71q-39 -18 -87 -18q-58 0 -92 24.5t-34 70.5q0 65 88 105v739h155z" />
    <glyph glyph-name="iogonek" unicode="&#x12f;" horiz-adv-x="291" 
d="M148 594q-36 0 -61.5 25.5t-25.5 62.5q0 36 26 62t61 26q37 0 62.5 -26t25.5 -62q0 -37 -25.5 -62.5t-62.5 -25.5zM72 1v516h146v-517h-38q-39 -22 -55 -39t-16 -39q0 -36 41 -36q28 0 50 12l13 -71q-39 -18 -87 -18q-58 0 -92 24.5t-34 70.5q0 61 72 97z" />
    <glyph glyph-name="Idot" unicode="&#x130;" horiz-adv-x="305" 
d="M157 973q37 0 62.5 -25.5t25.5 -62.5t-25.5 -62t-62.5 -25q-36 0 -61.5 25t-25.5 62t26 62.5t61 25.5zM230 748v-748h-155v748h155z" />
    <glyph glyph-name="dotlessi" unicode="&#x131;" horiz-adv-x="291" 
d="M218 517v-517h-146v517h146z" />
    <glyph glyph-name="Jcircumflex" unicode="&#x134;" horiz-adv-x="614" 
d="M546 955l116 -160h-123l-64 75l-65 -75h-122l117 160h141zM390 748h154v-481q0 -131 -70 -204.5t-193 -73.5q-117 0 -186.5 66.5t-76.5 185.5l155 25q4 -67 32 -103.5t77 -36.5q108 0 108 136v486z" />
    <glyph glyph-name="jcircumflex" unicode="&#x135;" horiz-adv-x="291" 
d="M214 776l117 -177h-122l-65 82l-65 -82h-122l116 177h141zM73 517h146v-568q0 -105 -52.5 -159.5t-144.5 -54.5q-76 0 -128 34l58 119q29 -24 55 -24q66 0 66 77v576z" />
    <glyph glyph-name="Kcommaaccent" unicode="&#x136;" horiz-adv-x="721" 
d="M425 442l287 -442h-182l-208 318l-92 -111v-207h-155v748h155v-309l254 309h198zM369 -43q38 0 60 -26.5t22 -71.5q0 -151 -153 -229v61q52 33 67 90q-35 2 -58.5 27t-23.5 60q0 37 25 63t61 26z" />
    <glyph glyph-name="kcommaaccent" unicode="&#x137;" horiz-adv-x="582" 
d="M367 296l209 -296h-177l-135 187l-46 -50v-137h-146v777h146v-444l167 184h177zM302 -43q38 0 60 -26.5t22 -71.5q0 -151 -153 -229v61q52 33 67 90q-35 2 -58.5 27t-23.5 60q0 37 25 63t61 26z" />
    <glyph glyph-name="Lacute" unicode="&#x139;" horiz-adv-x="591" 
d="M418 949l-194 -154h-133l128 154h199zM230 748v-611h326v-137h-481v748h155z" />
    <glyph glyph-name="lacute" unicode="&#x13a;" horiz-adv-x="291" 
d="M411 966l-194 -154h-133l128 154h199zM218 777v-777h-146v777h146z" />
    <glyph glyph-name="Lcommaaccent" unicode="&#x13b;" horiz-adv-x="591" 
d="M230 137h326v-137h-481v748h155v-611zM324 -43q38 0 60 -26.5t22 -71.5q0 -151 -153 -229v61q52 33 67 90q-35 2 -58.5 27t-23.5 60q0 37 25 63t61 26z" />
    <glyph glyph-name="lcommaaccent" unicode="&#x13c;" horiz-adv-x="291" 
d="M218 777v-777h-146v777h146zM146 -43q38 0 60 -26.5t22 -71.5q0 -151 -153 -229v61q52 33 67 90q-35 2 -58.5 27t-23.5 60q0 37 25 63t61 26z" />
    <glyph glyph-name="Lcaron" unicode="&#x13d;" horiz-adv-x="591" 
d="M513 600q-35 2 -58.5 27t-23.5 60q0 37 25 63t61 26q38 0 60 -26.5t22 -71.5q0 -151 -153 -229v61q52 33 67 90zM230 748v-611h326v-137h-481v748h155z" />
    <glyph glyph-name="lcaron" unicode="&#x13e;" horiz-adv-x="451" 
d="M72 0v777h146v-777h-146zM359 776q38 0 60 -26.5t22 -71.5q0 -151 -153 -229v61q52 33 67 90q-35 2 -58.5 27t-23.5 60q0 37 25 63t61 26z" />
    <glyph glyph-name="Ldot" unicode="&#x13f;" horiz-adv-x="591" 
d="M230 748v-611h326v-137h-481v748h155zM397 476q26 26 63 26t63 -26t26 -63t-26 -63q-26 -25 -63 -25t-63 25q-25 26 -25 63t25 63z" />
    <glyph glyph-name="ldot" unicode="&#x140;" horiz-adv-x="469" 
d="M218 777v-777h-146v777h146zM294 386q26 26 63 26t63 -26t26 -63t-26 -63q-26 -25 -63 -25t-63 25q-25 26 -25 63t25 63z" />
    <glyph glyph-name="Lslash" unicode="&#x141;" horiz-adv-x="601" 
d="M241 137h326v-137h-481v274l-74 -14l-17 117l91 17v354h155v-324l87 17l17 -116l-104 -20v-168z" />
    <glyph glyph-name="lslash" unicode="&#x142;" horiz-adv-x="315" 
d="M334 289l-102 -27v-262h-145v223l-79 -21l-26 115l105 28v432h145v-393l75 20z" />
    <glyph glyph-name="Nacute" unicode="&#x143;" horiz-adv-x="764" 
d="M634 949l-194 -154h-133l128 154h199zM689 748v-748h-131l-328 463v-463h-155v748h131l329 -464v464h154z" />
    <glyph glyph-name="nacute" unicode="&#x144;" horiz-adv-x="618" 
d="M510 789l-135 -191h-114l85 191h164zM349 527q92 0 147 -56.5t55 -154.5v-316h-146v288q0 48 -24.5 75.5t-66.5 27.5q-43 0 -69.5 -28.5t-26.5 -75.5v-287h-146v517h138v-53q41 63 139 63z" />
    <glyph glyph-name="Ncommaaccent" unicode="&#x145;" horiz-adv-x="764" 
d="M535 748h154v-748h-131l-328 463v-463h-155v748h131l329 -464v464zM396 -43q38 0 60 -26.5t22 -71.5q0 -151 -153 -229v61q52 33 67 90q-35 2 -58.5 27t-23.5 60q0 37 25 63t61 26z" />
    <glyph glyph-name="ncommaaccent" unicode="&#x146;" horiz-adv-x="618" 
d="M349 527q92 0 147 -56.5t55 -154.5v-316h-146v288q0 48 -24.5 75.5t-66.5 27.5q-43 0 -69.5 -28.5t-26.5 -75.5v-287h-146v517h138v-53q41 63 139 63zM313 -43q38 0 60 -26.5t22 -71.5q0 -151 -153 -229v61q52 33 67 90q-35 2 -58.5 27t-23.5 60q0 37 25 63t61 26z" />
    <glyph glyph-name="Ncaron" unicode="&#x147;" horiz-adv-x="764" 
d="M562 955l-116 -160h-141l-117 160h122l65 -75l64 75h123zM689 748v-748h-131l-328 463v-463h-155v748h131l329 -464v464h154z" />
    <glyph glyph-name="ncaron" unicode="&#x148;" horiz-adv-x="618" 
d="M508 773l-117 -176h-141l-116 176h122l65 -82l65 82h122zM349 527q92 0 147 -56.5t55 -154.5v-316h-146v288q0 48 -24.5 75.5t-66.5 27.5q-43 0 -69.5 -28.5t-26.5 -75.5v-287h-146v517h138v-53q41 63 139 63z" />
    <glyph glyph-name="Eng" unicode="&#x14a;" horiz-adv-x="764" 
d="M535 748h154v-769q0 -102 -72 -168q-71 -66 -192 -66v136q53 0 81.5 35t28.5 101v15l-305 431v-463h-155v748h131l329 -464v464z" />
    <glyph glyph-name="eng" unicode="&#x14b;" horiz-adv-x="618" 
d="M349 527q92 0 147 -56.5t55 -154.5v-366q0 -98 -59.5 -155t-162.5 -57v127q33 0 54.5 23t21.5 59v341q0 48 -24.5 75.5t-66.5 27.5q-43 0 -69.5 -28.5t-26.5 -75.5v-287h-146v517h138v-53q41 63 139 63z" />
    <glyph glyph-name="Omacron" unicode="&#x14c;" horiz-adv-x="875" 
d="M584 926v-111h-300v111h300zM438 759q170 0 279 -106q109 -105 109 -279t-109 -280q-109 -105 -279 -105t-280 105q-109 106 -109 280t109 279q109 106 280 106zM438 622q-104 0 -168 -67q-64 -65 -64 -181q0 -114 64 -181t168 -67q103 0 166 67q64 67 64 181
q0 116 -64 181q-63 67 -166 67z" />
    <glyph glyph-name="omacron" unicode="&#x14d;" horiz-adv-x="638" 
d="M468 731v-112h-300v112h300zM594 258q0 -120 -78 -195q-77 -74 -197 -74q-119 0 -198 74q-77 75 -77 195q0 121 77 195q79 74 198 74q120 0 197 -74q78 -73 78 -195zM411 363q-35 39 -92 39t-92 -39q-35 -38 -35 -105t35 -105t92 -38t92 38t35 105t-35 105z" />
    <glyph glyph-name="Obreve" unicode="&#x14e;" horiz-adv-x="875" 
d="M502 961h118q0 -80 -50 -122.5t-136 -42.5t-135.5 42.5t-49.5 122.5h118q0 -30 18.5 -47t48.5 -17q31 0 49.5 17t18.5 47zM438 759q170 0 279 -106q109 -105 109 -279t-109 -280q-109 -105 -279 -105t-280 105q-109 106 -109 280t109 279q109 106 280 106zM438 622
q-104 0 -168 -67q-64 -65 -64 -181q0 -114 64 -181t168 -67q103 0 166 67q64 67 64 181q0 116 -64 181q-63 67 -166 67z" />
    <glyph glyph-name="obreve" unicode="&#x14f;" horiz-adv-x="638" 
d="M385 758h118q0 -80 -50 -122.5t-136 -42.5t-135.5 42.5t-49.5 122.5h118q0 -30 18.5 -47.5t48.5 -17.5q31 0 49.5 17.5t18.5 47.5zM594 258q0 -120 -78 -195q-77 -74 -197 -74q-119 0 -198 74q-77 75 -77 195q0 121 77 195q79 74 198 74q120 0 197 -74q78 -73 78 -195z
M411 363q-35 39 -92 39t-92 -39q-35 -38 -35 -105t35 -105t92 -38t92 38t35 105t-35 105z" />
    <glyph glyph-name="Ohungarumlaut" unicode="&#x150;" horiz-adv-x="875" 
d="M469 967l-86 -169h-113l61 169h138zM671 967l-86 -169h-113l61 169h138zM438 759q170 0 279 -106q109 -105 109 -279t-109 -280q-109 -105 -279 -105t-280 105q-109 106 -109 280t109 279q109 106 280 106zM438 622q-104 0 -168 -67q-64 -65 -64 -181q0 -114 64 -181
t168 -67q103 0 166 67q64 67 64 181q0 116 -64 181q-63 67 -166 67z" />
    <glyph glyph-name="ohungarumlaut" unicode="&#x151;" horiz-adv-x="638" 
d="M357 782l-86 -180h-114l62 180h138zM559 782l-86 -180h-114l62 180h138zM594 258q0 -120 -78 -195q-77 -74 -197 -74q-119 0 -198 74q-77 75 -77 195q0 121 77 195q79 74 198 74q120 0 197 -74q78 -73 78 -195zM411 363q-35 39 -92 39t-92 -39q-35 -38 -35 -105t35 -105
t92 -38t92 38t35 105t-35 105z" />
    <glyph glyph-name="OE" unicode="&#x152;" horiz-adv-x="1195" 
d="M823 137h326v-137h-480v56q-97 -67 -231 -67q-170 0 -280 105q-109 106 -109 280t109 279q109 106 280 106q134 0 231 -67v56h479v-136h-325v-162h282v-133h-282v-180zM438 126q103 0 166 67q64 67 64 181q0 116 -64 181q-63 67 -166 67q-104 0 -168 -67
q-64 -65 -64 -181q0 -114 64 -181t168 -67z" />
    <glyph glyph-name="oe" unicode="&#x153;" horiz-adv-x="1001" 
d="M956 270v-58h-355q2 -49 30.5 -77t77.5 -28q79 0 95 57l147 -7q-14 -75 -81 -121q-68 -47 -158 -47q-122 0 -195 75q-77 -75 -198 -75q-119 0 -198 74q-77 75 -77 195q0 121 77 195q79 74 198 74q121 0 198 -75q73 75 192 75q113 0 180 -69q67 -67 67 -188zM707 413
q-46 0 -74.5 -27.5t-31.5 -76.5h208q-2 49 -28.5 76.5t-73.5 27.5zM227 153q35 -38 92 -38t92 38t35 105t-35 105q-35 39 -92 39t-92 -39q-35 -38 -35 -105t35 -105z" />
    <glyph glyph-name="Racute" unicode="&#x154;" horiz-adv-x="707" 
d="M578 949l-194 -154h-133l128 154h199zM675 0h-174l-146 269h-125v-269h-155v748h320q110 0 175 -64q66 -63 66 -176q0 -156 -120 -214zM229 612v-206h147q46 0 74.5 27.5t28.5 74.5q0 49 -28 76.5t-75 27.5h-147z" />
    <glyph glyph-name="racute" unicode="&#x155;" horiz-adv-x="378" 
d="M413 789l-135 -191h-114l85 191h164zM355 522v-141q-63 0 -100 -32.5t-37 -86.5v-262h-146v517h141v-59q40 64 142 64z" />
    <glyph glyph-name="Rcommaaccent" unicode="&#x156;" horiz-adv-x="707" 
d="M516 294l159 -294h-174l-146 269h-125v-269h-155v748h320q110 0 175 -64q66 -63 66 -176q0 -156 -120 -214zM229 612v-206h147q46 0 74.5 27.5t28.5 74.5q0 49 -28 76.5t-75 27.5h-147zM360 -43q38 0 60 -26.5t22 -71.5q0 -151 -153 -229v61q52 33 67 90q-35 2 -58.5 27
t-23.5 60q0 37 25 63t61 26z" />
    <glyph glyph-name="rcommaaccent" unicode="&#x157;" horiz-adv-x="378" 
d="M72 517h141v-59q40 64 142 64v-141q-63 0 -100 -32.5t-37 -86.5v-262h-146v517zM146 -43q38 0 60 -26.5t22 -71.5q0 -151 -153 -229v61q52 33 67 90q-35 2 -58.5 27t-23.5 60q0 37 25 63t61 26z" />
    <glyph glyph-name="Rcaron" unicode="&#x158;" horiz-adv-x="707" 
d="M389 795h-141l-117 160h122l65 -75l64 75h123zM675 0h-174l-146 269h-125v-269h-155v748h320q110 0 175 -64q66 -63 66 -176q0 -156 -120 -214zM229 612v-206h147q46 0 74.5 27.5t28.5 74.5q0 49 -28 76.5t-75 27.5h-147z" />
    <glyph glyph-name="rcaron" unicode="&#x159;" horiz-adv-x="378" 
d="M411 773l-117 -176h-141l-116 176h122l65 -82l65 82h122zM355 522v-141q-63 0 -100 -32.5t-37 -86.5v-262h-146v517h141v-59q40 64 142 64z" />
    <glyph glyph-name="Sacute" unicode="&#x15a;" horiz-adv-x="663" 
d="M590 949l-194 -154h-133l128 154h199zM328 759q122 0 198 -62q76 -61 79 -168l-158 -8q-1 48 -32 76t-84 28q-52 0 -81.5 -24.5t-29.5 -65.5q0 -40 31 -59q33 -19 115 -38q129 -33 191 -80q63 -47 63 -140q0 -112 -78 -171q-76 -58 -197 -58q-133 0 -216 63t-84 177
l157 8q2 -51 42 -82.5t101 -31.5q118 0 118 86q0 38 -33.5 59.5t-120.5 43.5q-63 16 -97 28t-76 38q-74 48 -74 152q0 98 69 163q69 66 197 66z" />
    <glyph glyph-name="sacute" unicode="&#x15b;" horiz-adv-x="506" 
d="M435 789l-135 -191h-114l85 191h164zM249 527q93 0 147.5 -45t61.5 -122l-145 -8q-3 63 -66 63q-59 0 -59 -44q0 -23 22 -33q12 -6 79 -24q94 -25 135 -57.5t41 -95.5q0 -80 -56 -126t-156 -46q-99 0 -155.5 43.5t-64.5 124.5l146 8q3 -64 75 -64q30 0 47.5 12.5
t17.5 34.5q0 23 -18 33.5t-76 25.5q-69 17 -112 36q-36 19 -52 46t-19 75q0 75 55.5 119t151.5 44z" />
    <glyph glyph-name="Scircumflex" unicode="&#x15c;" horiz-adv-x="663" 
d="M401 955l116 -160h-123l-64 75l-65 -75h-122l117 160h141zM328 759q122 0 198 -62q76 -61 79 -168l-158 -8q-1 48 -32 76t-84 28q-52 0 -81.5 -24.5t-29.5 -65.5q0 -40 31 -59q33 -19 115 -38q129 -33 191 -80q63 -47 63 -140q0 -112 -78 -171q-76 -58 -197 -58
q-133 0 -216 63t-84 177l157 8q2 -51 42 -82.5t101 -31.5q118 0 118 86q0 38 -33.5 59.5t-120.5 43.5q-63 16 -97 28t-76 38q-74 48 -74 152q0 98 69 163q69 66 197 66z" />
    <glyph glyph-name="scircumflex" unicode="&#x15d;" horiz-adv-x="506" 
d="M315 776l117 -177h-122l-65 82l-65 -82h-122l116 177h141zM249 527q93 0 147.5 -45t61.5 -122l-145 -8q-3 63 -66 63q-59 0 -59 -44q0 -23 22 -33q12 -6 79 -24q94 -25 135 -57.5t41 -95.5q0 -80 -56 -126t-156 -46q-99 0 -155.5 43.5t-64.5 124.5l146 8q3 -64 75 -64
q30 0 47.5 12.5t17.5 34.5q0 23 -18 33.5t-76 25.5q-69 17 -112 36q-36 19 -52 46t-19 75q0 75 55.5 119t151.5 44z" />
    <glyph glyph-name="Scedilla" unicode="&#x15e;" horiz-adv-x="663" 
d="M620 218q0 -107 -70 -165q-69 -57 -179 -63l-9 -36q48 -3 80 -31.5t32 -72.5q0 -50 -40 -78.5t-100 -28.5q-62 0 -99 19l23 77q23 -14 55 -14q52 0 52 35q0 37 -55 37q-18 0 -36 -5l32 99q-119 9 -189.5 71.5t-71.5 166.5l157 8q2 -51 42 -82.5t101 -31.5q118 0 118 86
q0 38 -33.5 59.5t-120.5 43.5q-63 16 -97 28t-76 38q-74 48 -74 152q0 98 69 163q69 66 197 66q122 0 198 -62q76 -61 79 -168l-158 -8q-1 48 -32 76t-84 28q-52 0 -81.5 -24.5t-29.5 -65.5q0 -40 31 -59q33 -19 115 -38q129 -33 191 -80q63 -47 63 -140z" />
    <glyph glyph-name="scedilla" unicode="&#x15f;" horiz-adv-x="506" 
d="M465 161q0 -73 -48.5 -118.5t-134.5 -52.5l-9 -36q48 -3 80 -31.5t32 -72.5q0 -50 -40 -78.5t-100 -28.5q-62 0 -99 19l23 77q23 -14 55 -14q52 0 52 35q0 37 -55 37q-18 0 -36 -5l32 99q-82 7 -129 49.5t-55 116.5l146 8q3 -64 75 -64q30 0 47.5 12.5t17.5 34.5
q0 23 -18 33.5t-76 25.5q-69 17 -112 36q-36 19 -52 46t-19 75q0 75 55.5 119t151.5 44q93 0 147.5 -45t61.5 -122l-145 -8q-3 63 -66 63q-59 0 -59 -44q0 -23 22 -33q12 -6 79 -24q94 -25 135 -57.5t41 -95.5z" />
    <glyph glyph-name="Scaron" unicode="&#x160;" horiz-adv-x="663" 
d="M517 955l-116 -160h-141l-117 160h122l65 -75l64 75h123zM328 759q122 0 198 -62q76 -61 79 -168l-158 -8q-1 48 -32 76t-84 28q-52 0 -81.5 -24.5t-29.5 -65.5q0 -40 31 -59q33 -19 115 -38q129 -33 191 -80q63 -47 63 -140q0 -112 -78 -171q-76 -58 -197 -58
q-133 0 -216 63t-84 177l157 8q2 -51 42 -82.5t101 -31.5q118 0 118 86q0 38 -33.5 59.5t-120.5 43.5q-63 16 -97 28t-76 38q-74 48 -74 152q0 98 69 163q69 66 197 66z" />
    <glyph glyph-name="scaron" unicode="&#x161;" horiz-adv-x="506" 
d="M432 773l-117 -176h-141l-116 176h122l65 -82l65 82h122zM249 527q93 0 147.5 -45t61.5 -122l-145 -8q-3 63 -66 63q-59 0 -59 -44q0 -23 22 -33q12 -6 79 -24q94 -25 135 -57.5t41 -95.5q0 -80 -56 -126t-156 -46q-99 0 -155.5 43.5t-64.5 124.5l146 8q3 -64 75 -64
q30 0 47.5 12.5t17.5 34.5q0 23 -18 33.5t-76 25.5q-69 17 -112 36q-36 19 -52 46t-19 75q0 75 55.5 119t151.5 44z" />
    <glyph glyph-name="Tcaron" unicode="&#x164;" horiz-adv-x="693" 
d="M537 955l-116 -160h-141l-117 160h122l65 -75l64 75h123zM674 748v-136h-250v-612h-154v612h-251v136h655z" />
    <glyph glyph-name="tcaron" unicode="&#x165;" horiz-adv-x="585" 
d="M491 776q38 0 60 -26.5t22 -71.5q0 -151 -153 -229v61q52 33 67 90q-35 2 -58.5 27t-23.5 60q0 37 25 63t61 26zM253 688l-1 -171h121v-126h-122l-1 -192q0 -38 21.5 -58t56.5 -20q13 0 45 5v-130q-42 -6 -81 -6q-90 0 -139.5 44.5t-48.5 129.5l1 227h-94v126h95l1 171
h146z" />
    <glyph glyph-name="Tbar" unicode="&#x166;" horiz-adv-x="693" 
d="M674 612h-250v-198h123v-118h-123v-296h-154v296h-124v118h124v198h-251v136h655v-136z" />
    <glyph glyph-name="tbar" unicode="&#x167;" horiz-adv-x="404" 
d="M373 391h-122v-76h122v-104h-123v-12q0 -38 21.5 -58t56.5 -20q13 0 45 5v-130q-42 -6 -81 -6q-90 0 -139.5 44.5t-48.5 129.5v47h-93v104h94v76h-94v126h95l1 171h146l-1 -171h121v-126z" />
    <glyph glyph-name="Utilde" unicode="&#x168;" horiz-adv-x="777" 
d="M313 959q35 0 74 -27q41 -26 59 -26q41 0 42 46h82q5 -63 -25 -109t-83 -46q-34 0 -75 26q-39 27 -57 27q-42 0 -42 -46h-82q-4 63 24 109q30 46 83 46zM553 748h154v-444q0 -150 -85 -232q-86 -83 -233 -83q-148 0 -234 83q-85 82 -85 232v444h154v-442q0 -88 42 -134
t123 -46q80 0 122 46t42 134v442z" />
    <glyph glyph-name="utilde" unicode="&#x169;" 
d="M226 761q35 0 74 -27q40 -27 59 -27q40 0 42 47h82q5 -64 -25 -110t-83 -46q-34 0 -75 26q-39 27 -57 27q-42 0 -42 -46h-82q-4 63 24 109q30 47 83 47zM530 517v-517h-138v52q-39 -63 -134 -63q-89 0 -140 54t-51 149v325h146v-294q0 -98 83 -98q41 0 64.5 27.5
t23.5 72.5v292h146z" />
    <glyph glyph-name="Umacron" unicode="&#x16a;" horiz-adv-x="777" 
d="M538 926v-111h-300v111h300zM553 748h154v-444q0 -150 -85 -232q-86 -83 -233 -83q-148 0 -234 83q-85 82 -85 232v444h154v-442q0 -88 42 -134t123 -46q80 0 122 46t42 134v442z" />
    <glyph glyph-name="umacron" unicode="&#x16b;" 
d="M452 731v-112h-300v112h300zM530 517v-517h-138v52q-39 -63 -134 -63q-89 0 -140 54t-51 149v325h146v-294q0 -98 83 -98q41 0 64.5 27.5t23.5 72.5v292h146z" />
    <glyph glyph-name="Ubreve" unicode="&#x16c;" horiz-adv-x="777" 
d="M456 961h118q0 -80 -50 -122.5t-136 -42.5t-135.5 42.5t-49.5 122.5h118q0 -30 18.5 -47t48.5 -17q31 0 49.5 17t18.5 47zM553 748h154v-444q0 -150 -85 -232q-86 -83 -233 -83q-148 0 -234 83q-85 82 -85 232v444h154v-442q0 -88 42 -134t123 -46q80 0 122 46t42 134
v442z" />
    <glyph glyph-name="ubreve" unicode="&#x16d;" 
d="M369 758h118q0 -80 -50 -122.5t-136 -42.5t-135.5 42.5t-49.5 122.5h118q0 -30 18.5 -47.5t48.5 -17.5q31 0 49.5 17.5t18.5 47.5zM530 517v-517h-138v52q-39 -63 -134 -63q-89 0 -140 54t-51 149v325h146v-294q0 -98 83 -98q41 0 64.5 27.5t23.5 72.5v292h146z" />
    <glyph glyph-name="Uring" unicode="&#x16e;" horiz-adv-x="777" 
d="M389 1008q48 0 80.5 -30.5t32.5 -77.5q0 -46 -33 -76.5t-80 -30.5q-49 0 -82.5 30.5t-33.5 76.5q0 47 33.5 77.5t82.5 30.5zM389 941q-19 0 -30.5 -11.5t-11.5 -29.5q0 -17 11.5 -28t30.5 -11q17 0 28 11t11 28q0 18 -11 29.5t-28 11.5zM553 748h154v-444
q0 -150 -85 -232q-86 -83 -233 -83q-148 0 -234 83q-85 82 -85 232v444h154v-442q0 -88 42 -134t123 -46q80 0 122 46t42 134v442z" />
    <glyph glyph-name="uring" unicode="&#x16f;" 
d="M209 788q38 35 93 35t93 -35t38 -87q0 -53 -38 -88q-37 -34 -93 -34t-93 34q-38 35 -38 88q0 52 38 87zM302 745q-28 3 -39.5 -20.5t0 -46.5t39.5 -20q27 -3 38.5 20t0 46.5t-38.5 20.5zM530 517v-517h-138v52q-39 -63 -134 -63q-89 0 -140 54t-51 149v325h146v-294
q0 -98 83 -98q41 0 64.5 27.5t23.5 72.5v292h146z" />
    <glyph glyph-name="Uhungarumlaut" unicode="&#x170;" horiz-adv-x="777" 
d="M423 967l-86 -169h-113l61 169h138zM625 967l-86 -169h-113l61 169h138zM553 748h154v-444q0 -150 -85 -232q-86 -83 -233 -83q-148 0 -234 83q-85 82 -85 232v444h154v-442q0 -88 42 -134t123 -46q80 0 122 46t42 134v442z" />
    <glyph glyph-name="uhungarumlaut" unicode="&#x171;" 
d="M341 782l-86 -180h-114l62 180h138zM543 782l-86 -180h-114l62 180h138zM530 517v-517h-138v52q-39 -63 -134 -63q-89 0 -140 54t-51 149v325h146v-294q0 -98 83 -98q41 0 64.5 27.5t23.5 72.5v292h146z" />
    <glyph glyph-name="Uogonek" unicode="&#x172;" horiz-adv-x="777" 
d="M553 748h154v-444q0 -123 -59 -202.5t-167 -103.5q-38 -21 -53.5 -37.5t-15.5 -38.5q0 -36 41 -36q28 0 50 12l13 -71q-39 -18 -87 -18q-58 0 -92 24.5t-34 70.5q0 51 53 86q-135 9 -210.5 91.5t-75.5 222.5v444h154v-442q0 -88 42 -134t123 -46q80 0 122 46t42 134v442z
" />
    <glyph glyph-name="uogonek" unicode="&#x173;" 
d="M519 -103l13 -71q-39 -18 -87 -18q-58 0 -92 24.5t-34 70.5q0 61 73 98v51q-39 -63 -134 -63q-89 0 -140 54t-51 149v325h146v-294q0 -98 83 -98q41 0 64.5 27.5t23.5 72.5v292h146v-517h-29q-41 -23 -57 -39.5t-16 -39.5q0 -36 41 -36q27 0 50 12z" />
    <glyph glyph-name="Wcircumflex" unicode="&#x174;" horiz-adv-x="1125" 
d="M634 955l116 -160h-123l-64 75l-65 -75h-122l117 160h141zM1113 748l-261 -748h-130l-159 474l-159 -474h-131l-261 748h168l160 -486l159 486h127l160 -486l159 486h168z" />
    <glyph glyph-name="wcircumflex" unicode="&#x175;" horiz-adv-x="846" 
d="M495 776l117 -177h-122l-65 82l-65 -82h-122l116 177h141zM842 517l-199 -517h-116l-104 274l-104 -274h-116l-198 517h160l101 -296l106 296h102l107 -296l101 296h160z" />
    <glyph glyph-name="Ycircumflex" unicode="&#x176;" horiz-adv-x="744" 
d="M443 955l116 -160h-123l-64 75l-65 -75h-122l117 160h141zM733 748l-283 -460v-288h-154v288l-284 460h179l181 -307l181 307h180z" />
    <glyph glyph-name="ycircumflex" unicode="&#x177;" horiz-adv-x="573" 
d="M357 776l117 -177h-122l-65 82l-65 -82h-122l116 177h141zM567 517l-331 -772h-159l132 301l-202 471h161l119 -308l118 308h162z" />
    <glyph glyph-name="Ydieresis" unicode="&#x178;" horiz-adv-x="744" 
d="M221 934q23 23 56 23t56 -23q24 -23 24 -56t-24 -56q-23 -23 -56 -23t-56 23t-23 56t23 56zM414 934q23 23 56 23t56 -23t23 -56t-23 -56t-56 -23t-56 23t-23 56t23 56zM733 748l-283 -460v-288h-154v288l-284 460h179l181 -307l181 307h180z" />
    <glyph glyph-name="Zacute" unicode="&#x179;" horiz-adv-x="626" 
d="M570 949l-194 -154h-133l128 154h199zM582 748v-117l-348 -494h358v-137h-555v117l346 495h-341v136h540z" />
    <glyph glyph-name="zacute" unicode="&#x17a;" horiz-adv-x="455" 
d="M420 789l-135 -191h-114l85 191h164zM414 517v-97l-211 -302h219v-118h-388v96l212 303h-208v118h376z" />
    <glyph glyph-name="Zdotaccent" unicode="&#x17b;" horiz-adv-x="626" 
d="M311 973q37 0 62.5 -25.5t25.5 -62.5t-25.5 -62t-62.5 -25q-36 0 -61.5 25t-25.5 62t26 62.5t61 25.5zM582 748v-117l-348 -494h358v-137h-555v117l346 495h-341v136h540z" />
    <glyph glyph-name="zdotaccent" unicode="&#x17c;" horiz-adv-x="455" 
d="M230 770q37 0 62.5 -26t25.5 -62q0 -37 -25.5 -62.5t-62.5 -25.5q-36 0 -61.5 25.5t-25.5 62.5q0 36 26 62t61 26zM414 517v-97l-211 -302h219v-118h-388v96l212 303h-208v118h376z" />
    <glyph glyph-name="Zcaron" unicode="&#x17d;" horiz-adv-x="626" 
d="M498 955l-116 -160h-141l-117 160h122l65 -75l64 75h123zM582 748v-117l-348 -494h358v-137h-555v117l346 495h-341v136h540z" />
    <glyph glyph-name="zcaron" unicode="&#x17e;" horiz-adv-x="455" 
d="M418 773l-117 -176h-141l-116 176h122l65 -82l65 82h122zM414 517v-97l-211 -302h219v-118h-388v96l212 303h-208v118h376z" />
    <glyph glyph-name="florin" unicode="&#x192;" horiz-adv-x="444" 
d="M365 786q88 0 147 -41l-58 -120q-30 32 -73 32q-61 0 -74 -66l-13 -74h125v-121h-147l-95 -538h-148l95 538h-95v121h117l17 98q15 85 67.5 128t134.5 43z" />
    <glyph glyph-name="Aringacute" unicode="&#x1fa;" horiz-adv-x="789" 
d="M404 772q-49 0 -82 30.5t-33 76.5q0 55 45 87l118 113h182l-168 -109q51 -30 51 -91q0 -46 -32.5 -76.5t-80.5 -30.5zM404 840q17 0 28.5 11t11.5 28q0 18 -11.5 29.5t-28.5 11.5q-19 0 -30 -11.5t-11 -29.5q0 -17 11.5 -28t29.5 -11zM459 748l322 -748h-170l-61 144
h-311l-62 -144h-169l321 748h130zM294 270h202l-101 239z" />
    <glyph glyph-name="aringacute" unicode="&#x1fb;" horiz-adv-x="557" 
d="M281 575q-49 0 -82 30.5t-33 77.5q0 51 39 82l124 117h182l-168 -108q52 -30 52 -91q0 -47 -33 -77.5t-81 -30.5zM281 643q25 0 35 20t0 40t-35 20q-26 0 -36 -20t0 -40t36 -20zM274 527q105 0 160 -53t55 -155v-319h-141v42q-51 -53 -132 -53t-126.5 39.5t-45.5 113.5
q0 148 207 157l92 5v20q0 80 -67 80q-34 0 -53 -19.5t-19 -48.5l-146 6q0 72 60 128q62 57 156 57zM343 186v22l-78 -5q-75 -3 -75 -54q0 -47 60 -47q42 0 67.5 22.5t25.5 61.5z" />
    <glyph glyph-name="AEacute" unicode="&#x1fc;" horiz-adv-x="1053" 
d="M935 949l-194 -154h-133l128 154h199zM1006 612h-326v-162h282v-133h-282v-180h326v-137h-480v144h-236l-97 -144h-188l504 748h497v-136zM374 270h152v230z" />
    <glyph glyph-name="aeacute" unicode="&#x1fd;" horiz-adv-x="899" 
d="M623 789l-135 -191h-114l85 191h164zM855 270v-58h-355q2 -49 30.5 -77t77.5 -28q78 0 95 57l147 -7q-14 -75 -81 -121q-68 -47 -158 -47q-125 0 -198 78q-75 -78 -185 -78q-87 0 -135.5 40.5t-48.5 114.5q0 146 207 155l92 5v19q0 82 -68 82q-34 0 -52.5 -20t-18.5 -49
l-146 6q0 73 59 129t154 56q105 0 160 -61q68 61 177 61q112 0 180 -69q67 -67 67 -188zM606 413q-46 0 -74.5 -27.5t-31.5 -76.5h208q-2 49 -28.5 76.5t-73.5 27.5zM343 186v22l-78 -5q-75 -3 -75 -53q0 -46 60 -46q41 0 67 21t26 61z" />
    <glyph glyph-name="Oslashacute" unicode="&#x1fe;" horiz-adv-x="868" 
d="M694 949l-194 -154h-133l128 154h199zM684 799l95 -71l-59 -77q106 -107 106 -277q0 -174 -109 -280q-109 -105 -279 -105q-107 0 -192 43l-62 -81l-95 72l61 80q-101 104 -101 271q0 174 109 279q109 106 280 106q104 0 185 -40zM206 374q0 -86 39 -148l289 378
q-42 18 -96 18q-104 0 -168 -67q-64 -65 -64 -181zM438 126q103 0 166 67q64 67 64 181q0 92 -42 154l-292 -381q46 -21 104 -21z" />
    <glyph glyph-name="oslashacute" unicode="&#x1ff;" horiz-adv-x="638" 
d="M508 789l-135 -191h-114l85 191h164zM480 552l80 -60l-36 -47q70 -73 70 -187q0 -120 -78 -195q-77 -74 -197 -74q-67 0 -121 24l-44 -59l-80 59l42 56q-72 75 -72 189q0 121 77 195q79 74 198 74q67 0 124 -25zM192 258q0 -41 13 -71l157 208q-17 7 -43 7q-57 0 -92 -39
t-35 -105zM319 115q58 0 92.5 38.5t34.5 104.5q0 36 -11 67l-155 -205q22 -5 39 -5z" />
    <glyph glyph-name="Scommaaccent" unicode="&#x218;" horiz-adv-x="663" 
d="M366 438q129 -33 191 -80q63 -47 63 -140q0 -112 -78 -171q-76 -58 -197 -58q-133 0 -216 63t-84 177l157 8q2 -51 42 -82.5t101 -31.5q118 0 118 86q0 38 -33.5 59.5t-120.5 43.5q-63 16 -97 28t-76 38q-74 48 -74 152q0 98 69 163q69 66 197 66q122 0 198 -62
q76 -61 79 -168l-158 -8q-1 48 -32 76t-84 28q-52 0 -81.5 -24.5t-29.5 -65.5q0 -40 31 -59q33 -19 115 -38zM339 -48q38 0 60 -26.5t22 -71.5q0 -151 -153 -229v61q52 33 67 90q-35 2 -58.5 27t-23.5 60q0 37 25 63t61 26z" />
    <glyph glyph-name="scommaaccent" unicode="&#x219;" horiz-adv-x="506" 
d="M289 314q94 -25 135 -57.5t41 -95.5q0 -80 -56 -126t-156 -46q-99 0 -155.5 43.5t-64.5 124.5l146 8q3 -64 75 -64q30 0 47.5 12.5t17.5 34.5q0 23 -18 33.5t-76 25.5q-69 17 -112 36q-36 19 -52 46t-19 75q0 75 55.5 119t151.5 44q93 0 147.5 -45t61.5 -122l-145 -8
q-3 63 -66 63q-59 0 -59 -44q0 -23 22 -33q12 -6 79 -24zM250 -48q38 0 60 -26.5t22 -71.5q0 -151 -153 -229v61q52 33 67 90q-35 2 -58.5 27t-23.5 60q0 37 25 63t61 26z" />
    <glyph glyph-name="uni021A" unicode="&#x21a;" horiz-adv-x="693" 
d="M19 748h655v-136h-250v-612h-154v612h-251v136zM348 -43q38 0 60 -26.5t22 -71.5q0 -151 -153 -229v61q52 33 67 90q-35 2 -58.5 27t-23.5 60q0 37 25 63t61 26z" />
    <glyph glyph-name="uni021B" unicode="&#x21b;" horiz-adv-x="404" 
d="M373 391h-122l-1 -192q0 -38 21.5 -58t56.5 -20q13 0 45 5v-130q-42 -6 -81 -6q-90 0 -139.5 44.5t-48.5 129.5l1 227h-94v126h95l1 171h146l-1 -171h121v-126zM233 -51q38 0 60 -26.5t22 -71.5q0 -151 -153 -229v61q52 33 67 90q-35 2 -58.5 27t-23.5 60q0 37 25 63
t61 26z" />
    <glyph glyph-name="dotlessj" unicode="&#x237;" horiz-adv-x="291" 
d="M73 517h146v-568q0 -105 -52.5 -159.5t-144.5 -54.5q-76 0 -128 34l58 119q29 -24 55 -24q66 0 66 77v576z" />
    <glyph glyph-name="circumflex" unicode="&#x2c6;" horiz-adv-x="391" 
d="M266 776l117 -177h-122l-65 82l-65 -82h-122l116 177h141z" />
    <glyph glyph-name="caron" unicode="&#x2c7;" horiz-adv-x="391" 
d="M383 773l-117 -176h-141l-116 176h122l65 -82l65 82h122z" />
    <glyph glyph-name="breve" unicode="&#x2d8;" horiz-adv-x="391" 
d="M263 758h118q0 -80 -50 -122.5t-136 -42.5t-135.5 42.5t-49.5 122.5h118q0 -30 18.5 -47.5t48.5 -17.5q31 0 49.5 17.5t18.5 47.5z" />
    <glyph glyph-name="dotaccent" unicode="&#x2d9;" horiz-adv-x="195" 
d="M97 770q37 0 62.5 -26t25.5 -62q0 -37 -25.5 -62.5t-62.5 -25.5q-36 0 -61.5 25.5t-25.5 62.5q0 36 26 62t61 26z" />
    <glyph glyph-name="ring" unicode="&#x2da;" horiz-adv-x="281" 
d="M48 788q38 35 93 35t93 -35t38 -87q0 -53 -38 -88q-37 -34 -93 -34t-93 34q-38 35 -38 88q0 52 38 87zM141 745q-28 3 -39.5 -20.5t0 -46.5t39.5 -20q27 -3 38.5 20t0 46.5t-38.5 20.5z" />
    <glyph glyph-name="ogonek" unicode="&#x2db;" horiz-adv-x="235" 
d="M172 36l24 -32q-42 -23 -58.5 -40t-16.5 -40q0 -36 41 -36q28 0 50 12l13 -71q-39 -18 -87 -18q-58 0 -92 24.5t-34 70.5q0 47 39.5 77t120.5 53z" />
    <glyph glyph-name="tilde" unicode="&#x2dc;" horiz-adv-x="384" 
d="M117 761q35 0 74 -27q40 -27 59 -27q40 0 42 47h82q5 -64 -25 -110t-83 -46q-34 0 -75 26q-39 27 -57 27q-42 0 -42 -46h-82q-4 63 24 109q30 47 83 47z" />
    <glyph glyph-name="hungarumlaut" unicode="&#x2dd;" horiz-adv-x="420" 
d="M209 782l-86 -180h-114l62 180h138zM411 782l-86 -180h-114l62 180h138z" />
    <glyph glyph-name="uni0326" unicode="&#x326;" horiz-adv-x="0" 
d="M206 -140v-1v-1q-2 -148 -153 -228v61q53 35 66 90q-34 3 -57.5 28t-23.5 59q0 37 25 63t61 26q38 0 60 -27t22 -70z" />
    <glyph glyph-name="Omega" unicode="&#x3a9;" horiz-adv-x="798" 
d="M731 379q0 -81 -32 -154q-31 -70 -76 -113h154v-112h-308v103q57 37 98 114t41 157q0 106 -56 173q-55 67 -153 67t-153 -67q-56 -67 -56 -173q0 -81 40 -157q40 -77 99 -114v-103h-308v112h154q-43 42 -75 113q-32 73 -32 154q0 150 89 248q90 99 242 99t242 -99
q90 -97 90 -248z" />
    <glyph glyph-name="mu" unicode="&#x3bc;" horiz-adv-x="607" 
d="M389 517h146v-517h-138v52q-39 -63 -134 -63q-28 0 -45 4v-248h-146v772h146v-294q0 -98 83 -98q41 0 64.5 27.5t23.5 72.5v292z" />
    <glyph glyph-name="pi" unicode="&#x3c0;" horiz-adv-x="721" 
d="M585 531l112 -65q-39 -133 -162 -133h-8l-22 -181q-6 -39 24 -39q17 0 39 17l65 -85q-51 -54 -125 -54q-66 0 -96.5 40t-22.5 112l22 190h-94l-24 -194q-10 -77 -42 -139h-136l6 12q41 88 50 140l2 10l22 171h-17q-51 0 -88 -49l-67 100q39 39 79 59q38 19 105 19h254
q53 0 79 15.5t45 53.5z" />
    <glyph glyph-name="Wgrave" unicode="&#x1e80;" horiz-adv-x="1125" 
d="M496 949l128 -154h-133l-194 154h199zM1113 748l-261 -748h-130l-159 474l-159 -474h-131l-261 748h168l160 -486l159 486h127l160 -486l159 486h168z" />
    <glyph glyph-name="wgrave" unicode="&#x1e81;" horiz-adv-x="846" 
d="M394 789l83 -191h-113l-136 191h166zM842 517l-199 -517h-116l-104 274l-104 -274h-116l-198 517h160l101 -296l106 296h102l107 -296l101 296h160z" />
    <glyph glyph-name="Wacute" unicode="&#x1e82;" horiz-adv-x="1125" 
d="M823 949l-194 -154h-133l128 154h199zM1113 748l-261 -748h-130l-159 474l-159 -474h-131l-261 748h168l160 -486l159 486h127l160 -486l159 486h168z" />
    <glyph glyph-name="wacute" unicode="&#x1e83;" horiz-adv-x="846" 
d="M614 789l-135 -191h-114l85 191h164zM842 517l-199 -517h-116l-104 274l-104 -274h-116l-198 517h160l101 -296l106 296h102l107 -296l101 296h160z" />
    <glyph glyph-name="Wdieresis" unicode="&#x1e84;" horiz-adv-x="1125" 
d="M411 934q23 23 56 23t56 -23q24 -23 24 -56t-24 -56q-23 -23 -56 -23t-56 23t-23 56t23 56zM604 934q23 23 56 23t56 -23t23 -56t-23 -56t-56 -23t-56 23t-23 56t23 56zM1113 748l-261 -748h-130l-159 474l-159 -474h-131l-261 748h168l160 -486l159 486h127l160 -486
l159 486h168z" />
    <glyph glyph-name="wdieresis" unicode="&#x1e85;" horiz-adv-x="846" 
d="M407 679q0 -33 -23.5 -56t-56.5 -23t-56 22.5t-23 56.5q0 32 23 55t56 23t56.5 -23t23.5 -55zM599 679q0 -34 -23 -56.5t-56 -22.5t-56 22.5t-23 56.5q0 32 23 55t56 23t56 -23t23 -55zM842 517l-199 -517h-116l-104 274l-104 -274h-116l-198 517h160l101 -296l106 296
h102l107 -296l101 296h160z" />
    <glyph glyph-name="Ygrave" unicode="&#x1ef2;" horiz-adv-x="744" 
d="M305 949l128 -154h-133l-194 154h199zM733 748l-283 -460v-288h-154v288l-284 460h179l181 -307l181 307h180z" />
    <glyph glyph-name="ygrave" unicode="&#x1ef3;" horiz-adv-x="573" 
d="M256 789l83 -191h-113l-136 191h166zM567 517l-331 -772h-159l132 301l-202 471h161l119 -308l118 308h162z" />
    <glyph glyph-name="endash" unicode="&#x2013;" horiz-adv-x="566" 
d="M521 330v-136h-476v136h476z" />
    <glyph glyph-name="emdash" unicode="&#x2014;" horiz-adv-x="798" 
d="M753 330v-136h-708v136h708z" />
    <glyph glyph-name="quoteleft" unicode="&#x2018;" horiz-adv-x="224" 
d="M123 625q34 -2 57.5 -27.5t23.5 -60.5q0 -37 -24.5 -62.5t-60.5 -25.5q-38 0 -60 26.5t-22 70.5v1v1q2 150 152 227v-60q-53 -35 -66 -90z" />
    <glyph glyph-name="quoteright" unicode="&#x2019;" horiz-adv-x="224" 
d="M106 775q38 0 60 -26.5t22 -70.5q0 -151 -153 -229v61q53 33 66 90q-34 2 -57.5 27t-23.5 60q0 37 24.5 62.5t61.5 25.5z" />
    <glyph glyph-name="quotesinglbase" unicode="&#x201a;" horiz-adv-x="224" 
d="M106 166q38 0 60 -26.5t22 -71.5q0 -151 -153 -229v61q53 33 66 90q-34 2 -57.5 27t-23.5 60q0 37 25 63t61 26z" />
    <glyph glyph-name="quotedblleft" unicode="&#x201c;" horiz-adv-x="433" 
d="M121 624q35 -2 58.5 -27t23.5 -60q0 -37 -25 -63t-61 -26q-38 0 -60 26.5t-22 71.5q0 151 153 229v-61q-52 -33 -67 -90zM330 624q35 -2 58.5 -27t23.5 -60q0 -37 -25 -63t-61 -26q-38 0 -60 26.5t-22 71.5q0 151 153 229v-61q-52 -33 -67 -90z" />
    <glyph glyph-name="quotedblright" unicode="&#x201d;" horiz-adv-x="433" 
d="M104 776q38 0 60 -26.5t22 -71.5q0 -151 -153 -229v61q52 33 67 90q-35 2 -58.5 27t-23.5 60q0 37 25 63t61 26zM313 776q38 0 60 -26.5t22 -71.5q0 -151 -153 -229v61q52 33 67 90q-35 2 -58.5 27t-23.5 60q0 37 25 63t61 26z" />
    <glyph glyph-name="quotedblbase" unicode="&#x201e;" horiz-adv-x="433" 
d="M106 166q38 0 60 -26.5t22 -71.5q0 -151 -153 -229v61q53 33 66 90q-34 2 -57.5 27t-23.5 60q0 37 25 63t61 26zM315 166q38 0 60 -26.5t22 -71.5q0 -151 -153 -229v61q52 33 66 90q-34 2 -57.5 27t-23.5 60q0 37 25 63t61 26z" />
    <glyph glyph-name="dagger" unicode="&#x2020;" horiz-adv-x="534" 
d="M340 748v-192h178v-131h-178v-492h-145v492h-178v131h178v192h145z" />
    <glyph glyph-name="daggerdbl" unicode="&#x2021;" horiz-adv-x="534" 
d="M340 748v-192h178v-131h-178v-169h178v-131h-178v-192h-145v192h-178v131h178v169h-178v131h178v192h145z" />
    <glyph glyph-name="bullet" unicode="&#x2022;" horiz-adv-x="349" 
d="M175 381q52 0 89 -37t37 -89q0 -53 -37 -90t-89 -37q-53 0 -90 37t-37 90t37 89q37 37 90 37z" />
    <glyph glyph-name="ellipsis" unicode="&#x2026;" horiz-adv-x="779" 
d="M63 140q26 26 63 26t63 -26t26 -63t-26 -63q-26 -25 -63 -25t-63 25q-25 26 -25 63t25 63zM318 140q26 26 63 26t63 -26t26 -63t-26 -63q-26 -25 -63 -25t-63 25q-25 26 -25 63t25 63zM573 140q26 26 63 26t63 -26t26 -63t-26 -63q-26 -25 -63 -25t-63 25q-25 26 -25 63
t25 63z" />
    <glyph glyph-name="perthousand" unicode="&#x2030;" horiz-adv-x="1290" 
d="M384 571q0 -83 -50 -136q-49 -52 -126 -52q-78 0 -127 52q-50 53 -50 136q0 84 50 136q49 52 127 52q77 0 126 -52q50 -52 50 -136zM763 748l-493 -748h-141l493 748h141zM138 571q0 -40 19 -63.5t51 -23.5q30 0 50 23q19 22 19 64q0 41 -19 63q-18 23 -50 23
q-33 0 -51.5 -22.5t-18.5 -63.5zM685 365q77 0 126 -51q50 -52 50 -136t-50 -137q-49 -52 -126 -52q-78 0 -127 52q-50 53 -50 137q0 85 49 135q49 52 128 52zM1083 365q77 0 126 -51q49 -50 49 -136q0 -85 -49 -137t-126 -52q-78 0 -127 52q-50 53 -50 137q0 85 49 135
q49 52 128 52zM615 178q0 -41 19 -64t51 -23t50.5 23t18.5 64q0 40 -18.5 63t-50.5 23t-51 -23t-19 -63zM1083 264q-32 0 -51 -23t-19 -63q0 -41 19 -64t51 -23q31 0 49.5 23t18.5 64q0 40 -18.5 63t-49.5 23z" />
    <glyph glyph-name="guilsinglleft" unicode="&#x2039;" horiz-adv-x="338" 
d="M217 490l104 -92l-131 -140l131 -140l-104 -92l-202 232z" />
    <glyph glyph-name="guilsinglright" unicode="&#x203a;" horiz-adv-x="338" 
d="M121 490l202 -232l-202 -232l-104 92l131 140l-131 140z" />
    <glyph glyph-name="fraction" unicode="&#x2044;" horiz-adv-x="222" 
d="M439 748l-507 -748h-148l506 748h149z" />
    <glyph glyph-name="Euro" unicode="&#x20ac;" horiz-adv-x="706" 
d="M609 180l64 -129q-52 -33 -102 -47.5t-118 -14.5q-115 0 -203 67t-121 188h-119l34 90h70q-1 9 -1 40q0 28 1 35h-104l34 90h84q31 124 121 192q91 68 206 68q117 0 205 -63l-48 -128q-62 54 -150 54q-61 0 -106 -31.5t-66 -91.5h295l-34 -90h-280q-1 -7 -1 -35
q0 -6 2 -40h249l-33 -90h-196q23 -57 67.5 -87.5t102.5 -30.5q82 0 147 54z" />
    <glyph glyph-name="trademark" unicode="&#x2122;" horiz-adv-x="894" 
d="M361 748v-103h-117v-256h-107v256h-116v103h340zM836 748v-359h-107v148l-81 -144h-48l-81 144v-148h-107v359h91l121 -217l121 217h91z" />
    <glyph glyph-name="estimated" unicode="&#x212e;" horiz-adv-x="604" 
d="M315 541q109 0 180 -69q71 -68 71 -193h-385v-177q0 -44 35 -61q35 -23 99 -23q69 0 126 33.5t94 93.5l26 -17q-91 -141 -246 -141q-120 0 -199 76q-78 76 -78 200q0 125 78 201q80 77 199 77zM315 509q-64 0 -101 -24q-33 -13 -33 -59v-116h254v116q0 29 -6.5 42
t-26.5 22q-32 19 -87 19z" />
    <glyph glyph-name="partialdiff" unicode="&#x2202;" horiz-adv-x="615" 
d="M283 759q289 0 289 -441q0 -158 -71 -243.5t-199 -85.5q-114 0 -188 70q-74 71 -74 185q0 110 70 174q70 66 183 66q69 0 124 -35q-11 173 -130 173q-80 0 -141 -61l-82 127q101 71 219 71zM308 126q49 0 79.5 32t30.5 84v9q-1 51 -31.5 82t-78.5 31t-79 -32.5t-31 -85.5
q0 -54 30 -87t80 -33z" />
    <glyph glyph-name="product" unicode="&#x220f;" horiz-adv-x="661" 
d="M642 748v-136h-95v-776h-132v776h-170v-776h-131v776h-96v136h624z" />
    <glyph glyph-name="summation" unicode="&#x2211;" horiz-adv-x="600" 
d="M559 748v-136h-335l178 -238l-178 -237h335v-137h-512v113l195 261l-195 261v113h512z" />
    <glyph glyph-name="minus" unicode="&#x2212;" horiz-adv-x="548" 
d="M517 439v-136h-486v136h486z" />
    <glyph glyph-name="radical" unicode="&#x221a;" horiz-adv-x="676" 
d="M537 693l119 -50l-306 -720l-154 320l-104 -65l-72 114l231 142l96 -213z" />
    <glyph glyph-name="infinity" unicode="&#x221e;" horiz-adv-x="777" 
d="M556 506q83 0 137 -59t54 -143q0 -86 -54 -145q-53 -59 -137 -59q-96 0 -171 89l-14 16l-13 -16q-41 -38 -76 -56t-79 -18q-77 0 -125 54t-48 134t48 134q49 55 125 55q83 0 154 -78l12 -14l11 12q45 50 84.5 72t91.5 22zM556 383q-48 0 -99 -63l-13 -18l14 -17
q55 -61 98 -61q30 0 49 23t19 57t-19 56.5t-49 22.5zM206 374q-42 3 -56 -43q-13 -43 9 -76q17 -25 47 -22q48 0 85 51l12 18l-12 15q-46 57 -85 57z" />
    <glyph glyph-name="integral" unicode="&#x222b;" horiz-adv-x="336" 
d="M241 759q53 0 107 -18l-24 -111q-30 11 -53 11q-39 0 -39 -49v-600q0 -163 -135 -163q-55 0 -108 18l24 110q27 -10 48 -10q45 0 45 49v601q0 79 34.5 120.5t100.5 41.5z" />
    <glyph glyph-name="approxequal" unicode="&#x2248;" horiz-adv-x="544" 
d="M468 587l66 -97q-72 -93 -161 -93q-42 0 -100 29q-56 29 -89 29q-64 0 -108 -53l-66 97q71 92 160 92q40 0 96 -29t92 -29q66 0 110 54zM468 341l66 -97q-71 -92 -161 -92q-44 0 -100 28q-56 29 -89 29q-64 0 -108 -53l-66 97q71 92 160 92q40 0 96 -29t92 -29
q66 0 110 54z" />
    <glyph glyph-name="notequal" unicode="&#x2260;" horiz-adv-x="548" 
d="M517 424h-165l-29 -108h194v-137h-230l-31 -119l-124 30l23 89h-124v137h160l28 108h-188v137h224l31 117l125 -29l-23 -88h129v-137z" />
    <glyph glyph-name="lessequal" unicode="&#x2264;" horiz-adv-x="538" 
d="M507 705v-149l-186 -84l186 -84v-150l-478 234zM507 193v-136h-478v136h478z" />
    <glyph glyph-name="greaterequal" unicode="&#x2265;" horiz-adv-x="538" 
d="M31 705l478 -233l-478 -234v150l187 84l-187 84v149zM509 193v-136h-478v136h478z" />
    <glyph glyph-name="lozenge" unicode="&#x25ca;" horiz-adv-x="558" 
d="M326 748l204 -402l-204 -401h-93l-205 401l205 402h93zM280 539l-100 -193l100 -194l99 194z" />
    <glyph glyph-name="fl" unicode="&#xfb02;" horiz-adv-x="670" 
d="M314 783q28 0 51 -3v-126q-24 2 -34 2q-38 0 -62.5 -22.5t-24.5 -59.5v-57h120v-126h-120v-391h-145v391h-94v126h94v53q0 97 58 155t157 58zM598 777v-777h-146v777h146z" />
    <glyph glyph-name="NULL" horiz-adv-x="0" 
 />
    <glyph glyph-name="CR" horiz-adv-x="333" 
 />
    <glyph glyph-name="n.001" horiz-adv-x="618" 
d="M350 527q92 0 146.5 -55t54.5 -151v-321h-146v288q0 48 -24.5 75.5t-66.5 27.5q-43 0 -69.5 -28.5t-26.5 -75.5v-287h-146v517h138v-56q16 29 53.5 47.5t86.5 18.5z" />
    <glyph glyph-name="germandbls.cap" horiz-adv-x="703" 
d="M338 756q175 0 278 -121l-105 -175q153 -62 153 -219q0 -114 -77 -182q-76 -67 -201 -67q-55 0 -101 10l30 136q24 -9 65 -9q55 0 90 32t35 85q0 64 -44 97.5t-140 52.5l107 189q-33 35 -96 35q-49 0 -79.5 -29t-30.5 -79v-512h-155v510q0 111 77 179q76 67 194 67z" />
    <glyph glyph-name="a.sups" horiz-adv-x="457" 
d="M225 757q181 0 181 -167v-257h-123v31q-37 -39 -111 -39q-66 0 -103.5 32t-37.5 89q0 118 180 128l65 4v21q0 24 -13.5 38.5t-37.5 14.5q-26 0 -41 -14.5t-15 -37.5l-127 4q0 59 50 106q52 47 133 47zM276 481v18l-55 -4q-58 -4 -58 -41q0 -35 43 -35q29 -1 49.5 16
t20.5 46z" />
    <glyph glyph-name="b.sups" horiz-adv-x="528" 
d="M55 955h130v-233q38 35 108 35q89 0 145 -60q56 -61 56 -157q0 -95 -56 -156q-56 -59 -145 -59q-77 0 -116 41v-33h-122v622zM272 645q-39 0 -63.5 -26t-24.5 -70v-17q0 -44 24.5 -70t63.5 -26q42 0 66.5 28t24.5 76t-25 76.5t-66 28.5z" />
    <glyph glyph-name="c.sups" horiz-adv-x="477" 
d="M249 757q79 0 133.5 -44t65.5 -118l-127 -11q-4 28 -23 44.5t-49 16.5q-39 0 -61 -27.5t-22 -77.5q0 -48 23 -76t60 -28q30 0 49 16t23 44l127 -11q-11 -74 -65.5 -117t-133.5 -43q-96 0 -155 58q-60 59 -60 157q0 100 60 158q61 59 155 59z" />
    <glyph glyph-name="d.sups" horiz-adv-x="528" 
d="M473 955v-622h-123v33q-38 -41 -116 -41q-89 0 -145 59q-55 59 -55 156q0 98 55 157q55 60 145 60q71 0 109 -35v233h130zM256 645q-42 0 -66 -27.5t-24 -77.5q0 -48 24.5 -76t65.5 -28q39 0 63 26t24 70v17q0 44 -24 70t-63 26z" />
    <glyph glyph-name="e.sups" horiz-adv-x="481" 
d="M447 549v-48h-275q5 -72 75 -72q53 0 65 41l131 -7q-11 -63 -65 -100q-55 -38 -128 -38q-99 0 -157 58q-59 59 -59 157q0 99 59 158t154 59q92 0 146 -55.5t54 -152.5zM246 655q-31 0 -50.5 -18.5t-22.5 -50.5h143q-4 69 -70 69z" />
    <glyph glyph-name="f.sups" horiz-adv-x="308" 
d="M258 960q24 0 43 -3v-112q-10 2 -28 2q-29 0 -47.5 -17t-18.5 -43v-39h94v-112h-94v-303h-130v303h-73v112h73v36q0 79 50 127.5t131 48.5z" />
    <glyph glyph-name="g.sups" horiz-adv-x="524" 
d="M234 757q78 0 116 -42v33h123v-428q0 -90 -58 -144t-155 -54q-95 0 -150 42.5t-67 119.5l130 5q2 -27 24 -42.5t58 -15.5q42 0 65 20.5t23 59.5v48q-37 -34 -109 -34q-89 0 -145 59q-55 59 -55 156q0 98 55 157q55 60 145 60zM256 645q-42 0 -66 -27.5t-24 -77.5
q0 -48 24.5 -76t65.5 -28q39 0 63 26t24 70v17q0 44 -24 70t-63 26z" />
    <glyph glyph-name="h.sups" horiz-adv-x="495" 
d="M55 955h130v-235q34 37 100 37q73 0 117 -44.5t44 -121.5v-258h-130v228q0 36 -17 55.5t-47 19.5q-31 0 -49 -20.5t-18 -55.5v-227h-130v622z" />
    <glyph glyph-name="i.sups" horiz-adv-x="239" 
d="M65 934q23 23 55 23t54 -23q22 -22 22 -54t-22 -54t-54 -22t-55 22q-22 22 -22 54t22 54zM185 748v-415h-130v415h130z" />
    <glyph glyph-name="j.sups" horiz-adv-x="239" 
d="M65 934q22 23 54 23t54 -23q23 -22 23 -54t-23 -54q-22 -22 -54 -22t-54 22t-22 54t22 54zM55 748h130v-449q0 -80 -49.5 -128t-130.5 -48q-25 0 -44 3v113q12 -3 29 -3q29 0 47 17t18 44v451z" />
    <glyph glyph-name="k.sups" horiz-adv-x="475" 
d="M185 955v-345l120 138h157l-152 -177l162 -238h-157l-96 142l-34 -39v-103h-130v622h130z" />
    <glyph glyph-name="l.sups" horiz-adv-x="239" 
d="M185 955v-622h-130v622h130z" />
    <glyph glyph-name="m.sups" horiz-adv-x="743" 
d="M534 757q73 0 115.5 -44t42.5 -122v-258h-130v228q0 75 -60 75q-30 0 -46.5 -20.5t-16.5 -55.5v-227h-130v228q0 75 -61 75q-30 0 -46.5 -20.5t-16.5 -55.5v-227h-130v415h122v-32q33 41 104 41q87 0 129 -60q44 60 124 60z" />
    <glyph glyph-name="n.sups" horiz-adv-x="497" 
d="M285 757q73 0 117 -44.5t44 -121.5v-258h-130v228q0 36 -17 55.5t-47 19.5q-31 0 -49 -20.5t-18 -55.5v-227h-130v415h122v-32q33 41 108 41z" />
    <glyph glyph-name="o.sups" horiz-adv-x="513" 
d="M256 757q98 0 160 -60q63 -60 63 -157q0 -98 -63 -156q-62 -59 -160 -59t-160 59t-62 156t62 157q63 60 160 60zM256 645q-41 0 -65.5 -28t-24.5 -77q0 -48 24.5 -76t65.5 -28q42 0 67 28t25 76q0 49 -25 77t-67 28z" />
    <glyph glyph-name="p.sups" horiz-adv-x="528" 
d="M293 757q89 0 145 -60q56 -61 56 -157q0 -95 -56 -156q-56 -59 -145 -59q-73 0 -108 34v-230h-130v619h122v-33q40 42 116 42zM272 645q-39 0 -63.5 -26t-24.5 -70v-17q0 -44 24.5 -70t63.5 -26q42 0 66.5 28t24.5 76t-25 76.5t-66 28.5z" />
    <glyph glyph-name="q.sups" horiz-adv-x="528" 
d="M234 757q78 0 116 -42v33h123v-619h-130v230q-35 -34 -109 -34q-89 0 -145 59q-55 59 -55 156q0 98 55 157q55 60 145 60zM256 645q-42 0 -66 -27.5t-24 -77.5q0 -48 24.5 -76t65.5 -28q39 0 63 26t24 70v17q0 44 -24 70t-63 26z" />
    <glyph glyph-name="r.sups" horiz-adv-x="306" 
d="M292 752v-125q-49 0 -78 -25t-29 -66v-203h-130v415h125v-37q35 41 112 41z" />
    <glyph glyph-name="s.sups" horiz-adv-x="406" 
d="M373 619l-130 -8q-1 46 -43 46q-40 0 -40 -29q0 -12 7 -17.5t32 -11.5t38 -10q75 -20 107.5 -46.5t32.5 -77.5q0 -66 -45.5 -103t-128.5 -37q-81 0 -127.5 36t-52.5 102l130 7q1 -46 50 -46q44 0 44 31q0 15 -12.5 21.5t-56.5 18.5q-82 20 -114 44q-34 25 -34 84
q0 62 45.5 98t124.5 36q77 0 122 -37t51 -101z" />
    <glyph glyph-name="t.sups" horiz-adv-x="327" 
d="M272 441q19 0 36 4v-116q-32 -4 -68 -4q-76 0 -117 36t-40 107l1 168h-76v112h76l1 136h130l-1 -136h93v-112h-94l-1 -140q0 -55 60 -55z" />
    <glyph glyph-name="u.sups" horiz-adv-x="485" 
d="M430 748v-415h-122v32q-34 -40 -104 -40q-73 0 -113 41t-40 117v265h130v-233q0 -69 57 -69q29 0 45.5 18t16.5 50v234h130z" />
    <glyph glyph-name="v.sups" horiz-adv-x="468" 
d="M464 748l-179 -415h-102l-180 415h142l89 -213l88 213h142z" />
    <glyph glyph-name="w.sups" horiz-adv-x="686" 
d="M683 748l-160 -415h-101l-79 224l-79 -224h-101l-160 415h142l77 -214l76 214h90l77 -214l76 214h142z" />
    <glyph glyph-name="x.sups" horiz-adv-x="451" 
d="M442 748l-126 -206l128 -209h-149l-70 118l-67 -118h-150l127 208l-126 207h148l68 -117l69 117h148z" />
    <glyph glyph-name="y.sups" horiz-adv-x="468" 
d="M463 748l-266 -619h-142l108 250l-158 369h142l87 -213l87 213h142z" />
    <glyph glyph-name="z.sups" horiz-adv-x="370" 
d="M336 748v-90l-159 -220h165v-105h-315v90l159 220h-155v105h305z" />
    <glyph glyph-name="zero.onum" horiz-adv-x="653" 
d="M611 296q0 -142 -79 -224q-78 -83 -206 -83t-206 83q-78 82 -78 224q0 140 78 222q78 83 206 83t206 -83q79 -82 79 -222zM327 465q-59 0 -92.5 -45t-33.5 -124q0 -80 33.5 -125t92.5 -45q57 0 91 45t34 125q0 78 -34 123.5t-91 45.5z" />
    <glyph glyph-name="one.onum" horiz-adv-x="393" 
d="M317 590v-590h-154v400l-99 -71l-64 122l204 139h113z" />
    <glyph glyph-name="two.onum" horiz-adv-x="542" 
d="M278 601q110 0 169.5 -55.5t59.5 -152.5q0 -113 -125 -203l-73 -53h202v-137h-462v118l207 144q54 37 75 63.5t21 64.5q0 74 -71 74q-37 0 -57.5 -25t-21.5 -71l-154 8q1 105 63 165t167 60z" />
    <glyph glyph-name="three.onum" horiz-adv-x="568" 
d="M281 601q109 0 171 -59q61 -58 61 -160t-82 -154q43 -16 69 -60t26 -104q0 -109 -67 -170q-67 -63 -177 -63q-115 0 -179.5 60.5t-67.5 167.5l154 9q4 -100 92 -100q43 0 66.5 26t23.5 73q0 45 -26.5 69.5t-72.5 24.5h-77v132h75q39 0 63.5 24t24.5 63q0 84 -77 84
q-78 0 -83 -93l-153 8q2 105 64 163.5t172 58.5z" />
    <glyph glyph-name="four.onum" horiz-adv-x="603" 
d="M469 590v-480h111v-137h-111v-131h-139v131h-303v127l320 490h122zM329 331l-145 -221h145v221z" />
    <glyph glyph-name="five.onum" horiz-adv-x="570" 
d="M300 317q101 0 166 -62q64 -61 64 -175q0 -113 -68 -181t-182 -68q-111 0 -175.5 58.5t-67.5 159.5l154 9q2 -43 25.5 -66.5t64.5 -23.5q44 0 69 29.5t25 78.5t-24 76.5t-66 27.5q-43 0 -80 -26h-143v436h439v-136h-285v-154q37 17 84 17z" />
    <glyph glyph-name="six.onum" horiz-adv-x="608" 
d="M340 748h185l-186 -259q101 -10 166 -78q64 -67 64 -171q0 -113 -74 -182q-73 -69 -189 -69t-191 69q-74 69 -74 182q0 82 55 161zM413 245q0 54 -29.5 85.5t-78.5 31.5q-58 0 -86 -40q-21 -28 -21 -77q0 -54 29.5 -86.5t77.5 -32.5t78 32.5t30 86.5z" />
    <glyph glyph-name="seven.onum" horiz-adv-x="541" 
d="M511 590v-124l-292 -624h-169l292 612h-323v136h492z" />
    <glyph glyph-name="eight.onum" horiz-adv-x="615" 
d="M549 548q0 -95 -72 -148q91 -61 91 -178q0 -107 -74 -170q-73 -63 -187 -63q-115 0 -188 63t-73 170q0 116 90 177q-71 53 -71 149q0 97 67 154q68 57 174 57t174 -57q69 -57 69 -154zM307 622q-39 0 -63.5 -23t-24.5 -62q0 -36 24.5 -59t63.5 -23t63.5 22t24.5 60
q0 39 -24 62t-64 23zM307 126q48 0 77.5 28t29.5 75t-29.5 74.5t-77.5 27.5t-77.5 -27.5t-29.5 -74.5t30 -75t77 -28z" />
    <glyph glyph-name="nine.onum" horiz-adv-x="608" 
d="M302 601q116 0 190 -69q75 -69 75 -182q0 -82 -55 -161l-244 -347h-185l186 259q-101 10 -166 78q-64 67 -64 171q0 113 74 182q73 69 189 69zM303 228q58 0 86 40q21 28 21 77q0 54 -29.5 86.5t-77.5 32.5t-78 -32.5t-30 -86.5t29.5 -85.5t78.5 -31.5z" />
    <glyph glyph-name="zero.slash" horiz-adv-x="652" 
d="M326 759q128 0 205 -101q78 -101 78 -284q0 -182 -78 -284q-77 -101 -205 -101q-129 0 -207 101q-77 103 -77 284q0 183 77 284q78 101 207 101zM326 622q-127 0 -127 -248q0 -75 10 -122l177 351q-25 19 -60 19zM326 126q126 0 126 248q0 68 -9 119l-176 -349
q25 -18 59 -18z" />
    <glyph glyph-name="zero.subs" horiz-adv-x="372" 
d="M187 338q73 0 117 -56.5t44 -155.5q0 -100 -44 -156.5t-117 -56.5q-74 0 -118.5 56.5t-44.5 156.5q0 99 44.5 155.5t118.5 56.5zM223 211q-10 27 -37 27q-26 0 -37 -27q-11 -28 -11 -85q0 -56 11 -86q11 -27 37 -27q27 0 37 27q11 30 11 86q0 57 -11 85z" />
    <glyph glyph-name="one.subs" horiz-adv-x="234" 
d="M202 331v-411h-112v264l-47 -31l-47 91l135 87h71z" />
    <glyph glyph-name="two.subs" horiz-adv-x="319" 
d="M156 338q68 0 103.5 -36t35.5 -97q0 -67 -63 -138l-43 -48h108v-99h-276v77l130 140q32 35 32 69q0 32 -24 32q-29 0 -29 -37l-110 6q1 60 38 95.5t98 35.5z" />
    <glyph glyph-name="three.subs" horiz-adv-x="329" 
d="M162 338q65 0 100 -33.5t35 -91.5q0 -53 -43 -81q48 -22 48 -87q0 -60 -39 -96t-102 -36q-66 0 -103 34.5t-38 94.5l113 8q1 -37 28 -37q29 0 29 35q0 36 -34 36h-45v90h43q15 0 24.5 9t9.5 24q0 31 -26 31q-27 0 -27 -33l-109 6q0 60 35 93.5t101 33.5z" />
    <glyph glyph-name="four.subs" horiz-adv-x="351" 
d="M290 331v-249h44v-99h-44v-63h-112v63h-164v87l168 261h108zM178 180l-66 -98h66v98z" />
    <glyph glyph-name="five.subs" horiz-adv-x="324" 
d="M175 188q59 0 94 -34.5t35 -98.5q0 -66 -39 -104t-105 -38q-63 0 -100.5 33.5t-38.5 88.5l111 7q3 -29 29 -29q31 0 31 39q0 36 -31 36q-14 0 -27 -10h-99v253h252v-99h-140v-47q12 3 28 3z" />
    <glyph glyph-name="six.subs" horiz-adv-x="352" 
d="M180 331h136l-98 -140q49 -11 79 -48t30 -88q0 -63 -42 -102.5t-108 -39.5t-109 39.5t-43 102.5q0 45 31 91zM214 59q0 43 -38 43q-19 0 -29 -13l-1 -1q-8 -14 -8 -29q0 -28 19 -40t38 0t19 40z" />
    <glyph glyph-name="seven.subs" horiz-adv-x="316" 
d="M293 331v-87l-140 -324h-123l135 312h-150v99h278z" />
    <glyph glyph-name="eight.subs" horiz-adv-x="354" 
d="M317 216q0 -44 -31 -75q43 -37 43 -94q0 -60 -42.5 -97t-109.5 -37t-109.5 37t-42.5 97q0 55 42 93q-31 32 -31 76q0 55 39 88.5t101 33.5t101.5 -33.5t39.5 -88.5zM141 202q0 -21 17.5 -30t35.5 0t18 30q0 23 -18 32t-35.5 0t-17.5 -32zM177 91q-24 3 -34.5 -18t0 -42
t34.5 -18q24 -3 34 18t0 42t-34 18z" />
    <glyph glyph-name="nine.subs" horiz-adv-x="352" 
d="M175 338q66 0 109 -39.5t43 -102.5q0 -44 -32 -91l-123 -185h-135l98 140q-50 11 -80 47.5t-30 88.5q0 63 42 102.5t108 39.5zM176 149q19 0 30 14q8 14 8 29q2 28 -18 40t-40.5 0.5t-18.5 -39.5q0 -44 39 -44z" />
    <glyph glyph-name="zero.sups" horiz-adv-x="372" 
d="M187 820q73 0 117 -56.5t44 -155.5q0 -100 -44 -156.5t-117 -56.5q-74 0 -118.5 56.5t-44.5 156.5q0 99 44.5 155.5t118.5 56.5zM138 608q0 -59 11 -86t37 -27t37 27t11 86q0 58 -11 85t-37 27t-37 -27t-11 -85z" />
    <glyph glyph-name="one.sups" horiz-adv-x="234" 
d="M202 813v-411h-112v264l-47 -31l-47 91l135 87h71z" />
    <glyph glyph-name="two.sups" horiz-adv-x="319" 
d="M156 820q68 0 103.5 -36t35.5 -97q0 -67 -63 -138l-43 -48h108v-99h-276v77l130 140q32 35 32 69q0 32 -24 32q-29 0 -29 -37l-110 6q1 60 38 95.5t98 35.5z" />
    <glyph glyph-name="three.sups" horiz-adv-x="329" 
d="M162 820q65 0 100 -33.5t35 -91.5q0 -53 -43 -81q48 -22 48 -87q0 -60 -39 -96t-102 -36q-66 0 -103 34.5t-38 94.5l113 8q1 -37 28 -37q29 0 29 35q0 36 -34 36h-45v90h43q15 0 24.5 9t9.5 24q0 31 -26 31q-27 0 -27 -33l-109 6q0 60 35 93.5t101 33.5z" />
    <glyph glyph-name="four.sups" horiz-adv-x="351" 
d="M290 813v-249h44v-99h-44v-63h-112v63h-164v87l168 261h108zM178 662l-66 -98h66v98z" />
    <glyph glyph-name="five.sups" horiz-adv-x="324" 
d="M175 670q59 0 94 -34.5t35 -98.5q0 -66 -39 -104t-105 -38q-63 0 -100.5 33.5t-38.5 88.5l111 7q3 -29 29 -29q31 0 31 39q0 36 -31 36q-14 0 -27 -10h-99v253h252v-99h-140v-47q12 3 28 3z" />
    <glyph glyph-name="six.sups" horiz-adv-x="352" 
d="M180 813h136l-98 -140q49 -11 79 -48t30 -88q0 -63 -42 -102.5t-108 -39.5t-109 39.5t-43 102.5q0 45 31 91zM214 541q0 43 -38 43q-19 0 -29 -13l-1 -1q-8 -14 -8 -29q0 -28 19 -40t38 0t19 40z" />
    <glyph glyph-name="seven.sups" horiz-adv-x="316" 
d="M293 813v-87l-140 -324h-123l135 312h-150v99h278z" />
    <glyph glyph-name="eight.sups" horiz-adv-x="354" 
d="M317 698q0 -44 -31 -75q43 -37 43 -94q0 -60 -42.5 -97t-109.5 -37t-109.5 37t-42.5 97q0 55 42 93q-31 32 -31 76q0 55 39 88.5t101 33.5t101.5 -33.5t39.5 -88.5zM141 684q0 -21 17.5 -30t35.5 0t18 30q0 23 -18 32t-35.5 0t-17.5 -32zM177 573q-24 3 -34.5 -18t0 -42
t34.5 -18q24 -3 34 18t0 42t-34 18z" />
    <glyph glyph-name="nine.sups" horiz-adv-x="352" 
d="M175 820q66 0 109 -39.5t43 -102.5q0 -44 -32 -91l-123 -185h-135l98 140q-50 11 -80 47.5t-30 88.5q0 63 42 102.5t108 39.5zM176 631q19 0 30 14q8 14 8 29q2 28 -18 40t-40.5 0.5t-18.5 -39.5q0 -44 39 -44z" />
    <glyph glyph-name="zero.tnum" horiz-adv-x="650" 
d="M608 374q0 -182 -78 -284q-78 -101 -206 -101t-206 101q-78 102 -78 284q0 184 78 284q78 101 206 101t206 -101t78 -284zM324 622q-126 0 -126 -248t126 -248q127 0 127 248t-127 248z" />
    <glyph glyph-name="one.tnum" horiz-adv-x="650" 
d="M436 748v-611h130v-137h-430v137h146v417l-100 -68l-66 120l207 142h113z" />
    <glyph glyph-name="two.tnum" horiz-adv-x="650" 
d="M330 759q109 0 169 -55.5t60 -157.5q0 -82 -35 -146q-34 -63 -99 -132l-123 -131h261v-137h-462v121l206 227q58 63 77 99q20 40 20 92q0 39 -18.5 61t-52.5 22q-77 0 -79 -105l-154 9q2 109 62.5 171t167.5 62z" />
    <glyph glyph-name="three.tnum" horiz-adv-x="650" 
d="M325 759q109 0 171 -59q61 -58 61 -160t-82 -154q42 -16 68.5 -60t26.5 -104q0 -108 -67 -171q-68 -62 -177 -62q-115 0 -179.5 60.5t-67.5 167.5l154 9q4 -100 92 -100q43 0 66.5 26t23.5 73q0 45 -26.5 69.5t-72.5 24.5h-77v132h75q39 0 63.5 24t24.5 63q0 84 -77 84
q-78 0 -83 -93l-153 8q2 105 64 163.5t172 58.5z" />
    <glyph glyph-name="four.tnum" horiz-adv-x="650" 
d="M485 748v-480h111v-137h-111v-131h-139v131h-303v127l320 490h122zM346 489l-146 -221h146v221z" />
    <glyph glyph-name="five.tnum" horiz-adv-x="650" 
d="M340 475q101 0 166 -62q64 -61 64 -175t-68 -182q-67 -67 -183 -67q-110 0 -174.5 59t-67.5 159l154 9q2 -43 25 -66.5t64 -23.5q45 0 70 29t25 79q0 49 -24 76.5t-66 27.5q-43 0 -80 -26h-143v436h438v-136h-284v-154q37 17 84 17z" />
    <glyph glyph-name="six.tnum" horiz-adv-x="650" 
d="M359 748h185l-186 -259q100 -11 165 -78q65 -68 65 -171q0 -112 -75 -182q-73 -69 -188 -69q-116 0 -191 69q-74 69 -74 182q0 82 55 161zM432 245q0 54 -29.5 85.5t-78.5 31.5q-58 0 -86 -40q-22 -29 -22 -77q0 -54 30 -86.5t78 -32.5t78 32.5t30 86.5z" />
    <glyph glyph-name="seven.tnum" horiz-adv-x="650" 
d="M558 748v-124l-292 -624h-170l292 612h-322v136h492z" />
    <glyph glyph-name="eight.tnum" horiz-adv-x="650" 
d="M567 548q0 -95 -72 -148q91 -61 91 -178q0 -107 -74 -170t-187 -63q-115 0 -188 63t-73 170q0 116 90 177q-72 53 -72 149q0 97 68 154t174 57t174 -57q69 -57 69 -154zM325 622q-39 0 -63.5 -23t-24.5 -62q0 -36 24.5 -59t63.5 -23t63.5 22t24.5 60q0 39 -24 62t-64 23z
M402 304q-30 27 -77 27t-77 -27t-30 -75q0 -47 30 -76q30 -27 77 -27t77 27q30 29 30 76q0 48 -30 75z" />
    <glyph glyph-name="nine.tnum" horiz-adv-x="650" 
d="M325 759q117 0 190 -69q75 -69 75 -182q0 -82 -55 -161l-244 -347h-185l186 259q-102 11 -166 78t-64 171q0 112 74 181q74 70 189 70zM326 386q58 0 86 40q22 29 22 77q0 54 -30 86.5t-78 32.5t-78 -32.5t-30 -86.5t29.5 -85.5t78.5 -31.5z" />
    <glyph glyph-name="zero.dnom" horiz-adv-x="372" 
d="M187 418q73 0 117 -56.5t44 -155.5q0 -100 -44 -156.5t-117 -56.5q-74 0 -118.5 56.5t-44.5 156.5q0 99 44.5 155.5t118.5 56.5zM223 291q-10 27 -37 27q-26 0 -37 -27q-11 -28 -11 -85q0 -56 11 -86q11 -27 37 -27q27 0 37 27q11 30 11 86q0 57 -11 85z" />
    <glyph glyph-name="one.dnom" horiz-adv-x="234" 
d="M202 411v-411h-112v264l-47 -31l-47 91l135 87h71z" />
    <glyph glyph-name="two.dnom" horiz-adv-x="319" 
d="M156 418q68 0 103.5 -36t35.5 -97q0 -67 -63 -138l-43 -48h108v-99h-276v77l130 140q32 35 32 69q0 32 -24 32q-29 0 -29 -37l-110 6q1 60 38 95.5t98 35.5z" />
    <glyph glyph-name="three.dnom" horiz-adv-x="329" 
d="M162 418q65 0 100 -33.5t35 -91.5q0 -53 -43 -81q48 -22 48 -87q0 -60 -39 -96t-102 -36q-66 0 -103 34.5t-38 94.5l113 8q1 -37 28 -37q29 0 29 35q0 36 -34 36h-45v90h43q15 0 24.5 9t9.5 24q0 31 -26 31q-27 0 -27 -33l-109 6q0 60 35 93.5t101 33.5z" />
    <glyph glyph-name="four.dnom" horiz-adv-x="351" 
d="M290 411v-249h44v-99h-44v-63h-112v63h-164v87l168 261h108zM178 260l-66 -98h66v98z" />
    <glyph glyph-name="five.dnom" horiz-adv-x="324" 
d="M175 268q59 0 94 -34.5t35 -98.5q0 -66 -39 -104t-105 -38q-63 0 -100.5 33.5t-38.5 88.5l111 7q3 -29 29 -29q31 0 31 39q0 36 -31 36q-14 0 -27 -10h-99v253h252v-99h-140v-47q12 3 28 3z" />
    <glyph glyph-name="six.dnom" horiz-adv-x="352" 
d="M180 411h136l-98 -140q49 -11 79 -48t30 -88q0 -63 -42 -102.5t-108 -39.5t-109 39.5t-43 102.5q0 45 31 91zM214 139q0 43 -38 43q-19 0 -29 -13l-1 -1q-8 -14 -8 -29q0 -28 19 -40t38 0t19 40z" />
    <glyph glyph-name="seven.dnom" horiz-adv-x="316" 
d="M293 411v-87l-140 -324h-123l135 312h-150v99h278z" />
    <glyph glyph-name="eight.dnom" horiz-adv-x="354" 
d="M317 296q0 -44 -31 -75q43 -37 43 -94q0 -60 -42.5 -97t-109.5 -37t-109.5 37t-42.5 97q0 55 42 93q-31 32 -31 76q0 55 39 88.5t101 33.5t101.5 -33.5t39.5 -88.5zM141 282q0 -21 17.5 -30t35.5 0t18 30q0 23 -18 32t-35.5 0t-17.5 -32zM177 171q-24 3 -34.5 -18t0 -42
t34.5 -18q24 -3 34 18t0 42t-34 18z" />
    <glyph glyph-name="nine.dnom" horiz-adv-x="352" 
d="M175 418q66 0 109 -39.5t43 -102.5q0 -44 -32 -91l-123 -185h-135l98 140q-50 11 -80 47.5t-30 88.5q0 63 42 102.5t108 39.5zM176 229q19 0 30 14q8 14 8 29q2 28 -18 40t-40.5 0.5t-18.5 -39.5q0 -44 39 -44z" />
    <glyph glyph-name="zero.numr" horiz-adv-x="372" 
d="M187 739q73 0 117 -56.5t44 -155.5q0 -100 -44 -156.5t-117 -56.5q-74 0 -118.5 56.5t-44.5 156.5q0 99 44.5 155.5t118.5 56.5zM138 527q0 -59 11 -86t37 -27t37 27t11 86q0 58 -11 85t-37 27t-37 -27t-11 -85z" />
    <glyph glyph-name="one.numr" horiz-adv-x="234" 
d="M202 733v-411h-112v264l-47 -31l-47 91l135 87h71z" />
    <glyph glyph-name="two.numr" horiz-adv-x="319" 
d="M156 739q68 0 103.5 -35.5t35.5 -97.5q0 -68 -63 -138l-43 -48h108v-99h-276v77l130 140q32 35 32 69q0 32 -24 32q-29 0 -29 -37l-110 6q1 60 38 95.5t98 35.5z" />
    <glyph glyph-name="three.numr" horiz-adv-x="329" 
d="M162 739q65 0 100 -33.5t35 -91.5q0 -53 -43 -81q48 -23 48 -87q0 -60 -39 -96t-102 -36q-66 0 -103 34.5t-38 94.5l113 8q1 -37 28 -37q29 0 29 35q0 36 -34 36h-45v90h43q15 0 24.5 9t9.5 24q0 31 -26 31q-27 0 -27 -33l-109 6q0 60 35 93.5t101 33.5z" />
    <glyph glyph-name="four.numr" horiz-adv-x="351" 
d="M290 732v-249h44v-99h-44v-63h-112v63h-164v87l168 261h108zM178 581l-66 -98h66v98z" />
    <glyph glyph-name="five.numr" horiz-adv-x="324" 
d="M175 590q59 0 94 -34.5t35 -98.5q0 -66 -39 -104t-105 -38q-63 0 -100.5 33.5t-38.5 88.5l111 7q3 -29 29 -29q31 0 31 39q0 36 -31 36q-14 0 -27 -10h-99v253h252v-99h-140v-47q12 3 28 3z" />
    <glyph glyph-name="six.numr" horiz-adv-x="352" 
d="M180 732h136l-98 -140q49 -11 79 -48t30 -88q0 -63 -42 -102.5t-108 -39.5t-109 39.5t-43 102.5q0 45 31 91zM214 460q0 43 -38 43q-19 0 -29 -13l-1 -1q-8 -14 -8 -29q0 -28 19 -40t38 0t19 40z" />
    <glyph glyph-name="seven.numr" horiz-adv-x="316" 
d="M293 733v-87l-140 -324h-123l135 312h-150v99h278z" />
    <glyph glyph-name="eight.numr" horiz-adv-x="354" 
d="M317 617q0 -44 -31 -75q43 -37 43 -94q0 -60 -42.5 -97t-109.5 -37t-109.5 37t-42.5 97q0 56 42 93q-31 32 -31 76q0 55 39 88.5t101 33.5t101.5 -33.5t39.5 -88.5zM141 603q0 -21 17.5 -30t35.5 0t18 30q0 23 -18 32t-35.5 0t-17.5 -32zM177 492q-24 3 -34.5 -18t0 -42
t34.5 -18q24 -3 34 18t0 42t-34 18z" />
    <glyph glyph-name="nine.numr" horiz-adv-x="352" 
d="M175 739q66 0 109 -39.5t43 -102.5q0 -44 -32 -91l-123 -185h-135l98 140q-50 11 -80 47.5t-30 88.5q0 63 42 102.5t108 39.5zM176 550q19 0 30 14q8 14 8 29q2 28 -18 40t-40.5 0.5t-18.5 -39.5q0 -44 39 -44z" />
    <glyph glyph-name="periodcentered.cap" horiz-adv-x="269" 
d="M63 503q26 26 63 26t63 -26t26 -63t-26 -63q-26 -25 -63 -25t-63 25q-25 26 -25 63t25 63z" />
    <glyph glyph-name="exclamdown.cap" horiz-adv-x="324" 
d="M163 582q-37 0 -63 26t-26 63t26 62.5t63 25.5q36 0 61.5 -25.5t25.5 -62.5t-25.5 -63t-61.5 -26zM77 0l8 520h154l8 -520h-170z" />
    <glyph glyph-name="questiondown.cap" horiz-adv-x="535" 
d="M329 608q-25 -26 -62 -26t-63 26t-26 63t26 62q26 26 63 26t62 -26q26 -25 26 -62t-26 -63zM267 -12q-117 0 -184 61t-67 166q0 40 16 72q15 31 31.5 49t51.5 45q41 33 57.5 55.5t16.5 51.5v32h155v-38q0 -42 -22.5 -75.5t-73.5 -76.5q-40 -33 -57 -57.5t-17 -55.5
q0 -43 25 -68t68 -25t69 26.5t29 73.5l154 -10q-5 -104 -73 -165t-179 -61z" />
    <glyph glyph-name="braceleft.cap" horiz-adv-x="303" 
d="M282 770v-121h-6q-45 0 -58.5 -28.5t-2.5 -101.5q4 -39 4 -69.5t-17.5 -51.5t-54.5 -25q37 -4 54.5 -25.5t17.5 -52t-4 -69.5q-11 -73 2.5 -101.5t58.5 -28.5h6v-121h-6q-112 0 -171 60q-58 61 -34 177q17 55 7.5 78t-53.5 23h-8v119h8q44 0 53.5 23t-7.5 78
q-24 116 34 176q58 61 171 61h6z" />
    <glyph glyph-name="braceright.cap" horiz-adv-x="303" 
d="M21 649v121h6q112 0 170 -61q59 -61 35 -176q-17 -55 -7.5 -78t53.5 -23h8v-119h-8q-44 0 -53.5 -23t7.5 -78q24 -115 -35 -177q-58 -60 -170 -60h-6v121h6q45 0 58.5 28.5t2.5 101.5q-4 39 -4 69.5t17.5 52t53.5 25.5q-36 4 -53.5 25t-17.5 52t4 69q11 73 -2.5 101.5
t-58.5 28.5h-6z" />
    <glyph glyph-name="bracketleft.cap" horiz-adv-x="307" 
d="M287 770v-121h-89v-553h89v-121h-234v795h234z" />
    <glyph glyph-name="bracketright.cap" horiz-adv-x="319" 
d="M255 770v-795h-234v121h88v553h-88v121h234z" />
    <glyph glyph-name="parenleft.cap" horiz-adv-x="298" 
d="M156 777l126 -44q-100 -172 -100 -371t100 -371l-126 -44q-119 179 -119 415t119 415z" />
    <glyph glyph-name="parenright.cap" horiz-adv-x="293" 
d="M17 733l126 44q119 -182 119 -415t-119 -415l-126 44q99 175 99 371t-99 371z" />
    <glyph glyph-name="emdash.cap" horiz-adv-x="798" 
d="M753 445v-136h-708v136h708z" />
    <glyph glyph-name="endash.cap" horiz-adv-x="566" 
d="M521 445v-136h-476v136h476z" />
    <glyph glyph-name="hyphen.cap" horiz-adv-x="406" 
d="M361 445v-136h-316v136h316z" />
    <glyph glyph-name="guillemotleft.cap" horiz-adv-x="581" 
d="M178 622l116 -72l-117 -163l117 -163l-116 -72l-163 235zM448 622l116 -72l-116 -163l116 -163l-116 -72l-163 235z" />
    <glyph glyph-name="guillemotright.cap" horiz-adv-x="581" 
d="M133 622l163 -235l-163 -235l-116 72l117 163l-117 163zM403 622l163 -235l-163 -235l-116 72l117 163l-117 163z" />
    <glyph glyph-name="guilsinglleft.cap" horiz-adv-x="338" 
d="M217 619l104 -92l-131 -140l131 -140l-104 -92l-202 232z" />
    <glyph glyph-name="guilsinglright.cap" horiz-adv-x="338" 
d="M121 619l202 -232l-202 -232l-104 92l131 140l-131 140z" />
    <glyph glyph-name="emdash_guilsinglright" horiz-adv-x="885" 
d="M612 522l238 -262l-238 -263l-103 91l105 113h-569v120h567l-103 109z" />
    <glyph glyph-name="endash_guilsinglright" horiz-adv-x="615" 
d="M342 522l238 -262l-238 -263l-102 91l105 113h-300v120h297l-102 109z" />
    <glyph glyph-name="guilsinglleft_emdash" horiz-adv-x="885" 
d="M273 522l103 -92l-102 -109h566v-120h-569l105 -113l-103 -91l-238 263z" />
    <glyph glyph-name="guilsinglleft_endash" horiz-adv-x="615" 
d="M273 522l103 -92l-102 -109h296v-120h-300l106 -113l-103 -91l-238 263z" />
    <glyph glyph-name="at.cap" horiz-adv-x="803" 
d="M765 374q0 -102 -42 -155.5t-118 -53.5q-77 0 -103 51q-48 -54 -127 -54q-86 0 -138 58q-53 59 -53 153q0 95 53 154q52 58 138 58q80 0 117 -46v31h106v-290q0 -39 35 -39q28 0 45 34.5t17 98.5q0 126 -84 210t-210 84q-127 0 -210 -84q-83 -85 -83 -210q0 -130 84 -212
q86 -81 203 -81q103 0 179 44l23 -65q-82 -46 -202 -46q-150 0 -254 101q-103 100 -103 259q0 156 102 258q104 102 261 102t261 -102q103 -102 103 -258zM487 365v17q0 48 -25.5 76t-68.5 28q-45 0 -70 -29.5t-25 -83.5q0 -53 26 -83t69 -30t68.5 28t25.5 77z" />
    <glyph glyph-name="acute.case" horiz-adv-x="346" 
d="M336 951l-194 -154h-133l128 154h199z" />
    <glyph glyph-name="breve.case" horiz-adv-x="391" 
d="M263 963h118q0 -80 -50 -122.5t-136 -42.5t-135.5 42.5t-49.5 122.5h118q0 -30 18.5 -47t48.5 -17q31 0 49.5 17t18.5 47z" />
    <glyph glyph-name="caron.case" horiz-adv-x="392" 
d="M383 957l-116 -160h-141l-117 160h122l65 -75l64 75h123z" />
    <glyph glyph-name="circumflex.case" horiz-adv-x="392" 
d="M267 957l116 -160h-123l-64 75l-65 -75h-122l117 160h141z" />
    <glyph glyph-name="dieresis.case" horiz-adv-x="371" 
d="M33 936q23 23 56 23t56 -23q24 -23 24 -56t-24 -56q-23 -23 -56 -23t-56 23t-23 56t23 56zM226 936q23 23 56 23t56 -23t23 -56t-23 -56t-56 -23t-56 23t-23 56t23 56z" />
    <glyph glyph-name="dotaccent.case" horiz-adv-x="195" 
d="M97 975q37 0 62.5 -25.5t25.5 -62.5t-25.5 -62t-62.5 -25q-36 0 -61.5 25t-25.5 62t26 62.5t61 25.5z" />
    <glyph glyph-name="grave.case" horiz-adv-x="346" 
d="M209 951l128 -154h-133l-194 154h199z" />
    <glyph glyph-name="hungarumlaut.case" horiz-adv-x="419" 
d="M208 969l-86 -169h-113l61 169h138zM410 969l-86 -169h-113l61 169h138z" />
    <glyph glyph-name="macron.case" horiz-adv-x="317" 
d="M308 928v-111h-300v111h300z" />
    <glyph glyph-name="ring.case" horiz-adv-x="249" 
d="M126 1010q48 0 80.5 -30.5t32.5 -77.5q0 -46 -33 -76.5t-80 -30.5q-49 0 -82.5 30.5t-33.5 76.5q0 47 33.5 77.5t82.5 30.5zM126 943q-19 0 -30.5 -11.5t-11.5 -29.5q0 -17 11.5 -28t30.5 -11q17 0 28 11t11 28q0 18 -11 29.5t-28 11.5z" />
    <glyph glyph-name="tilde.case" horiz-adv-x="384" 
d="M117 961q35 0 74 -27q41 -26 59 -26q41 0 42 46h82q5 -63 -25 -109t-83 -46q-34 0 -75 26q-39 27 -57 27q-42 0 -42 -46h-82q-4 63 24 109q30 46 83 46z" />
    <glyph glyph-name="anneau" horiz-adv-x="595" 
d="M298 761q116 0 192 -73q78 -74 78 -183t-78 -183q-76 -73 -192 -73q-118 0 -194 73q-77 74 -77 183t77 183q76 73 194 73zM298 711q-96 0 -155 -58q-59 -59 -59 -148t59 -148q59 -58 155 -58q95 0 153 58q60 59 60 148t-60 148q-58 58 -153 58z" />
    <glyph glyph-name="_498" horiz-adv-x="600" 
 />
    </font>
</defs>
</svg>
