<?xml version="1.0" standalone="no"?>
<!DOCTYPE svg PUBLIC "-//W3C//DTD SVG 1.1//EN" "http://www.w3.org/Graphics/SVG/1.1/DTD/svg11.dtd" >
<svg>
<metadata>
Created by FontForge 20090622 at Wed Oct 26 06:04:19 2016
 By deploy user
Copyright &#194;&#169; 2014 by Type Dynamic. All rights reserved.
</metadata>
<defs>
<font id="Sailec-Medium" horiz-adv-x="274" >
  <font-face 
    font-family="Sailec Medium"
    font-weight="500"
    font-stretch="normal"
    units-per-em="1000"
    panose-1="0 0 6 0 0 0 0 0 0 0"
    ascent="800"
    descent="-200"
    x-height="513"
    cap-height="748"
    bbox="-212 -337 1219 1070"
    underline-thickness="50"
    underline-position="-50"
    unicode-range="U+000D-U+FB02"
  />
<missing-glyph horiz-adv-x="717" 
d="M642 748v-748h-567v748h567zM496 668h-272l136 -222zM160 606v-467l148 234zM557 601l-144 -228l144 -228v456zM360 300l-134 -220h269z" />
    <glyph glyph-name="fi" unicode="fi" horiz-adv-x="633" 
d="M302 782q24 0 44 -3v-97q-24 2 -32 2q-43 0 -69.5 -26t-26.5 -71v-74h126v-97h-126v-416h-112v416h-97v97h97v71q0 92 53 145t143 53zM446 740q21 21 50 21t50 -21q21 -20 21 -49t-21 -50q-21 -20 -50 -20t-50 20q-20 21 -20 50t20 49zM552 513v-513h-112v513h112z" />
    <glyph glyph-name="f_j" unicode="fj" horiz-adv-x="633" 
d="M302 782q24 0 44 -3v-97q-24 2 -32 2q-43 0 -69.5 -26t-26.5 -71v-74h126v-97h-126v-416h-112v416h-97v97h97v71q0 92 53 145t143 53zM446 740q21 21 50 21t50 -21q21 -20 21 -49t-21 -50q-21 -20 -50 -20t-50 20q-20 21 -20 50t20 49zM441 513h112v-577
q0 -92 -51.5 -144.5t-139.5 -52.5q-24 0 -45 3v98q13 -3 32 -3q42 0 67 25.5t25 70.5v580z" />
    <glyph glyph-name=".notdef" horiz-adv-x="717" 
d="M642 748v-748h-567v748h567zM496 668h-272l136 -222zM160 606v-467l148 234zM557 601l-144 -228l144 -228v456zM360 300l-134 -220h269z" />
    <glyph glyph-name=".null" horiz-adv-x="0" 
 />
    <glyph glyph-name="nonmarkingreturn" horiz-adv-x="333" 
 />
    <glyph glyph-name="CR.001" unicode="&#xd;" horiz-adv-x="600" 
 />
    <glyph glyph-name="space" unicode=" " horiz-adv-x="233" 
 />
    <glyph glyph-name="exclam" unicode="!" horiz-adv-x="299" 
d="M214 748l-6 -534h-119l-6 534h131zM148 134q30 0 51.5 -21t21.5 -52q0 -29 -21.5 -50t-51.5 -21q-29 0 -50 21t-21 50q0 31 21 52t50 21z" />
    <glyph glyph-name="quotedbl" unicode="&#x22;" horiz-adv-x="370" 
d="M155 748l-12 -253h-88l-12 253h112zM326 748l-12 -253h-88l-12 253h112z" />
    <glyph glyph-name="numbersign" unicode="#" horiz-adv-x="650" 
d="M577 748l-47 -197h113l-22 -90h-113l-42 -177h117l-21 -90h-117l-46 -194h-99l47 194h-130l-46 -194h-99l46 194h-111l21 90h112l42 177h-116l22 90h115l48 197h98l-47 -197h129l48 197h98zM410 461h-130l-42 -177h130z" />
    <glyph glyph-name="dollar" unicode="$" horiz-adv-x="659" 
d="M612 211q0 -97 -62 -153.5t-168 -65.5v-110h-94v111q-106 12 -170 71.5t-67 152.5l121 7q4 -59 51 -95t119 -36q70 0 109.5 27.5t39.5 82.5q0 52 -41 75q-42 25 -138 47q-64 16 -99.5 29t-71.5 36q-73 48 -73 149q0 85 56 146q56 60 164 71v109h94v-111
q95 -13 151.5 -69.5t59.5 -143.5l-121 -7q-3 56 -41.5 88.5t-101.5 32.5q-65 0 -102 -30.5t-37 -81.5t36 -74q36 -20 130 -43q133 -32 194 -78q62 -45 62 -137z" />
    <glyph glyph-name="percent" unicode="%" horiz-adv-x="863" 
d="M204 758q76 0 122.5 -49.5t46.5 -132.5q0 -82 -48 -133q-47 -50 -121 -50t-122 50q-47 52 -47 133q0 82 47 132t122 50zM742 748l-513 -748h-109l513 748h109zM204 679q-38 0 -62 -28q-24 -27 -24 -75t24 -76t62 -28q39 0 62.5 28t23.5 76t-23.5 75.5t-62.5 27.5z
M658 355q76 0 122.5 -49.5t46.5 -132.5q0 -82 -48 -133q-47 -50 -121 -50t-122 50q-47 52 -47 133q0 82 47 132t122 50zM658 69q39 0 62.5 28t23.5 76t-24 75q-22 28 -62 28q-39 0 -63 -28q-23 -28 -23 -75q0 -48 23.5 -76t62.5 -28z" />
    <glyph glyph-name="ampersand" unicode="&#x26;" horiz-adv-x="707" 
d="M717 79l-72 -89l-121 105q-95 -104 -230 -104q-120 0 -187 59q-66 60 -66 153q0 67 30.5 116.5t93.5 93.5q-62 74 -62 148q0 94 58 145.5t158 51.5q87 0 145 -47.5t70 -130.5l-115 -9q-13 85 -100 85q-46 0 -71.5 -24.5t-25.5 -69.5q0 -39 27 -72q26 -28 29 -31l16 -15
q9 -6 19 -16l18 -15l175 -151q27 58 48 141l105 -28q-28 -104 -71 -185zM296 92q86 0 149 72l-199 172l-13 12q-71 -53 -71 -134q0 -56 36 -89t98 -33z" />
    <glyph glyph-name="quotesingle" unicode="'" horiz-adv-x="199" 
d="M155 748l-12 -253h-88l-12 253h112z" />
    <glyph glyph-name="parenleft" unicode="(" 
d="M159 731l97 -34q-105 -174 -105 -377q0 -202 105 -376l-97 -35q-120 181 -120 411q0 231 120 411z" />
    <glyph glyph-name="parenright" unicode=")" 
d="M19 697l97 34q120 -180 120 -411q0 -230 -120 -411l-97 35q105 174 105 376q0 203 -105 377z" />
    <glyph glyph-name="asterisk" unicode="*" horiz-adv-x="349" 
d="M206 760l-2 -123l116 40l20 -60l-117 -37l74 -97l-52 -38l-70 100l-71 -101l-51 39l73 97l-117 37l20 60l116 -40l-2 123h63z" />
    <glyph glyph-name="plus" unicode="+" horiz-adv-x="547" 
d="M328 609v-188h187v-102h-187v-192h-109v192h-187v102h187v188h109z" />
    <glyph glyph-name="comma" unicode="," horiz-adv-x="221" 
d="M111 133q32 0 49.5 -21.5t17.5 -58.5q0 -137 -130 -207v48q52 38 62 97q-29 2 -48.5 22t-19.5 48q0 30 19.5 51t49.5 21z" />
    <glyph glyph-name="hyphen" unicode="-" horiz-adv-x="404" 
d="M359 314v-105h-314v105h314z" />
    <glyph glyph-name="period" unicode="." horiz-adv-x="227" 
d="M113 134q30 0 51.5 -21t21.5 -52q0 -29 -21.5 -50t-51.5 -21q-29 0 -50 21t-21 50q0 31 21 52t50 21z" />
    <glyph glyph-name="slash" unicode="/" horiz-adv-x="390" 
d="M381 748l-254 -815h-118l255 815h117z" />
    <glyph glyph-name="zero" unicode="0" horiz-adv-x="647" 
d="M599 374q0 -182 -75 -283t-200 -101q-126 0 -201 101t-75 283t75 283t201 101t200 -101q75 -101 75 -283zM324 652q-155 0 -155 -278t155 -278q154 0 154 278t-154 278z" />
    <glyph glyph-name="one" unicode="1" horiz-adv-x="381" 
d="M296 748v-748h-118v591l-114 -84l-57 94l202 147h87z" />
    <glyph glyph-name="two" unicode="2" horiz-adv-x="539" 
d="M497 547q0 -85 -37 -152q-36 -66 -104 -140l-139 -149h287v-106h-451v98l215 230q64 67 87 110t23 104q0 51 -26 80.5t-73 29.5q-108 0 -109 -130l-119 7q2 108 61 168.5t164 60.5t163 -55.5t58 -155.5z" />
    <glyph glyph-name="three" unicode="3" horiz-adv-x="562" 
d="M278 758q104 0 163.5 -57t59.5 -154q0 -113 -99 -160q51 -15 83 -60.5t32 -110.5q0 -104 -65 -166q-64 -60 -172 -60q-111 0 -173.5 58.5t-67.5 164.5l119 7q10 -124 121 -124q56 0 87 32t31 90q0 56 -33.5 85.5t-92.5 29.5h-75v106h73q50 0 81 29.5t31 78.5q0 51 -27 78
t-76 27q-50 0 -78.5 -30.5t-31.5 -85.5l-118 6q3 102 63 159t165 57z" />
    <glyph glyph-name="four" unicode="4" horiz-adv-x="599" 
d="M458 748v-485h117v-106h-117v-157h-117v157h-314v98l331 493h100zM340 533l-182 -270h182v270z" />
    <glyph glyph-name="five" unicode="5" horiz-adv-x="564" 
d="M294 466q99 0 163 -62q63 -62 63 -171t-65 -177q-65 -66 -177 -66q-107 0 -169.5 57t-67.5 158l119 7q11 -116 119 -116q57 0 89.5 36.5t32.5 97.5q0 60 -32 95t-87 35q-58 0 -105 -36h-110v424h424v-105h-306v-204q46 27 109 27z" />
    <glyph glyph-name="six" unicode="6" horiz-adv-x="599" 
d="M355 748h142l-193 -263q110 -2 181 -71q72 -67 72 -178q0 -112 -73 -179q-71 -67 -183 -67t-185 67q-72 67 -72 179q0 84 53 158zM301 96q61 0 98.5 39.5t37.5 104.5t-37.5 103t-98.5 38q-72 0 -108 -48q-28 -37 -28 -93q0 -66 37.5 -105t98.5 -39z" />
    <glyph glyph-name="seven" unicode="7" horiz-adv-x="540" 
d="M513 748v-96l-325 -652h-131l325 643h-361v105h492z" />
    <glyph glyph-name="eight" unicode="8" horiz-adv-x="606" 
d="M535 553q0 -106 -92 -156q52 -25 81.5 -72.5t29.5 -109.5q0 -102 -71 -164q-70 -61 -180 -61q-111 0 -181 61t-70 164q0 62 29 109t81 72q-92 48 -92 157q0 94 65 150q64 55 167 55t167 -55q66 -55 66 -150zM189 547q0 -47 32 -75t82 -28q51 0 82.5 28t31.5 75
q0 48 -31.5 76.5t-82.5 28.5t-82.5 -28.5t-31.5 -76.5zM302 340q-58 0 -95 -33t-37 -89q0 -55 37 -88.5t95 -33.5q59 0 96 33.5t37 88.5q0 56 -36.5 89t-96.5 33z" />
    <glyph glyph-name="nine" unicode="9" horiz-adv-x="599" 
d="M298 758q111 0 184 -68q73 -67 73 -178q0 -84 -53 -158l-258 -354h-142l193 263q-109 1 -182 70q-71 69 -71 179t72 178q74 68 184 68zM298 367q72 0 108 48q28 37 28 93q0 66 -37.5 105t-98.5 39t-98.5 -39.5t-37.5 -104.5t37.5 -103t98.5 -38z" />
    <glyph glyph-name="colon" unicode=":" horiz-adv-x="227" 
d="M107 523q30 0 51.5 -21t21.5 -52q0 -29 -21.5 -50t-51.5 -21q-29 0 -50 21t-21 50q0 31 21 52t50 21zM107 134q30 0 51.5 -21t21.5 -52q0 -29 -21.5 -50t-51.5 -21q-29 0 -50 21t-21 50q0 31 21 52t50 21z" />
    <glyph glyph-name="semicolon" unicode=";" horiz-adv-x="227" 
d="M107 379q-29 0 -50 21t-21 50q0 31 21 52t50 21q30 0 51.5 -21t21.5 -52q0 -29 -21.5 -50t-51.5 -21zM111 133q32 0 49.5 -21.5t17.5 -58.5q0 -137 -130 -207v48q52 38 62 97q-29 2 -48.5 22t-19.5 48q0 30 19.5 51t49.5 21z" />
    <glyph glyph-name="less" unicode="&#x3c;" horiz-adv-x="527" 
d="M494 616l1 -127l-246 -120l246 -120l-1 -127l-466 247z" />
    <glyph glyph-name="equal" unicode="=" horiz-adv-x="547" 
d="M515 543v-106h-483v106h483zM515 301v-106h-483v106h483z" />
    <glyph glyph-name="greater" unicode="&#x3e;" horiz-adv-x="527" 
d="M33 616l466 -247l-466 -247l-1 127l246 120l-246 120z" />
    <glyph glyph-name="question" unicode="?" horiz-adv-x="516" 
d="M259 759q111 0 175 -61q64 -60 64 -159q0 -56 -24 -93t-79 -79q-44 -33 -61.5 -60t-17.5 -64v-29h-119v34q0 46 22.5 82t73.5 77q45 35 64 63.5t19 66.5q0 54 -31.5 85.5t-85.5 31.5t-86 -30.5t-37 -85.5l-119 8q4 97 70 155q65 58 172 58zM255 134q30 0 51.5 -21
t21.5 -52q0 -29 -21.5 -50t-51.5 -21q-29 0 -50 21t-21 50q0 31 21 52t50 21z" />
    <glyph glyph-name="at" unicode="@" horiz-adv-x="812" 
d="M406 609q158 0 261 -103q104 -104 104 -260q0 -99 -40.5 -152t-113.5 -53q-75 0 -97 55q-46 -58 -135 -58q-85 0 -137 57q-52 56 -52 152t52 153t137 57q93 0 129 -55v42h82v-282q0 -49 42 -49q30 0 47.5 35.5t17.5 97.5q0 128 -85 213t-212 85q-129 0 -213 -85t-84 -213
q0 -132 85 -214t207 -82q104 0 183 47l18 -63q-83 -50 -201 -50q-153 0 -257 102q-103 100 -103 260q0 157 103 260t262 103zM510 237v21q0 58 -29.5 90t-81.5 32t-83.5 -35.5t-31.5 -97.5t31.5 -97.5t83.5 -35.5t81.5 32t29.5 91z" />
    <glyph glyph-name="A" unicode="A" horiz-adv-x="759" 
d="M429 748l317 -748h-131l-69 167h-334l-70 -167h-130l316 748h101zM380 564l-122 -291h243z" />
    <glyph glyph-name="B" unicode="B" horiz-adv-x="695" 
d="M84 0v748h294q104 0 165.5 -53t61.5 -150q0 -113 -84 -154q53 -18 84.5 -64.5t31.5 -114.5q0 -101 -64 -156.5t-171 -55.5h-318zM364 643h-162v-209h179q103 0 103 103q0 51 -32 78.5t-88 27.5zM393 332h-191v-226h186q59 0 93 28.5t34 83.5q0 56 -33.5 85t-88.5 29z" />
    <glyph glyph-name="C" unicode="C" horiz-adv-x="816" 
d="M426 758q137 0 232 -76q97 -76 115 -204l-124 -11q-15 87 -75.5 136t-151.5 49q-112 0 -180 -75q-68 -76 -68 -203q0 -132 70 -205t179 -73q90 0 150 47t76 131l125 -11q-21 -127 -117 -200q-94 -73 -230 -73q-165 0 -269 103q-105 103 -105 281q0 177 104 281
q103 103 269 103z" />
    <glyph glyph-name="D" unicode="D" horiz-adv-x="801" 
d="M84 0v748h299q160 0 263 -101q102 -101 102 -273q0 -174 -103 -274t-264 -100h-297zM383 646h-181v-544h180q114 0 180.5 71.5t66.5 200.5t-66.5 200.5t-179.5 71.5z" />
    <glyph glyph-name="E" unicode="E" horiz-adv-x="597" 
d="M554 748v-105h-351v-206h307v-103h-307v-228h351v-106h-470v748h470z" />
    <glyph glyph-name="F" unicode="F" horiz-adv-x="585" 
d="M554 748v-105h-351v-209h290v-105h-290v-329h-119v748h470z" />
    <glyph glyph-name="G" unicode="G" horiz-adv-x="827" 
d="M425 392h350v-39q0 -165 -95 -265q-95 -98 -255 -98q-164 0 -268 103q-104 104 -104 281q0 178 103 281t268 103q131 0 225 -70q93 -68 119 -191l-123 -20q-15 82 -74 128.5t-148 46.5q-116 0 -182.5 -72.5t-66.5 -205.5q0 -132 67 -205t182 -73q93 0 151 48.5t72 142.5
h-221v105z" />
    <glyph glyph-name="H" unicode="H" horiz-adv-x="757" 
d="M674 748v-748h-119v333h-352v-333h-119v748h119v-309h352v309h119z" />
    <glyph glyph-name="I" unicode="I" horiz-adv-x="286" 
d="M203 748v-748h-119v748h119z" />
    <glyph glyph-name="J" unicode="J" horiz-adv-x="594" 
d="M397 748h119v-498q0 -123 -65.5 -191.5t-180.5 -68.5q-110 0 -176.5 64t-72.5 177l119 19q4 -73 38 -113.5t93 -40.5q61 0 93.5 38.5t32.5 112.5v501z" />
    <glyph glyph-name="K" unicode="K" horiz-adv-x="695" 
d="M647 748l-273 -314l311 -434h-146l-245 340l-91 -105v-235h-119v748h119v-335l291 335h153z" />
    <glyph glyph-name="L" unicode="L" horiz-adv-x="591" 
d="M203 748v-642h354v-106h-473v748h119z" />
    <glyph glyph-name="M" unicode="M" horiz-adv-x="978" 
d="M894 748v-748h-118v481l-247 -475h-78l-248 475v-481h-119v748h105l301 -568l300 568h104z" />
    <glyph glyph-name="N" unicode="N" horiz-adv-x="756" 
d="M673 748v-748h-101l-369 528v-528h-119v748h100l370 -529v529h119z" />
    <glyph glyph-name="O" unicode="O" horiz-adv-x="870" 
d="M435 758q167 0 273 -105q108 -103 108 -279q0 -175 -108 -280q-107 -104 -273 -104t-275 104q-107 105 -107 280t107 279q108 105 275 105zM435 652q-114 0 -188 -75q-73 -73 -73 -203q0 -129 73 -203q74 -75 188 -75q113 0 187 75q73 74 73 203q0 130 -73 203
q-74 75 -187 75z" />
    <glyph glyph-name="P" unicode="P" horiz-adv-x="657" 
d="M84 0v748h306q107 0 171 -62t64 -171q0 -111 -66 -172q-64 -61 -169 -61h-187v-282h-119zM375 643h-173v-255h173q57 0 92.5 33.5t35.5 93.5q0 61 -35 94.5t-93 33.5z" />
    <glyph glyph-name="Q" unicode="Q" horiz-adv-x="873" 
d="M859 8l-83 -85l-126 125q-92 -58 -215 -58q-166 0 -275 104q-107 105 -107 280t107 279q108 105 275 105t273 -105q108 -103 108 -279q0 -146 -78 -246zM435 96q73 0 133 33l-133 133l83 84l135 -134q42 68 42 162q0 130 -73 203q-74 75 -187 75q-114 0 -188 -75
q-73 -73 -73 -203q0 -129 73 -203q74 -75 188 -75z" />
    <glyph glyph-name="R" unicode="R" horiz-adv-x="695" 
d="M660 0h-134l-158 286h-165v-286h-119v748h302q106 0 170 -61q65 -60 65 -170q0 -77 -34 -131.5t-95 -79.5zM202 643v-251h169q58 0 93 33t35 92t-35 92.5t-93 33.5h-169z" />
    <glyph glyph-name="S" unicode="S" horiz-adv-x="659" 
d="M327 758q118 0 189 -58q72 -58 77 -159l-121 -7q-3 56 -41.5 88.5t-101.5 32.5q-65 0 -102 -30.5t-37 -81.5t36 -74q36 -20 130 -43q133 -32 194 -78q62 -45 62 -137q0 -111 -76 -166q-74 -55 -194 -55q-126 0 -207 60q-79 60 -84 167l121 7q4 -59 51 -95t119 -36
q70 0 109.5 27.5t39.5 82.5q0 52 -41 75q-42 25 -138 47q-64 16 -99.5 29t-71.5 36q-73 48 -73 149q0 95 67 156q67 63 192 63z" />
    <glyph glyph-name="T" unicode="T" horiz-adv-x="687" 
d="M669 748v-105h-266v-643h-119v643h-266v105h651z" />
    <glyph glyph-name="U" unicode="U" horiz-adv-x="770" 
d="M573 748h119v-457q0 -143 -81.5 -222t-225.5 -79t-225.5 79t-81.5 222v457h119v-455q0 -96 48.5 -146.5t139.5 -50.5q90 0 139 50.5t49 146.5v455z" />
    <glyph glyph-name="V" unicode="V" horiz-adv-x="762" 
d="M746 748l-315 -748h-100l-314 748h130l234 -562l234 562h131z" />
    <glyph glyph-name="W" unicode="W" horiz-adv-x="1121" 
d="M1105 748l-261 -748h-100l-183 529l-182 -529h-101l-261 748h128l185 -537l182 537h98l183 -537l184 537h128z" />
    <glyph glyph-name="X" unicode="X" horiz-adv-x="707" 
d="M673 748l-232 -368l244 -380h-138l-193 301l-194 -301h-138l244 380l-232 368h137l183 -288l182 288h137z" />
    <glyph glyph-name="Y" unicode="Y" horiz-adv-x="715" 
d="M700 748l-283 -447v-301h-118v301l-284 447h138l205 -329l204 329h138z" />
    <glyph glyph-name="Z" unicode="Z" horiz-adv-x="621" 
d="M577 748v-90l-389 -552h398v-106h-550v90l388 553h-378v105h531z" />
    <glyph glyph-name="bracketleft" unicode="[" horiz-adv-x="283" 
d="M262 718v-94h-94v-607h94v-94h-206v795h206z" />
    <glyph glyph-name="backslash" unicode="\" horiz-adv-x="390" 
d="M126 748l255 -815h-117l-255 815h117z" />
    <glyph glyph-name="bracketright" unicode="]" horiz-adv-x="283" 
d="M228 718v-795h-206v94h94v607h-94v94h206z" />
    <glyph glyph-name="asciicircum" unicode="^" horiz-adv-x="573" 
d="M287 764l257 -391h-127l-130 215l-131 -215h-127z" />
    <glyph glyph-name="underscore" unicode="_" horiz-adv-x="686" 
d="M641 0v-106h-596v106h596z" />
    <glyph glyph-name="grave" unicode="`" horiz-adv-x="250" 
d="M142 787l94 -191h-88l-134 191h128z" />
    <glyph glyph-name="a" unicode="a" horiz-adv-x="548" 
d="M267 522q99 0 152 -52.5t53 -150.5v-319h-113v46q-59 -56 -139 -56q-79 0 -125 39.5t-46 110.5q0 144 188 155l122 7v15q0 107 -91 107q-44 0 -68 -24.5t-24 -62.5l-113 4q0 72 56 126q55 55 148 55zM360 197v18l-107 -7q-91 -4 -91 -66q0 -58 77 -58q57 0 89 29t32 84z
" />
    <glyph glyph-name="b" unicode="b" horiz-adv-x="652" 
d="M81 777h112v-326q22 33 65.5 52t97.5 19q109 0 178 -73q69 -72 69 -193q0 -120 -69 -194q-69 -72 -178 -72q-57 0 -102 22t-67 59v-71h-106v777zM338 426q-66 0 -105.5 -41.5t-39.5 -114.5v-27q0 -73 39.5 -114.5t105.5 -41.5q68 0 109.5 45t41.5 124t-41.5 124.5
t-109.5 45.5z" />
    <glyph glyph-name="c" unicode="c" horiz-adv-x="584" 
d="M306 522q94 0 158.5 -52.5t77.5 -141.5l-110 -10q-6 50 -40.5 79t-85.5 29q-65 0 -104 -45.5t-39 -124.5q0 -78 39.5 -123.5t103.5 -45.5q52 0 85.5 27t41.5 75l110 -10q-15 -87 -79 -138t-158 -51q-112 0 -185 71q-72 72 -72 195q0 124 71 195q73 71 186 71z" />
    <glyph glyph-name="d" unicode="d" horiz-adv-x="652" 
d="M571 777v-777h-106v71q-22 -37 -67 -59t-102 -22q-109 0 -178 72q-69 74 -69 194q0 121 69 193q69 73 178 73q54 0 97.5 -19t65.5 -52v326h112zM314 426q-68 0 -109.5 -45.5t-41.5 -124.5t41.5 -124t109.5 -45q66 0 105.5 41.5t39.5 114.5v27q0 73 -39.5 114.5
t-105.5 41.5z" />
    <glyph glyph-name="e" unicode="e" horiz-adv-x="594" 
d="M545 269v-55h-377q4 -58 41 -92.5t96 -34.5q100 0 122 73l113 -6q-15 -70 -80 -117t-152 -47q-114 0 -187 71q-72 72 -72 195t71 194q70 72 185 72q110 0 175 -68t65 -185zM304 426q-58 0 -94.5 -33t-40.5 -91h263q-2 58 -35 91t-93 33z" />
    <glyph glyph-name="f" unicode="f" horiz-adv-x="359" 
d="M302 782q24 0 44 -3v-97q-24 2 -32 2q-43 0 -69.5 -26t-26.5 -71v-74h126v-97h-126v-416h-112v416h-97v97h97v71q0 92 53 145t143 53z" />
    <glyph glyph-name="g" unicode="g" horiz-adv-x="646" 
d="M296 522q57 0 102 -22t67 -59v72h106v-538q0 -109 -69 -174q-68 -65 -183 -65q-108 0 -173.5 49.5t-81.5 138.5l112 4q7 -45 45 -71t95 -26q66 0 104.5 36t38.5 100v94q-22 -33 -65.5 -52t-97.5 -19q-109 0 -178 72q-69 74 -69 194q0 121 69 193q69 73 178 73zM314 425
q-68 0 -109.5 -45t-41.5 -124t41.5 -124.5t109.5 -45.5q66 0 105.5 41.5t39.5 114.5v27q0 73 -39.5 114.5t-105.5 41.5z" />
    <glyph glyph-name="h" unicode="h" horiz-adv-x="609" 
d="M81 777h112v-322q45 67 144 67q89 0 144 -58q56 -58 56 -155v-309h-113v294q0 57 -30.5 90.5t-81.5 33.5q-53 0 -86 -35.5t-33 -89.5v-293h-112v777z" />
    <glyph glyph-name="i" unicode="i" 
d="M87 740q21 21 50 21t50 -21q21 -20 21 -49t-21 -50q-21 -20 -50 -20t-50 20q-20 21 -20 50t20 49zM193 513v-513h-112v513h112z" />
    <glyph glyph-name="j" unicode="j" 
d="M87 740q21 21 50 21t50 -21q21 -20 21 -49t-21 -50q-21 -20 -50 -20t-50 20q-20 21 -20 50t20 49zM82 513h112v-577q0 -92 -51.5 -144.5t-139.5 -52.5q-24 0 -45 3v98q14 -3 32 -3q42 0 67 25.5t25 70.5v580z" />
    <glyph glyph-name="k" unicode="k" horiz-adv-x="557" 
d="M193 777v-470l199 206h137l-206 -221l227 -292h-142l-164 208l-51 -52v-156h-112v777h112z" />
    <glyph glyph-name="l" unicode="l" 
d="M193 777v-777h-112v777h112z" />
    <glyph glyph-name="m" unicode="m" horiz-adv-x="933" 
d="M665 522q87 0 139 -58q53 -59 53 -153v-311h-113v294q0 58 -28 91t-79 33q-47 0 -76.5 -29t-34.5 -77v-3v-309h-113v294q0 57 -28.5 90.5t-74.5 33.5q-51 0 -84 -35.5t-33 -89.5v-293h-112v513h106v-68q44 77 148 77q112 0 163 -93q52 93 167 93z" />
    <glyph glyph-name="n" unicode="n" horiz-adv-x="613" 
d="M337 522q89 0 144 -58q56 -58 56 -155v-309h-113v294q0 57 -30.5 90.5t-81.5 33.5q-53 0 -86 -35.5t-33 -89.5v-293h-112v513h106v-68q44 77 150 77z" />
    <glyph glyph-name="o" unicode="o" horiz-adv-x="634" 
d="M317 522q117 0 191 -73q76 -73 76 -193t-76 -193q-74 -73 -191 -73t-193 73q-75 73 -75 193t75 193q76 73 193 73zM163 256q0 -77 42.5 -123t111.5 -46t111.5 46t42.5 123q0 78 -42.5 124t-111.5 46t-111.5 -46t-42.5 -124z" />
    <glyph glyph-name="p" unicode="p" horiz-adv-x="652" 
d="M356 522q109 0 178 -73q69 -72 69 -193q0 -120 -69 -194q-69 -72 -178 -72q-54 0 -97.5 19t-65.5 52v-316h-112v768h106v-72q22 37 67 59t102 22zM338 425q-66 0 -105.5 -41.5t-39.5 -114.5v-27q0 -73 39.5 -114.5t105.5 -41.5q68 0 109.5 45.5t41.5 124.5t-41.5 124
t-109.5 45z" />
    <glyph glyph-name="q" unicode="q" horiz-adv-x="652" 
d="M296 522q57 0 102 -22t67 -59v72h106v-768h-112v316q-22 -33 -65.5 -52t-97.5 -19q-109 0 -178 72q-69 74 -69 194q0 121 69 193q69 73 178 73zM314 425q-68 0 -109.5 -45t-41.5 -124t41.5 -124.5t109.5 -45.5q66 0 105.5 41.5t39.5 114.5v27q0 73 -39.5 114.5
t-105.5 41.5z" />
    <glyph glyph-name="r" unicode="r" horiz-adv-x="357" 
d="M336 519v-109q-65 0 -104 -36.5t-39 -94.5v-279h-112v513h109v-72q38 78 146 78z" />
    <glyph glyph-name="s" unicode="s" horiz-adv-x="502" 
d="M246 522q86 0 137.5 -44.5t59.5 -118.5l-112 -6q-7 73 -88 73q-80 0 -80 -57q0 -27 24 -40q23 -9 29 -10l59 -14q95 -24 136 -57t41 -94q0 -77 -53.5 -120.5t-147.5 -43.5q-91 0 -146 43.5t-64 120.5l112 7q9 -74 100 -74q40 0 63.5 15.5t23.5 42.5q0 30 -22 43
q-20 12 -89 29q-45 10 -73 20t-54 25q-51 33 -51 105q0 71 52 113t143 42z" />
    <glyph glyph-name="t" unicode="t" horiz-adv-x="378" 
d="M303 93q15 0 48 5v-100q-37 -6 -75 -6q-81 0 -126 42t-44 124l1 258h-95v97h95l1 174h113l-1 -174h130v-97h-131l-1 -235q0 -88 85 -88z" />
    <glyph glyph-name="u" unicode="u" horiz-adv-x="596" 
d="M515 513v-513h-106v67q-17 -34 -55 -55.5t-90 -21.5q-86 0 -137 56.5t-51 150.5v316h112v-299q0 -57 27 -88t77 -31t80.5 36t30.5 89v293h112z" />
    <glyph glyph-name="v" unicode="v" horiz-adv-x="549" 
d="M541 513l-221 -513h-90l-222 513h123l144 -343l142 343h124z" />
    <glyph glyph-name="w" unicode="w" horiz-adv-x="832" 
d="M824 513l-196 -513h-90l-122 325l-123 -325h-89l-196 513h121l123 -330l124 330h79l125 -330l123 330h121z" />
    <glyph glyph-name="x" unicode="x" horiz-adv-x="532" 
d="M511 513l-163 -252l171 -261h-134l-119 184l-120 -184h-131l166 263l-162 250h133l114 -176l112 176h133z" />
    <glyph glyph-name="y" unicode="y" horiz-adv-x="549" 
d="M538 513l-326 -768h-123l126 291l-203 477h125l138 -351l138 351h125z" />
    <glyph glyph-name="z" unicode="z" horiz-adv-x="451" 
d="M409 513v-75l-245 -347h255v-91h-386v74l246 347h-240v92h370z" />
    <glyph glyph-name="braceleft" unicode="{" 
d="M252 718v-94h-6q-48 0 -63 -34t-1 -113q5 -41 6.5 -73.5t-13.5 -55t-49 -27.5q48 -7 59 -54q10 -45 -3 -103q-13 -79 1.5 -113t62.5 -34h6v-94h-6q-102 0 -150.5 60.5t-24.5 170.5q20 59 10.5 89.5t-54.5 30.5h-8v93h8q45 0 54.5 30.5t-10.5 89.5q-24 110 24.5 170.5
t150.5 60.5h6z" />
    <glyph glyph-name="bar" unicode="|" horiz-adv-x="269" 
d="M190 748v-815h-112v815h112z" />
    <glyph glyph-name="braceright" unicode="}" 
d="M22 624v94h6q103 0 151 -60.5t24 -170.5q-19 -59 -10 -89.5t54 -30.5h8v-93h-8q-45 0 -54 -30.5t10 -89.5q24 -110 -24 -170.5t-151 -60.5h-6v94h6q48 0 62.5 34t1.5 113q-14 60 -4 103q10 47 60 54q-34 5 -49 27.5t-13.5 55t6.5 73.5q14 79 -1 113t-63 34h-6z" />
    <glyph glyph-name="asciitilde" unicode="~" horiz-adv-x="539" 
d="M472 450l51 -74q-67 -88 -155 -88q-46 0 -101 30q-56 30 -88 30q-36 0 -61 -12.5t-51 -43.5l-51 75q68 86 152 86q38 0 94 -30q55 -30 95 -30q38 0 64 13t51 44z" />
    <glyph glyph-name="exclamdown" unicode="&#xa1;" horiz-adv-x="299" 
d="M151 366q-30 0 -51.5 21t-21.5 52q0 29 21.5 50t51.5 21q29 0 50 -21t21 -50q0 -31 -21 -52t-50 -21zM85 -248l6 534h119l6 -534h-131z" />
    <glyph glyph-name="cent" unicode="&#xa2;" horiz-adv-x="584" 
d="M433 189l110 -10q-13 -77 -64 -126t-129 -60v-111h-94v112q-94 15 -150.5 85t-56.5 177q0 108 56 177.5t151 84.5v109h94v-108q78 -12 129.5 -63t62.5 -128l-110 -10q-6 50 -40.5 79t-85.5 29q-65 0 -104 -45.5t-39 -124.5q0 -78 39.5 -123.5t103.5 -45.5q52 0 85.5 27
t41.5 75z" />
    <glyph glyph-name="sterling" unicode="&#xa3;" horiz-adv-x="555" 
d="M177 106h353v-106h-498v97q59 19 82 63.5t16 125.5l-3 32h-99v94h91l-7 88q-11 124 41 191t163 67q97 0 149.5 -51t54.5 -142l-118 -6q0 43 -23 68.5t-65 25.5q-102 0 -91 -132l9 -109h163v-94h-155l3 -34q10 -111 -66 -178z" />
    <glyph glyph-name="currency" unicode="&#xa4;" horiz-adv-x="594" 
d="M480 252q0 -57 -23 -105l115 -115l-71 -70l-115 114q-38 -21 -89 -21q-49 0 -89 22l-115 -115l-71 70l116 116q-24 48 -24 104q0 60 25 104l-117 117l71 71l116 -116q88 46 176 0l116 116l71 -71l-116 -116q24 -48 24 -105zM297 135q40 0 65.5 32t25.5 85q0 54 -25.5 86
t-65.5 32q-42 0 -67 -32t-25 -86t25 -85.5t67 -31.5z" />
    <glyph glyph-name="yen" unicode="&#xa5;" horiz-adv-x="715" 
d="M700 748l-251 -397h106v-70h-138v-80h138v-71h-138v-130h-118v130h-138v71h138v80h-138v70h106l-252 397h138l205 -329l204 329h138z" />
    <glyph glyph-name="brokenbar" unicode="&#xa6;" horiz-adv-x="269" 
d="M190 748v-319h-112v319h112zM190 252v-319h-112v319h112z" />
    <glyph glyph-name="section" unicode="&#xa7;" horiz-adv-x="522" 
d="M416 254q60 -37 60 -116q0 -76 -58 -121t-156 -45q-101 0 -160.5 43.5t-59.5 119.5l112 5q1 -79 109 -79q101 0 101 71q0 33 -25 48t-96 31q-99 21 -149 56q-50 36 -50 106t63 115q-52 36 -52 110q0 73 54.5 116.5t144.5 43.5q95 0 150 -41t56 -113l-112 -4q-2 69 -93 69
q-41 0 -64.5 -17.5t-23.5 -50.5q0 -30 23 -44.5t87 -27.5q105 -22 152 -58.5t47 -103.5q0 -71 -60 -113zM147 378q0 -37 37 -54q27 -11 41 -14q41 -10 60 -13l42 -9q45 32 45 74q0 29 -23 46q-6 6 -30 14q-18 6 -36 10q-4 1 -49 11q-30 6 -41 10q-46 -31 -46 -75z" />
    <glyph glyph-name="dieresis" unicode="&#xa8;" horiz-adv-x="328" 
d="M80 743q26 0 45 -18.5t19 -44.5q0 -27 -18.5 -45t-45.5 -18t-45.5 18t-18.5 45q0 26 18.5 44.5t45.5 18.5zM248 743q27 0 45.5 -18.5t18.5 -44.5q0 -27 -18.5 -45t-45.5 -18t-45.5 18t-18.5 45q0 26 19 44.5t45 18.5z" />
    <glyph glyph-name="copyright" unicode="&#xa9;" horiz-adv-x="588" 
d="M295 760q112 0 188 -73t76 -181t-76 -181t-188 -73q-114 0 -190 73t-76 181t76 181t190 73zM294 720q-97 0 -158 -61q-62 -60 -62 -153q0 -92 62 -154q61 -60 158 -60q96 0 157 60q63 62 63 154t-63 153q-61 61 -157 61zM295 663q56 0 95 -31t46 -83l-64 -4
q-5 30 -26 46.5t-52 16.5q-38 0 -62 -27.5t-24 -73.5t24.5 -73.5t62.5 -27.5q30 0 51 16t26 44l65 -4q-9 -51 -47.5 -81.5t-93.5 -30.5q-67 0 -109.5 43t-42.5 114t42 113.5t109 42.5z" />
    <glyph glyph-name="ordfeminine" unicode="&#xaa;" horiz-adv-x="448" 
d="M221 756q169 0 169 -163v-256h-95v40q-39 -48 -122 -48q-64 0 -100 31t-36 88q0 116 171 127l81 5v20q0 33 -17.5 51.5t-50.5 18.5q-34 0 -54 -18.5t-20 -46.5l-99 3q0 58 47 103q48 45 126 45zM290 495v16l-74 -5q-77 -5 -77 -53q0 -45 56 -47q40 -1 67.5 22.5
t27.5 66.5z" />
    <glyph glyph-name="guillemotleft" unicode="&#xab;" horiz-adv-x="553" 
d="M187 482l89 -56l-135 -170l135 -171l-89 -56l-172 227zM445 482l89 -56l-135 -170l135 -171l-89 -56l-172 227z" />
    <glyph glyph-name="logicalnot" unicode="&#xac;" horiz-adv-x="576" 
d="M534 430v-273h-88v185h-410v88h498z" />
    <glyph glyph-name="registered" unicode="&#xae;" horiz-adv-x="588" 
d="M295 760q112 0 188 -73t76 -181t-76 -181t-188 -73q-114 0 -190 73t-76 181t76 181t190 73zM294 292q96 0 157 60q63 62 63 154t-63 153q-61 61 -157 61q-97 0 -158 -61q-62 -60 -62 -153q0 -92 62 -154q61 -60 158 -60zM410 563q0 -63 -47 -86l62 -124h-69l-56 113h-55
v-113h-62v306h131q43 0 69.5 -26t26.5 -70zM245 608v-91h52q49 0 49 46q0 45 -49 45h-52z" />
    <glyph glyph-name="overscore" unicode="&#xaf;" horiz-adv-x="304" 
d="M291 715v-87h-279v87h279z" />
    <glyph glyph-name="degree" unicode="&#xb0;" horiz-adv-x="360" 
d="M180 757q69 0 110.5 -38.5t41.5 -105.5v-22q0 -66 -41.5 -105t-110.5 -39t-110 39t-41 105v22q0 68 40.5 106t110.5 38zM106 609v-14q0 -37 20 -58t54 -21t54 21t20 58v14q0 37 -20 58t-54 21t-54 -20.5t-20 -58.5z" />
    <glyph glyph-name="plusminus" unicode="&#xb1;" horiz-adv-x="547" 
d="M328 714v-188h187v-102h-187v-192h-109v192h-187v102h187v188h109zM515 174v-105h-483v105h483z" />
    <glyph glyph-name="acute" unicode="&#xb4;" horiz-adv-x="250" 
d="M236 787l-134 -191h-88l95 191h127z" />
    <glyph glyph-name="paragraph" unicode="&#xb6;" horiz-adv-x="686" 
d="M667 748v-84h-69v-731h-88v731h-115v-731h-87v441h-59q-97 0 -153 49t-56 139q0 89 56 137.5t153 48.5h418z" />
    <glyph glyph-name="middot" unicode="&#xb7;" horiz-adv-x="240" 
d="M113 380q30 0 51.5 -21t21.5 -52q0 -29 -21.5 -50t-51.5 -21q-29 0 -50 21t-21 50q0 31 21 52t50 21z" />
    <glyph glyph-name="cedilla" unicode="&#xb8;" 
d="M98 10h58l-12 -50q50 -6 79 -31.5t29 -67.5q0 -52 -38 -80.5t-97 -28.5q-56 0 -95 19l19 68q26 -17 66 -17q61 0 61 40q0 42 -68 42q-17 0 -34 -4z" />
    <glyph glyph-name="ordmasculine" unicode="&#xba;" horiz-adv-x="509" 
d="M99 697q62 59 155 59t155 -59q61 -58 61 -155t-61 -155t-155 -58t-155 58t-61 155t61 155zM254 670q-51 0 -82.5 -34.5t-31.5 -93.5t31 -93t83 -34t84 34.5t32 92.5q0 59 -32 93.5t-84 34.5z" />
    <glyph glyph-name="guillemotright" unicode="&#xbb;" horiz-adv-x="553" 
d="M108 482l172 -226l-172 -227l-89 56l135 171l-135 170zM365 482l172 -226l-172 -227l-89 56l135 171l-135 170z" />
    <glyph glyph-name="onequarter" unicode="&#xbc;" horiz-adv-x="711" 
d="M662 748l-518 -748h-115l518 748h115zM187 733v-411h-87v297l-60 -45l-37 70l129 89h55zM638 411v-255h55v-78h-55v-78h-87v78h-172v68l176 265h83zM552 293l-96 -137h96v137z" />
    <glyph glyph-name="onehalf" unicode="&#xbd;" horiz-adv-x="751" 
d="M662 748l-518 -748h-115l518 748h115zM187 733v-411h-87v297l-60 -45l-37 70l129 89h55zM591 417q64 0 98 -34.5t34 -93.5q0 -69 -69 -146l-62 -66h134v-77h-264v60l129 137q45 47 45 93q0 50 -43 50q-48 0 -48 -56l-85 5q1 60 36 94t95 34z" />
    <glyph glyph-name="threequarters" unicode="&#xbe;" horiz-adv-x="796" 
d="M747 748l-518 -748h-115l518 748h115zM160 738q61 0 95 -31.5t34 -87.5q0 -60 -52 -85q27 -9 43 -33.5t16 -58.5q0 -59 -37.5 -93t-98.5 -34q-63 0 -98.5 33.5t-37.5 91.5l87 6q5 -53 49 -53q23 0 36 13.5t13 37.5q0 50 -54 50h-42v74h41q22 0 36 13t14 34q0 22 -12 34
t-32 12q-43 0 -45 -50l-85 5q1 58 34.5 90t95.5 32zM723 411v-255h55v-78h-55v-78h-87v78h-172v68l176 265h83zM637 293l-96 -137h96v137z" />
    <glyph glyph-name="questiondown" unicode="&#xbf;" horiz-adv-x="516" 
d="M261 379q-30 0 -51.5 21t-21.5 52q0 29 21.5 50t51.5 21q29 0 50 -21t21 -50q0 -31 -21 -52t-50 -21zM257 -246q-111 0 -175 61q-64 60 -64 159q0 56 24 93t79 79q44 33 61.5 60t17.5 64v29h119v-34q0 -46 -22.5 -82t-73.5 -77q-45 -35 -64 -63.5t-19 -66.5
q0 -54 31.5 -85.5t85.5 -31.5t86 30.5t37 85.5l119 -8q-5 -98 -71 -155q-64 -58 -171 -58z" />
    <glyph glyph-name="Agrave" unicode="&#xc0;" horiz-adv-x="759" 
d="M288 942l139 -147h-104l-190 147h155zM429 748l317 -748h-131l-69 167h-334l-70 -167h-130l316 748h101zM380 564l-122 -291h243z" />
    <glyph glyph-name="Aacute" unicode="&#xc1;" horiz-adv-x="759" 
d="M621 942l-190 -147h-104l139 147h155zM429 748l317 -748h-131l-69 167h-334l-70 -167h-130l316 748h101zM380 564l-122 -291h243z" />
    <glyph glyph-name="Acircumflex" unicode="&#xc2;" horiz-adv-x="759" 
d="M434 945l118 -150h-96l-76 84l-77 -84h-95l118 150h108zM429 748l317 -748h-131l-69 167h-334l-70 -167h-130l316 748h101zM380 564l-122 -291h243z" />
    <glyph glyph-name="Atilde" unicode="&#xc3;" horiz-adv-x="759" 
d="M306 946q33 0 74 -29t61 -29q45 0 46 51h64q4 -55 -24 -95q-27 -40 -74 -40q-34 0 -74 28q-41 29 -61 29q-45 0 -45 -50h-65q-4 54 23 95q28 40 75 40zM429 748l317 -748h-131l-69 167h-334l-70 -167h-130l316 748h101zM380 564l-122 -291h243z" />
    <glyph glyph-name="Adieresis" unicode="&#xc4;" horiz-adv-x="759" 
d="M297 936q26 0 45 -18.5t19 -44.5q0 -27 -19 -45.5t-45 -18.5q-27 0 -45.5 18.5t-18.5 45.5q0 26 18.5 44.5t45.5 18.5zM465 936q27 0 45.5 -18.5t18.5 -44.5q0 -27 -18.5 -45.5t-45.5 -18.5q-26 0 -45 18.5t-19 45.5q0 26 19 44.5t45 18.5zM429 748l317 -748h-131
l-69 167h-334l-70 -167h-130l316 748h101zM380 564l-122 -291h243z" />
    <glyph glyph-name="Aring" unicode="&#xc5;" horiz-adv-x="759" 
d="M380 997q45 0 76 -29t31 -73t-31 -73t-76 -29q-46 0 -77.5 29t-31.5 73t31.5 73t77.5 29zM380 940q-34 3 -43 -29q-10 -32 11 -51q13 -12 32 -10q20 0 32.5 13t12.5 32q0 20 -12.5 32.5t-32.5 12.5zM429 748l317 -748h-131l-69 167h-334l-70 -167h-130l316 748h101z
M380 564l-122 -291h243z" />
    <glyph glyph-name="AE" unicode="&#xc6;" horiz-adv-x="1034" 
d="M992 643h-351v-206h307v-103h-307v-228h351v-106h-470v167h-259l-111 -167h-145l501 748h484v-105zM333 273h189v286z" />
    <glyph glyph-name="Ccedilla" unicode="&#xc7;" horiz-adv-x="816" 
d="M649 274l125 -11q-21 -121 -109 -194q-89 -72 -215 -78l-9 -36q50 -6 79 -31t29 -68q0 -52 -38 -80.5t-97 -28.5q-56 0 -95 19l19 68q26 -17 66 -17q61 0 61 40q0 42 -68 42q-17 0 -34 -4l28 96q-150 12 -245 114q-93 102 -93 269q0 177 104 281q103 103 269 103
q137 0 232 -76q97 -76 115 -204l-124 -11q-15 87 -75.5 136t-151.5 49q-112 0 -180 -75q-68 -76 -68 -203q0 -132 70 -205t179 -73q90 0 150 47t76 131z" />
    <glyph glyph-name="Egrave" unicode="&#xc8;" horiz-adv-x="597" 
d="M231 942l139 -147h-104l-190 147h155zM554 748v-105h-351v-206h307v-103h-307v-228h351v-106h-470v748h470z" />
    <glyph glyph-name="Eacute" unicode="&#xc9;" horiz-adv-x="597" 
d="M564 942l-190 -147h-104l139 147h155zM554 748v-105h-351v-206h307v-103h-307v-228h351v-106h-470v748h470z" />
    <glyph glyph-name="Ecircumflex" unicode="&#xca;" horiz-adv-x="597" 
d="M377 945l118 -150h-96l-76 84l-77 -84h-95l118 150h108zM554 748v-105h-351v-206h307v-103h-307v-228h351v-106h-470v748h470z" />
    <glyph glyph-name="Edieresis" unicode="&#xcb;" horiz-adv-x="597" 
d="M240 936q26 0 45 -18.5t19 -44.5q0 -27 -19 -45.5t-45 -18.5q-27 0 -45.5 18.5t-18.5 45.5q0 26 18.5 44.5t45.5 18.5zM408 936q27 0 45.5 -18.5t18.5 -44.5q0 -27 -18.5 -45.5t-45.5 -18.5q-26 0 -45 18.5t-19 45.5q0 26 19 44.5t45 18.5zM554 748v-105h-351v-206h307
v-103h-307v-228h351v-106h-470v748h470z" />
    <glyph glyph-name="Igrave" unicode="&#xcc;" horiz-adv-x="286" 
d="M55 942l139 -147h-104l-190 147h155zM203 748v-748h-119v748h119z" />
    <glyph glyph-name="Iacute" unicode="&#xcd;" horiz-adv-x="286" 
d="M388 942l-190 -147h-104l139 147h155zM203 748v-748h-119v748h119z" />
    <glyph glyph-name="Icircumflex" unicode="&#xce;" horiz-adv-x="286" 
d="M201 945l118 -150h-96l-76 84l-77 -84h-95l118 150h108zM203 748v-748h-119v748h119z" />
    <glyph glyph-name="Idieresis" unicode="&#xcf;" horiz-adv-x="286" 
d="M64 936q26 0 45 -18.5t19 -44.5q0 -27 -19 -45.5t-45 -18.5q-27 0 -45.5 18.5t-18.5 45.5q0 26 18.5 44.5t45.5 18.5zM232 936q27 0 45.5 -18.5t18.5 -44.5q0 -27 -18.5 -45.5t-45.5 -18.5q-26 0 -45 18.5t-19 45.5q0 26 19 44.5t45 18.5zM203 748v-748h-119v748h119z
" />
    <glyph glyph-name="Eth" unicode="&#xd0;" horiz-adv-x="799" 
d="M103 419v329h299q160 0 263 -101q102 -101 102 -273q0 -174 -103 -274t-264 -100h-297v328h-98v91h98zM221 328v-226h180q114 0 180.5 71.5t66.5 200.5t-66.5 200.5t-179.5 71.5h-181v-227h132v-91h-132z" />
    <glyph glyph-name="Ntilde" unicode="&#xd1;" horiz-adv-x="756" 
d="M300 946q33 0 74 -29t61 -29q45 0 46 51h64q4 -55 -24 -95q-27 -40 -74 -40q-34 0 -74 28q-41 29 -61 29q-45 0 -45 -50h-65q-4 54 23 95q28 40 75 40zM673 748v-748h-101l-369 528v-528h-119v748h100l370 -529v529h119z" />
    <glyph glyph-name="Ograve" unicode="&#xd2;" horiz-adv-x="870" 
d="M336 942l139 -147h-104l-190 147h155zM435 758q167 0 273 -105q108 -103 108 -279q0 -175 -108 -280q-107 -104 -273 -104t-275 104q-107 105 -107 280t107 279q108 105 275 105zM435 652q-114 0 -188 -75q-73 -73 -73 -203q0 -129 73 -203q74 -75 188 -75q113 0 187 75
q73 74 73 203q0 130 -73 203q-74 75 -187 75z" />
    <glyph glyph-name="Oacute" unicode="&#xd3;" horiz-adv-x="870" 
d="M669 942l-190 -147h-104l139 147h155zM435 758q167 0 273 -105q108 -103 108 -279q0 -175 -108 -280q-107 -104 -273 -104t-275 104q-107 105 -107 280t107 279q108 105 275 105zM435 652q-114 0 -188 -75q-73 -73 -73 -203q0 -129 73 -203q74 -75 188 -75q113 0 187 75
q73 74 73 203q0 130 -73 203q-74 75 -187 75z" />
    <glyph glyph-name="Ocircumflex" unicode="&#xd4;" horiz-adv-x="870" 
d="M482 945l118 -150h-96l-76 84l-77 -84h-95l118 150h108zM435 758q167 0 273 -105q108 -103 108 -279q0 -175 -108 -280q-107 -104 -273 -104t-275 104q-107 105 -107 280t107 279q108 105 275 105zM435 652q-114 0 -188 -75q-73 -73 -73 -203q0 -129 73 -203
q74 -75 188 -75q113 0 187 75q73 74 73 203q0 130 -73 203q-74 75 -187 75z" />
    <glyph glyph-name="Otilde" unicode="&#xd5;" horiz-adv-x="870" 
d="M354 946q33 0 74 -29t61 -29q45 0 46 51h64q4 -55 -24 -95q-27 -40 -74 -40q-34 0 -74 28q-41 29 -61 29q-45 0 -45 -50h-65q-4 54 23 95q28 40 75 40zM435 758q167 0 273 -105q108 -103 108 -279q0 -175 -108 -280q-107 -104 -273 -104t-275 104q-107 105 -107 280
t107 279q108 105 275 105zM435 652q-114 0 -188 -75q-73 -73 -73 -203q0 -129 73 -203q74 -75 188 -75q113 0 187 75q73 74 73 203q0 130 -73 203q-74 75 -187 75z" />
    <glyph glyph-name="Odieresis" unicode="&#xd6;" horiz-adv-x="870" 
d="M345 936q26 0 45 -18.5t19 -44.5q0 -27 -19 -45.5t-45 -18.5q-27 0 -45.5 18.5t-18.5 45.5q0 26 18.5 44.5t45.5 18.5zM513 936q27 0 45.5 -18.5t18.5 -44.5q0 -27 -18.5 -45.5t-45.5 -18.5q-26 0 -45 18.5t-19 45.5q0 26 19 44.5t45 18.5zM435 758q167 0 273 -105
q108 -103 108 -279q0 -175 -108 -280q-107 -104 -273 -104t-275 104q-107 105 -107 280t107 279q108 105 275 105zM435 652q-114 0 -188 -75q-73 -73 -73 -203q0 -129 73 -203q74 -75 188 -75q113 0 187 75q73 74 73 203q0 130 -73 203q-74 75 -187 75z" />
    <glyph glyph-name="multiply" unicode="&#xd7;" horiz-adv-x="535" 
d="M411 588l75 -75l-144 -143l145 -145l-74 -75l-146 145l-146 -146l-74 75l146 146l-145 145l74 75l145 -146z" />
    <glyph glyph-name="Oslash" unicode="&#xd8;" horiz-adv-x="856" 
d="M689 791l73 -55l-59 -77q113 -108 113 -285q0 -175 -108 -280q-107 -104 -273 -104q-116 0 -205 52l-63 -83l-73 55l64 83q-105 107 -105 277q0 175 107 279q108 105 275 105q108 0 194 -46zM174 374q0 -110 56 -183l331 432q-56 29 -126 29q-114 0 -188 -75
q-73 -73 -73 -203zM435 96q113 0 187 75q73 74 73 203q0 116 -63 192l-334 -435q59 -35 137 -35z" />
    <glyph glyph-name="Ugrave" unicode="&#xd9;" horiz-adv-x="770" 
d="M293 942l139 -147h-104l-190 147h155zM573 748h119v-457q0 -143 -81.5 -222t-225.5 -79t-225.5 79t-81.5 222v457h119v-455q0 -96 48.5 -146.5t139.5 -50.5q90 0 139 50.5t49 146.5v455z" />
    <glyph glyph-name="Uacute" unicode="&#xda;" horiz-adv-x="770" 
d="M626 942l-190 -147h-104l139 147h155zM573 748h119v-457q0 -143 -81.5 -222t-225.5 -79t-225.5 79t-81.5 222v457h119v-455q0 -96 48.5 -146.5t139.5 -50.5q90 0 139 50.5t49 146.5v455z" />
    <glyph glyph-name="Ucircumflex" unicode="&#xdb;" horiz-adv-x="770" 
d="M439 945l118 -150h-96l-76 84l-77 -84h-95l118 150h108zM573 748h119v-457q0 -143 -81.5 -222t-225.5 -79t-225.5 79t-81.5 222v457h119v-455q0 -96 48.5 -146.5t139.5 -50.5q90 0 139 50.5t49 146.5v455z" />
    <glyph glyph-name="Udieresis" unicode="&#xdc;" horiz-adv-x="770" 
d="M302 936q26 0 45 -18.5t19 -44.5q0 -27 -19 -45.5t-45 -18.5q-27 0 -45.5 18.5t-18.5 45.5q0 26 18.5 44.5t45.5 18.5zM470 936q27 0 45.5 -18.5t18.5 -44.5q0 -27 -18.5 -45.5t-45.5 -18.5q-26 0 -45 18.5t-19 45.5q0 26 19 44.5t45 18.5zM573 748h119v-457
q0 -143 -81.5 -222t-225.5 -79t-225.5 79t-81.5 222v457h119v-455q0 -96 48.5 -146.5t139.5 -50.5q90 0 139 50.5t49 146.5v455z" />
    <glyph glyph-name="Yacute" unicode="&#xdd;" horiz-adv-x="715" 
d="M599 942l-190 -147h-104l139 147h155zM700 748l-283 -447v-301h-118v301l-284 447h138l205 -329l204 329h138z" />
    <glyph glyph-name="Thorn" unicode="&#xde;" horiz-adv-x="644" 
d="M203 748v-100h173q105 0 169 -61q66 -62 66 -170q0 -109 -66 -171q-64 -61 -169 -61h-173v-185h-119v748h119zM361 542h-159v-251h159q57 0 92.5 33.5t35.5 92.5t-35 92t-93 33z" />
    <glyph glyph-name="germandbls" unicode="&#xdf;" horiz-adv-x="645" 
d="M301 785q101 0 161 -46t60 -121q0 -64 -45 -103q-44 -42 -44 -76q0 -33 58 -77q30 -21 50.5 -40t39 -56.5t18.5 -82.5q0 -90 -62 -141q-62 -50 -160 -50q-59 0 -104 18l22 90q39 -14 72 -14q53 0 85.5 29t32.5 78q0 32 -17 59t-41.5 45.5l-49 37t-41.5 44.5t-17 58
q0 58 44 92q45 33 45 69q0 43 -27.5 67t-77.5 24q-51 0 -81.5 -29.5t-30.5 -80.5v-579h-112v582q0 92 61 147q62 56 161 56z" />
    <glyph glyph-name="agrave" unicode="&#xe0;" horiz-adv-x="548" 
d="M225 787l94 -191h-88l-134 191h128zM267 522q99 0 152 -52.5t53 -150.5v-319h-113v46q-59 -56 -139 -56q-79 0 -125 39.5t-46 110.5q0 144 188 155l122 7v15q0 107 -91 107q-44 0 -68 -24.5t-24 -62.5l-113 4q0 72 56 126q55 55 148 55zM360 197v18l-107 -7
q-91 -4 -91 -66q0 -58 77 -58q57 0 89 29t32 84z" />
    <glyph glyph-name="aacute" unicode="&#xe1;" horiz-adv-x="548" 
d="M454 787l-134 -191h-88l95 191h127zM267 522q99 0 152 -52.5t53 -150.5v-319h-113v46q-59 -56 -139 -56q-79 0 -125 39.5t-46 110.5q0 144 188 155l122 7v15q0 107 -91 107q-44 0 -68 -24.5t-24 -62.5l-113 4q0 72 56 126q55 55 148 55zM360 197v18l-107 -7
q-91 -4 -91 -66q0 -58 77 -58q57 0 89 29t32 84z" />
    <glyph glyph-name="acircumflex" unicode="&#xe2;" horiz-adv-x="548" 
d="M332 770l119 -173h-95l-78 98l-77 -98h-95l118 173h108zM267 522q99 0 152 -52.5t53 -150.5v-319h-113v46q-59 -56 -139 -56q-79 0 -125 39.5t-46 110.5q0 144 188 155l122 7v15q0 107 -91 107q-44 0 -68 -24.5t-24 -62.5l-113 4q0 72 56 126q55 55 148 55zM360 197v18
l-107 -7q-91 -4 -91 -66q0 -58 77 -58q57 0 89 29t32 84z" />
    <glyph glyph-name="atilde" unicode="&#xe3;" horiz-adv-x="548" 
d="M203 747q33 0 74 -29t61 -29q44 0 46 51h64q4 -56 -24 -96q-27 -40 -74 -40q-33 0 -74 29t-61 29q-45 0 -45 -51h-65q-4 55 23 96q28 40 75 40zM267 522q99 0 152 -52.5t53 -150.5v-319h-113v46q-59 -56 -139 -56q-79 0 -125 39.5t-46 110.5q0 144 188 155l122 7v15
q0 107 -91 107q-44 0 -68 -24.5t-24 -62.5l-113 4q0 72 56 126q55 55 148 55zM360 197v18l-107 -7q-91 -4 -91 -66q0 -58 77 -58q57 0 89 29t32 84z" />
    <glyph glyph-name="adieresis" unicode="&#xe4;" horiz-adv-x="548" 
d="M192 743q26 0 45 -18.5t19 -44.5q0 -27 -18.5 -45t-45.5 -18t-45.5 18t-18.5 45q0 26 18.5 44.5t45.5 18.5zM360 743q27 0 45.5 -18.5t18.5 -44.5q0 -27 -18.5 -45t-45.5 -18t-45.5 18t-18.5 45q0 26 19 44.5t45 18.5zM267 522q99 0 152 -52.5t53 -150.5v-319h-113v46
q-59 -56 -139 -56q-79 0 -125 39.5t-46 110.5q0 144 188 155l122 7v15q0 107 -91 107q-44 0 -68 -24.5t-24 -62.5l-113 4q0 72 56 126q55 55 148 55zM360 197v18l-107 -7q-91 -4 -91 -66q0 -58 77 -58q57 0 89 29t32 84z" />
    <glyph glyph-name="aring" unicode="&#xe5;" horiz-adv-x="548" 
d="M278 809q51 0 86 -32.5t35 -80.5q0 -49 -35 -81.5t-86 -32.5t-86.5 33t-35.5 81q0 49 35 81t87 32zM278 744q-23 0 -37 -13.5t-14 -34.5q0 -22 14 -35t37 -13q22 0 36 13t14 35q0 21 -14 34.5t-36 13.5zM267 522q99 0 152 -52.5t53 -150.5v-319h-113v46q-59 -56 -139 -56
q-79 0 -125 39.5t-46 110.5q0 144 188 155l122 7v15q0 107 -91 107q-44 0 -68 -24.5t-24 -62.5l-113 4q0 72 56 126q55 55 148 55zM360 197v18l-107 -7q-91 -4 -91 -66q0 -58 77 -58q57 0 89 29t32 84z" />
    <glyph glyph-name="ae" unicode="&#xe6;" horiz-adv-x="906" 
d="M857 269v-55h-377q4 -58 41 -92.5t96 -34.5q100 0 122 73l113 -6q-15 -70 -80 -117t-152 -47q-130 0 -202 89q-69 -89 -193 -89q-81 0 -128.5 40.5t-47.5 111.5q0 142 188 153l122 7v15q0 109 -91 109q-44 0 -68 -24.5t-24 -64.5l-113 4q0 72 56 126q55 55 148 55
q111 0 162 -74q71 74 188 74q110 0 175 -68t65 -185zM616 426q-58 0 -94.5 -33t-40.5 -91h263q-2 58 -35 91t-93 33zM360 197v18l-107 -7q-91 -4 -91 -64q0 -57 77 -57q55 0 88 27t33 83z" />
    <glyph glyph-name="ccedilla" unicode="&#xe7;" horiz-adv-x="584" 
d="M433 189l110 -10q-14 -82 -72 -132.5t-144 -55.5l-8 -35q49 -6 78.5 -31.5t29.5 -67.5q0 -52 -38 -80.5t-97 -28.5q-56 0 -95 19l19 68q26 -17 66 -17q61 0 61 40q0 42 -68 42q-17 0 -34 -4l28 96q-100 12 -160 82t-60 182q0 124 71 195q73 71 186 71q94 0 158.5 -52.5
t77.5 -141.5l-110 -10q-6 50 -40.5 79t-85.5 29q-65 0 -104 -45.5t-39 -124.5q0 -78 39.5 -123.5t103.5 -45.5q52 0 85.5 27t41.5 75z" />
    <glyph glyph-name="egrave" unicode="&#xe8;" horiz-adv-x="594" 
d="M344 596h-88l-134 191h128zM545 269v-55h-377q4 -58 41 -92.5t96 -34.5q100 0 122 73l113 -6q-15 -70 -80 -117t-152 -47q-114 0 -187 71q-72 72 -72 195t71 194q70 72 185 72q110 0 175 -68t65 -185zM304 426q-58 0 -94.5 -33t-40.5 -91h263q-2 58 -35 91t-93 33z" />
    <glyph glyph-name="eacute" unicode="&#xe9;" horiz-adv-x="594" 
d="M479 787l-134 -191h-88l95 191h127zM545 269v-55h-377q4 -58 41 -92.5t96 -34.5q100 0 122 73l113 -6q-15 -70 -80 -117t-152 -47q-114 0 -187 71q-72 72 -72 195t71 194q70 72 185 72q110 0 175 -68t65 -185zM304 426q-58 0 -94.5 -33t-40.5 -91h263q-2 58 -35 91
t-93 33z" />
    <glyph glyph-name="ecircumflex" unicode="&#xea;" horiz-adv-x="594" 
d="M303 695l-77 -98h-95l118 173h108l119 -173h-95zM545 269v-55h-377q4 -58 41 -92.5t96 -34.5q100 0 122 73l113 -6q-15 -70 -80 -117t-152 -47q-114 0 -187 71q-72 72 -72 195t71 194q70 72 185 72q110 0 175 -68t65 -185zM304 426q-58 0 -94.5 -33t-40.5 -91h263
q-2 58 -35 91t-93 33z" />
    <glyph glyph-name="edieresis" unicode="&#xeb;" horiz-adv-x="594" 
d="M153 680q0 26 18.5 44.5t45.5 18.5q26 0 45 -18.5t19 -44.5q0 -27 -18.5 -45t-45.5 -18t-45.5 18t-18.5 45zM321 680q0 26 19 44.5t45 18.5q27 0 45.5 -18.5t18.5 -44.5q0 -27 -18.5 -45t-45.5 -18t-45.5 18t-18.5 45zM545 269v-55h-377q4 -58 41 -92.5t96 -34.5
q100 0 122 73l113 -6q-15 -70 -80 -117t-152 -47q-114 0 -187 71q-72 72 -72 195t71 194q70 72 185 72q110 0 175 -68t65 -185zM304 426q-58 0 -94.5 -33t-40.5 -91h263q-2 58 -35 91t-93 33z" />
    <glyph glyph-name="igrave" unicode="&#xec;" 
d="M87 787l94 -191h-88l-134 191h128zM193 513v-513h-112v513h112z" />
    <glyph glyph-name="iacute" unicode="&#xed;" 
d="M316 787l-134 -191h-88l95 191h127zM193 513v-513h-112v513h112z" />
    <glyph glyph-name="icircumflex" unicode="&#xee;" 
d="M194 770l119 -173h-95l-78 98l-77 -98h-95l118 173h108zM193 513v-513h-112v513h112z" />
    <glyph glyph-name="idieresis" unicode="&#xef;" 
d="M54 743q26 0 45 -18.5t19 -44.5q0 -27 -18.5 -45t-45.5 -18t-45.5 18t-18.5 45q0 26 18.5 44.5t45.5 18.5zM222 743q27 0 45.5 -18.5t18.5 -44.5q0 -27 -18.5 -45t-45.5 -18t-45.5 18t-18.5 45q0 26 19 44.5t45 18.5zM193 513v-513h-112v513h112z" />
    <glyph glyph-name="eth" unicode="&#xf0;" horiz-adv-x="606" 
d="M436 797l52 -49l-82 -70q145 -136 145 -416q0 -131 -70 -201q-71 -71 -184 -71q-105 0 -177 66q-71 68 -71 181q0 112 71 180q73 68 176 68q62 0 122 -29q-27 104 -87 158l-83 -71l-51 51l72 61q-57 26 -139 29v93q125 0 217 -55zM301 387q-64 0 -103 -41t-39 -109
t39.5 -109t102.5 -41t101.5 41t38.5 110t-38 109t-102 40z" />
    <glyph glyph-name="ntilde" unicode="&#xf1;" horiz-adv-x="613" 
d="M242 747q33 0 74 -29t61 -29q45 0 46 51h64q5 -56 -24 -96q-27 -40 -74 -40q-33 0 -74 29t-61 29q-45 0 -45 -51h-65q-4 55 23 96q28 40 75 40zM337 522q89 0 144 -58q56 -58 56 -155v-309h-113v294q0 57 -30.5 90.5t-81.5 33.5q-53 0 -86 -35.5t-33 -89.5v-293h-112v513
h106v-68q44 77 150 77z" />
    <glyph glyph-name="ograve" unicode="&#xf2;" horiz-adv-x="634" 
d="M263 787l94 -191h-88l-134 191h128zM317 522q117 0 191 -73q76 -73 76 -193t-76 -193q-74 -73 -191 -73t-193 73q-75 73 -75 193t75 193q76 73 193 73zM163 256q0 -77 42.5 -123t111.5 -46t111.5 46t42.5 123q0 78 -42.5 124t-111.5 46t-111.5 -46t-42.5 -124z" />
    <glyph glyph-name="oacute" unicode="&#xf3;" horiz-adv-x="634" 
d="M492 787l-134 -191h-88l95 191h127zM317 522q117 0 191 -73q76 -73 76 -193t-76 -193q-74 -73 -191 -73t-193 73q-75 73 -75 193t75 193q76 73 193 73zM163 256q0 -77 42.5 -123t111.5 -46t111.5 46t42.5 123q0 78 -42.5 124t-111.5 46t-111.5 -46t-42.5 -124z" />
    <glyph glyph-name="ocircumflex" unicode="&#xf4;" horiz-adv-x="634" 
d="M370 770l119 -173h-95l-78 98l-77 -98h-95l118 173h108zM317 522q117 0 191 -73q76 -73 76 -193t-76 -193q-74 -73 -191 -73t-193 73q-75 73 -75 193t75 193q76 73 193 73zM163 256q0 -77 42.5 -123t111.5 -46t111.5 46t42.5 123q0 78 -42.5 124t-111.5 46t-111.5 -46
t-42.5 -124z" />
    <glyph glyph-name="otilde" unicode="&#xf5;" horiz-adv-x="634" 
d="M241 747q33 0 74 -29t61 -29q44 0 46 51h64q4 -56 -24 -96q-27 -40 -74 -40q-33 0 -74 29t-61 29q-45 0 -45 -51h-65q-4 55 23 96q28 40 75 40zM317 522q117 0 191 -73q76 -73 76 -193t-76 -193q-74 -73 -191 -73t-193 73q-75 73 -75 193t75 193q76 73 193 73zM163 256
q0 -77 42.5 -123t111.5 -46t111.5 46t42.5 123q0 78 -42.5 124t-111.5 46t-111.5 -46t-42.5 -124z" />
    <glyph glyph-name="odieresis" unicode="&#xf6;" horiz-adv-x="634" 
d="M230 743q26 0 45 -18.5t19 -44.5q0 -27 -18.5 -45t-45.5 -18t-45.5 18t-18.5 45q0 26 18.5 44.5t45.5 18.5zM398 743q27 0 45.5 -18.5t18.5 -44.5q0 -27 -18.5 -45t-45.5 -18t-45.5 18t-18.5 45q0 26 19 44.5t45 18.5zM317 522q117 0 191 -73q76 -73 76 -193t-76 -193
q-74 -73 -191 -73t-193 73q-75 73 -75 193t75 193q76 73 193 73zM163 256q0 -77 42.5 -123t111.5 -46t111.5 46t42.5 123q0 78 -42.5 124t-111.5 46t-111.5 -46t-42.5 -124z" />
    <glyph glyph-name="divide" unicode="&#xf7;" horiz-adv-x="547" 
d="M273 668q30 0 51.5 -21t21.5 -51t-21.5 -50.5t-51.5 -20.5q-29 0 -50 20.5t-21 50.5t21 51t50 21zM515 424v-106h-483v106h483zM273 217q30 0 51.5 -21t21.5 -51q0 -29 -21.5 -50.5t-51.5 -21.5q-29 0 -50 21.5t-21 50.5q0 30 21 51t50 21z" />
    <glyph glyph-name="oslash" unicode="&#xf8;" horiz-adv-x="634" 
d="M487 543l62 -46l-38 -50q73 -73 73 -191q0 -120 -76 -193q-74 -73 -191 -73q-69 0 -129 29l-44 -58l-62 46l43 56q-76 73 -76 193t75 193q76 73 193 73q74 0 131 -30zM163 256q0 -62 28 -105l196 260q-32 15 -70 15q-69 0 -111.5 -46t-42.5 -124zM317 87q69 0 111.5 46
t42.5 123q0 62 -26 103l-195 -258q33 -14 67 -14z" />
    <glyph glyph-name="ugrave" unicode="&#xf9;" horiz-adv-x="596" 
d="M247 787l94 -191h-88l-134 191h128zM515 513v-513h-106v67q-17 -34 -55 -55.5t-90 -21.5q-86 0 -137 56.5t-51 150.5v316h112v-299q0 -57 27 -88t77 -31t80.5 36t30.5 89v293h112z" />
    <glyph glyph-name="uacute" unicode="&#xfa;" horiz-adv-x="596" 
d="M476 787l-134 -191h-88l95 191h127zM515 513v-513h-106v67q-17 -34 -55 -55.5t-90 -21.5q-86 0 -137 56.5t-51 150.5v316h112v-299q0 -57 27 -88t77 -31t80.5 36t30.5 89v293h112z" />
    <glyph glyph-name="ucircumflex" unicode="&#xfb;" horiz-adv-x="596" 
d="M354 770l119 -173h-95l-78 98l-77 -98h-95l118 173h108zM515 513v-513h-106v67q-17 -34 -55 -55.5t-90 -21.5q-86 0 -137 56.5t-51 150.5v316h112v-299q0 -57 27 -88t77 -31t80.5 36t30.5 89v293h112z" />
    <glyph glyph-name="udieresis" unicode="&#xfc;" horiz-adv-x="596" 
d="M214 743q26 0 45 -18.5t19 -44.5q0 -27 -18.5 -45t-45.5 -18t-45.5 18t-18.5 45q0 26 18.5 44.5t45.5 18.5zM382 743q27 0 45.5 -18.5t18.5 -44.5q0 -27 -18.5 -45t-45.5 -18t-45.5 18t-18.5 45q0 26 19 44.5t45 18.5zM515 513v-513h-106v67q-17 -34 -55 -55.5t-90 -21.5
q-86 0 -137 56.5t-51 150.5v316h112v-299q0 -57 27 -88t77 -31t80.5 36t30.5 89v293h112z" />
    <glyph glyph-name="yacute" unicode="&#xfd;" horiz-adv-x="549" 
d="M451 787l-134 -191h-88l95 191h127zM538 513l-326 -768h-123l126 291l-203 477h125l138 -351l138 351h125z" />
    <glyph glyph-name="thorn" unicode="&#xfe;" horiz-adv-x="652" 
d="M81 777h112v-327q49 72 163 72q109 0 178 -73q69 -72 69 -193q0 -120 -69 -194q-69 -72 -178 -72q-54 0 -97.5 19t-65.5 52v-316h-112v1032zM338 425q-66 0 -105.5 -41.5t-39.5 -114.5v-27q0 -73 39.5 -114.5t105.5 -41.5q68 0 109.5 45.5t41.5 124.5t-41.5 124
t-109.5 45z" />
    <glyph glyph-name="ydieresis" unicode="&#xff;" horiz-adv-x="549" 
d="M189 743q26 0 45 -18.5t19 -44.5q0 -27 -18.5 -45t-45.5 -18t-45.5 18t-18.5 45q0 26 18.5 44.5t45.5 18.5zM357 743q27 0 45.5 -18.5t18.5 -44.5q0 -27 -18.5 -45t-45.5 -18t-45.5 18t-18.5 45q0 26 19 44.5t45 18.5zM538 513l-326 -768h-123l126 291l-203 477h125
l138 -351l138 351h125z" />
    <glyph glyph-name="Amacron" unicode="&#x100;" horiz-adv-x="759" 
d="M519 912v-86h-279v86h279zM429 748l317 -748h-131l-69 167h-334l-70 -167h-130l316 748h101zM380 564l-122 -291h243z" />
    <glyph glyph-name="amacron" unicode="&#x101;" horiz-adv-x="548" 
d="M417 715v-87h-279v87h279zM267 522q99 0 152 -52.5t53 -150.5v-319h-113v46q-59 -56 -139 -56q-79 0 -125 39.5t-46 110.5q0 144 188 155l122 7v15q0 107 -91 107q-44 0 -68 -24.5t-24 -62.5l-113 4q0 72 56 126q55 55 148 55zM360 197v18l-107 -7q-91 -4 -91 -66
q0 -58 77 -58q57 0 89 29t32 84z" />
    <glyph glyph-name="Abreve" unicode="&#x102;" horiz-adv-x="759" 
d="M457 948h92q0 -70 -45.5 -108.5t-124.5 -38.5q-78 0 -123.5 38.5t-45.5 108.5h92q0 -32 21 -50.5t56 -18.5q36 0 57 18.5t21 50.5zM429 748l317 -748h-131l-69 167h-334l-70 -167h-130l316 748h101zM380 564l-122 -291h243z" />
    <glyph glyph-name="abreve" unicode="&#x103;" horiz-adv-x="548" 
d="M355 743h92q0 -70 -45.5 -108.5t-124.5 -38.5q-78 0 -123.5 38.5t-45.5 108.5h92q0 -32 21 -50.5t56 -18.5q36 0 57 18.5t21 50.5zM267 522q99 0 152 -52.5t53 -150.5v-319h-113v46q-59 -56 -139 -56q-79 0 -125 39.5t-46 110.5q0 144 188 155l122 7v15q0 107 -91 107
q-44 0 -68 -24.5t-24 -62.5l-113 4q0 72 56 126q55 55 148 55zM360 197v18l-107 -7q-91 -4 -91 -66q0 -58 77 -58q57 0 89 29t32 84z" />
    <glyph glyph-name="Aogonek" unicode="&#x104;" horiz-adv-x="759" 
d="M663 -129q29 0 53 12l11 -56q-40 -17 -83 -17q-53 0 -84 23t-31 66q0 63 85 103l-68 165h-334l-70 -167h-130l316 748h101l317 -748h-49q-46 -25 -65 -44t-19 -44q0 -41 50 -41zM258 273h243l-121 291z" />
    <glyph glyph-name="aogonek" unicode="&#x105;" horiz-adv-x="548" 
d="M472 319v-319h-32q-44 -23 -63 -42.5t-19 -44.5q0 -41 50 -41q29 0 53 12l11 -56q-40 -17 -83 -17q-53 0 -84 23t-31 66q0 63 85 103v43q-59 -56 -139 -56q-79 0 -125 39.5t-46 110.5q0 144 188 155l122 7v15q0 107 -91 107q-44 0 -68 -24.5t-24 -62.5l-113 4
q0 72 56 126q55 55 148 55q99 0 152 -52.5t53 -150.5zM239 84q57 0 89 29t32 84v18l-107 -7q-91 -4 -91 -66q0 -58 77 -58z" />
    <glyph glyph-name="Cacute" unicode="&#x106;" horiz-adv-x="816" 
d="M658 942l-190 -147h-104l139 147h155zM426 758q137 0 232 -76q97 -76 115 -204l-124 -11q-15 87 -75.5 136t-151.5 49q-112 0 -180 -75q-68 -76 -68 -203q0 -132 70 -205t179 -73q90 0 150 47t76 131l125 -11q-21 -127 -117 -200q-94 -73 -230 -73q-165 0 -269 103
q-105 103 -105 281q0 177 104 281q103 103 269 103z" />
    <glyph glyph-name="cacute" unicode="&#x107;" horiz-adv-x="584" 
d="M475 787l-134 -191h-88l95 191h127zM306 522q94 0 158.5 -52.5t77.5 -141.5l-110 -10q-6 50 -40.5 79t-85.5 29q-65 0 -104 -45.5t-39 -124.5q0 -78 39.5 -123.5t103.5 -45.5q52 0 85.5 27t41.5 75l110 -10q-15 -87 -79 -138t-158 -51q-112 0 -185 71q-72 72 -72 195
q0 124 71 195q73 71 186 71z" />
    <glyph glyph-name="Ccircumflex" unicode="&#x108;" horiz-adv-x="816" 
d="M471 945l118 -150h-96l-76 84l-77 -84h-95l118 150h108zM426 758q137 0 232 -76q97 -76 115 -204l-124 -11q-15 87 -75.5 136t-151.5 49q-112 0 -180 -75q-68 -76 -68 -203q0 -132 70 -205t179 -73q90 0 150 47t76 131l125 -11q-21 -127 -117 -200q-94 -73 -230 -73
q-165 0 -269 103q-105 103 -105 281q0 177 104 281q103 103 269 103z" />
    <glyph glyph-name="ccircumflex" unicode="&#x109;" horiz-adv-x="584" 
d="M353 770l119 -173h-95l-78 98l-77 -98h-95l118 173h108zM306 522q94 0 158.5 -52.5t77.5 -141.5l-110 -10q-6 50 -40.5 79t-85.5 29q-65 0 -104 -45.5t-39 -124.5q0 -78 39.5 -123.5t103.5 -45.5q52 0 85.5 27t41.5 75l110 -10q-15 -87 -79 -138t-158 -51q-112 0 -185 71
q-72 72 -72 195q0 124 71 195q73 71 186 71z" />
    <glyph glyph-name="Cdotaccent" unicode="&#x10a;" horiz-adv-x="816" 
d="M488 875q0 -30 -21 -50.5t-50 -20.5t-50 20.5t-21 50.5q0 29 21 50t50 21t50 -21t21 -50zM426 758q137 0 232 -76q97 -76 115 -204l-124 -11q-15 87 -75.5 136t-151.5 49q-112 0 -180 -75q-68 -76 -68 -203q0 -132 70 -205t179 -73q90 0 150 47t76 131l125 -11
q-21 -127 -117 -200q-94 -73 -230 -73q-165 0 -269 103q-105 103 -105 281q0 177 104 281q103 103 269 103z" />
    <glyph glyph-name="cdotaccent" unicode="&#x10b;" horiz-adv-x="584" 
d="M249 731q21 21 50 21t50 -21t21 -50t-21 -50t-50 -21t-50 21t-21 50t21 50zM306 522q94 0 158.5 -52.5t77.5 -141.5l-110 -10q-6 50 -40.5 79t-85.5 29q-65 0 -104 -45.5t-39 -124.5q0 -78 39.5 -123.5t103.5 -45.5q52 0 85.5 27t41.5 75l110 -10q-15 -87 -79 -138
t-158 -51q-112 0 -185 71q-72 72 -72 195q0 124 71 195q73 71 186 71z" />
    <glyph glyph-name="Ccaron" unicode="&#x10c;" horiz-adv-x="816" 
d="M589 945l-118 -150h-108l-118 150h95l77 -83l76 83h96zM426 758q137 0 232 -76q97 -76 115 -204l-124 -11q-15 87 -75.5 136t-151.5 49q-112 0 -180 -75q-68 -76 -68 -203q0 -132 70 -205t179 -73q90 0 150 47t76 131l125 -11q-21 -127 -117 -200q-94 -73 -230 -73
q-165 0 -269 103q-105 103 -105 281q0 177 104 281q103 103 269 103z" />
    <glyph glyph-name="ccaron" unicode="&#x10d;" horiz-adv-x="584" 
d="M472 767l-119 -172h-108l-118 172h95l77 -98l78 98h95zM306 522q94 0 158.5 -52.5t77.5 -141.5l-110 -10q-6 50 -40.5 79t-85.5 29q-65 0 -104 -45.5t-39 -124.5q0 -78 39.5 -123.5t103.5 -45.5q52 0 85.5 27t41.5 75l110 -10q-15 -87 -79 -138t-158 -51q-112 0 -185 71
q-72 72 -72 195q0 124 71 195q73 71 186 71z" />
    <glyph glyph-name="Dcaron" unicode="&#x10e;" horiz-adv-x="801" 
d="M522 945l-118 -150h-108l-118 150h95l77 -83l76 83h96zM84 0v748h299q160 0 263 -101q102 -101 102 -273q0 -174 -103 -274t-264 -100h-297zM383 646h-181v-544h180q114 0 180.5 71.5t66.5 200.5t-66.5 200.5t-179.5 71.5z" />
    <glyph glyph-name="dcaron" unicode="&#x10f;" horiz-adv-x="782" 
d="M459 451v326h112v-777h-106v71q-22 -37 -67 -59t-102 -22q-109 0 -178 72q-69 74 -69 194q0 121 69 193q69 73 178 73q54 0 97.5 -19t65.5 -52zM698 761q32 0 49.5 -21.5t17.5 -58.5q0 -137 -130 -207v48q52 38 62 97q-29 2 -48.5 22t-19.5 48q0 30 19.5 51t49.5 21z
M459 243v27q0 73 -39.5 114.5t-105.5 41.5q-68 0 -109.5 -45.5t-41.5 -124.5t41.5 -124t109.5 -45q66 0 105.5 41.5t39.5 114.5z" />
    <glyph glyph-name="Dcroat" unicode="&#x110;" horiz-adv-x="799" 
d="M103 419v329h299q160 0 263 -101q102 -101 102 -273q0 -174 -103 -274t-264 -100h-297v328h-98v91h98zM221 328v-226h180q114 0 180.5 71.5t66.5 200.5t-66.5 200.5t-179.5 71.5h-181v-227h132v-91h-132z" />
    <glyph glyph-name="dslash" unicode="&#x111;" horiz-adv-x="648" 
d="M647 692v-87h-76v-605h-106v71q-22 -37 -67 -59t-102 -22q-109 0 -178 72q-69 74 -69 194q0 121 69 193q69 73 178 73q54 0 97.5 -19t65.5 -52v154h-91v87h91v85h112v-85h76zM459 243v27q0 73 -39.5 114.5t-105.5 41.5q-68 0 -109.5 -45.5t-41.5 -124.5t41.5 -124
t109.5 -45q66 0 105.5 41.5t39.5 114.5z" />
    <glyph glyph-name="Emacron" unicode="&#x112;" horiz-adv-x="597" 
d="M462 912v-86h-279v86h279zM554 748v-105h-351v-206h307v-103h-307v-228h351v-106h-470v748h470z" />
    <glyph glyph-name="emacron" unicode="&#x113;" horiz-adv-x="594" 
d="M442 715v-87h-279v87h279zM545 269v-55h-377q4 -58 41 -92.5t96 -34.5q100 0 122 73l113 -6q-15 -70 -80 -117t-152 -47q-114 0 -187 71q-72 72 -72 195t71 194q70 72 185 72q110 0 175 -68t65 -185zM304 426q-58 0 -94.5 -33t-40.5 -91h263q-2 58 -35 91t-93 33z" />
    <glyph glyph-name="Ebreve" unicode="&#x114;" horiz-adv-x="597" 
d="M400 948h92q0 -70 -45.5 -108.5t-124.5 -38.5q-78 0 -123.5 38.5t-45.5 108.5h92q0 -32 21 -50.5t56 -18.5q36 0 57 18.5t21 50.5zM554 748v-105h-351v-206h307v-103h-307v-228h351v-106h-470v748h470z" />
    <glyph glyph-name="ebreve" unicode="&#x115;" horiz-adv-x="594" 
d="M302 596q-78 0 -123.5 38.5t-45.5 108.5h92q0 -32 21 -50.5t56 -18.5q36 0 57 18.5t21 50.5h92q0 -70 -45.5 -108.5t-124.5 -38.5zM545 269v-55h-377q4 -58 41 -92.5t96 -34.5q100 0 122 73l113 -6q-15 -70 -80 -117t-152 -47q-114 0 -187 71q-72 72 -72 195t71 194
q70 72 185 72q110 0 175 -68t65 -185zM304 426q-58 0 -94.5 -33t-40.5 -91h263q-2 58 -35 91t-93 33z" />
    <glyph glyph-name="Edotaccent" unicode="&#x116;" horiz-adv-x="597" 
d="M394 875q0 -30 -21 -50.5t-50 -20.5t-50 20.5t-21 50.5q0 29 21 50t50 21t50 -21t21 -50zM554 748v-105h-351v-206h307v-103h-307v-228h351v-106h-470v748h470z" />
    <glyph glyph-name="edotaccent" unicode="&#x117;" horiz-adv-x="594" 
d="M353 631q-21 -21 -50 -21t-50 21t-21 50t21 50t50 21t50 -21t21 -50t-21 -50zM545 269v-55h-377q4 -58 41 -92.5t96 -34.5q100 0 122 73l113 -6q-15 -70 -80 -117t-152 -47q-114 0 -187 71q-72 72 -72 195t71 194q70 72 185 72q110 0 175 -68t65 -185zM304 426
q-58 0 -94.5 -33t-40.5 -91h263q-2 58 -35 91t-93 33z" />
    <glyph glyph-name="Eogonek" unicode="&#x118;" horiz-adv-x="597" 
d="M565 -117l11 -56q-40 -17 -83 -17q-53 0 -84 23t-31 66q0 62 81 101h-375v748h470v-105h-351v-206h307v-103h-307v-228h351v-106h-8q-46 -25 -65 -44t-19 -44q0 -41 50 -41q29 0 53 12z" />
    <glyph glyph-name="eogonek" unicode="&#x119;" horiz-adv-x="594" 
d="M545 269v-55h-377q4 -58 41 -92.5t96 -34.5q100 0 122 73l113 -6q-12 -55 -57 -97.5t-109 -58.5q-44 -23 -63 -42.5t-19 -44.5q0 -41 50 -41q29 0 53 12l11 -56q-40 -17 -83 -17q-53 0 -84 23t-31 66q0 57 67 94q-104 11 -164 80q-62 71 -62 184q0 123 71 194
q70 72 185 72q110 0 175 -68t65 -185zM304 426q-58 0 -94.5 -33t-40.5 -91h263q-2 58 -35 91t-93 33z" />
    <glyph glyph-name="Ecaron" unicode="&#x11a;" horiz-adv-x="597" 
d="M495 945l-118 -150h-108l-118 150h95l77 -83l76 83h96zM554 748v-105h-351v-206h307v-103h-307v-228h351v-106h-470v748h470z" />
    <glyph glyph-name="ecaron" unicode="&#x11b;" horiz-adv-x="594" 
d="M357 595h-108l-118 172h95l77 -98l78 98h95zM545 269v-55h-377q4 -58 41 -92.5t96 -34.5q100 0 122 73l113 -6q-15 -70 -80 -117t-152 -47q-114 0 -187 71q-72 72 -72 195t71 194q70 72 185 72q110 0 175 -68t65 -185zM304 426q-58 0 -94.5 -33t-40.5 -91h263
q-2 58 -35 91t-93 33z" />
    <glyph glyph-name="Gcircumflex" unicode="&#x11c;" horiz-adv-x="827" 
d="M419 879l-77 -84h-95l118 150h108l118 -150h-96zM425 392h350v-39q0 -165 -95 -265q-95 -98 -255 -98q-164 0 -268 103q-104 104 -104 281q0 178 103 281t268 103q131 0 225 -70q93 -68 119 -191l-123 -20q-15 82 -74 128.5t-148 46.5q-116 0 -182.5 -72.5t-66.5 -205.5
q0 -132 67 -205t182 -73q93 0 151 48.5t72 142.5h-221v105z" />
    <glyph glyph-name="gcircumflex" unicode="&#x11d;" horiz-adv-x="646" 
d="M371 770l119 -173h-95l-78 98l-77 -98h-95l118 173h108zM296 522q57 0 102 -22t67 -59v72h106v-538q0 -109 -69 -174q-68 -65 -183 -65q-108 0 -173.5 49.5t-81.5 138.5l112 4q7 -45 45 -71t95 -26q66 0 104.5 36t38.5 100v94q-22 -33 -65.5 -52t-97.5 -19
q-109 0 -178 72q-69 74 -69 194q0 121 69 193q69 73 178 73zM314 425q-68 0 -109.5 -45t-41.5 -124t41.5 -124.5t109.5 -45.5q66 0 105.5 41.5t39.5 114.5v27q0 73 -39.5 114.5t-105.5 41.5z" />
    <glyph glyph-name="Gbreve" unicode="&#x11e;" horiz-adv-x="827" 
d="M418 801q-78 0 -123.5 38.5t-45.5 108.5h92q0 -32 21 -50.5t56 -18.5q36 0 57 18.5t21 50.5h92q0 -70 -45.5 -108.5t-124.5 -38.5zM425 392h350v-39q0 -165 -95 -265q-95 -98 -255 -98q-164 0 -268 103q-104 104 -104 281q0 178 103 281t268 103q131 0 225 -70
q93 -68 119 -191l-123 -20q-15 82 -74 128.5t-148 46.5q-116 0 -182.5 -72.5t-66.5 -205.5q0 -132 67 -205t182 -73q93 0 151 48.5t72 142.5h-221v105z" />
    <glyph glyph-name="gbreve" unicode="&#x11f;" horiz-adv-x="646" 
d="M394 743h92q0 -70 -45.5 -108.5t-124.5 -38.5q-78 0 -123.5 38.5t-45.5 108.5h92q0 -32 21 -50.5t56 -18.5q36 0 57 18.5t21 50.5zM296 522q57 0 102 -22t67 -59v72h106v-538q0 -109 -69 -174q-68 -65 -183 -65q-108 0 -173.5 49.5t-81.5 138.5l112 4q7 -45 45 -71
t95 -26q66 0 104.5 36t38.5 100v94q-22 -33 -65.5 -52t-97.5 -19q-109 0 -178 72q-69 74 -69 194q0 121 69 193q69 73 178 73zM314 425q-68 0 -109.5 -45t-41.5 -124t41.5 -124.5t109.5 -45.5q66 0 105.5 41.5t39.5 114.5v27q0 73 -39.5 114.5t-105.5 41.5z" />
    <glyph glyph-name="Gdotaccent" unicode="&#x120;" horiz-adv-x="827" 
d="M348 875q0 29 21 50t50 21t50 -21t21 -50q0 -30 -21 -50.5t-50 -20.5t-50 20.5t-21 50.5zM425 392h350v-39q0 -165 -95 -265q-95 -98 -255 -98q-164 0 -268 103q-104 104 -104 281q0 178 103 281t268 103q131 0 225 -70q93 -68 119 -191l-123 -20q-15 82 -74 128.5
t-148 46.5q-116 0 -182.5 -72.5t-66.5 -205.5q0 -132 67 -205t182 -73q93 0 151 48.5t72 142.5h-221v105z" />
    <glyph glyph-name="gdotaccent" unicode="&#x121;" horiz-adv-x="646" 
d="M267 731q21 21 50 21t50 -21t21 -50t-21 -50t-50 -21t-50 21t-21 50t21 50zM296 522q57 0 102 -22t67 -59v72h106v-538q0 -109 -69 -174q-68 -65 -183 -65q-108 0 -173.5 49.5t-81.5 138.5l112 4q7 -45 45 -71t95 -26q66 0 104.5 36t38.5 100v94q-22 -33 -65.5 -52
t-97.5 -19q-109 0 -178 72q-69 74 -69 194q0 121 69 193q69 73 178 73zM314 425q-68 0 -109.5 -45t-41.5 -124t41.5 -124.5t109.5 -45.5q66 0 105.5 41.5t39.5 114.5v27q0 73 -39.5 114.5t-105.5 41.5z" />
    <glyph glyph-name="Gcommaaccent" unicode="&#x122;" horiz-adv-x="827" 
d="M425 392h350v-39q0 -165 -95 -265q-95 -98 -255 -98q-164 0 -268 103q-104 104 -104 281q0 178 103 281t268 103q131 0 225 -70q93 -68 119 -191l-123 -20q-15 82 -74 128.5t-148 46.5q-116 0 -182.5 -72.5t-66.5 -205.5q0 -132 67 -205t182 -73q93 0 151 48.5t72 142.5
h-221v105zM420 -47q32 0 49.5 -21.5t17.5 -58.5q0 -137 -130 -207v48q52 38 62 97q-29 2 -48.5 22t-19.5 48q0 30 19.5 51t49.5 21z" />
    <glyph glyph-name="gcommaaccent" unicode="&#x123;" horiz-adv-x="646" 
d="M328 723q-29 2 -48.5 22t-19.5 48q0 30 19.5 51t49.5 21q32 0 49.5 -21.5t17.5 -58.5q0 -137 -130 -207v48q52 38 62 97zM465 513h106v-538q0 -109 -69 -174q-68 -65 -183 -65q-108 0 -173.5 49.5t-81.5 138.5l112 4q7 -45 45 -71t95 -26q66 0 104.5 36t38.5 100v94
q-22 -33 -65.5 -52t-97.5 -19q-109 0 -178 72q-69 74 -69 194q0 121 69 193q69 73 178 73q57 0 102 -22t67 -59v72zM459 242v27q0 73 -39.5 114.5t-105.5 41.5q-68 0 -109.5 -45t-41.5 -124t41.5 -124.5t109.5 -45.5q66 0 105.5 41.5t39.5 114.5z" />
    <glyph glyph-name="Hcircumflex" unicode="&#x124;" horiz-adv-x="757" 
d="M433 945l118 -150h-96l-76 84l-77 -84h-95l118 150h108zM674 748v-748h-119v333h-352v-333h-119v748h119v-309h352v309h119z" />
    <glyph glyph-name="hcircumflex" unicode="&#x125;" horiz-adv-x="609" 
d="M193 949l118 -150h-96l-76 84l-77 -84h-95l118 150h108zM81 777h112v-322q45 67 144 67q89 0 144 -58q56 -58 56 -155v-309h-113v294q0 57 -30.5 90.5t-81.5 33.5q-53 0 -86 -35.5t-33 -89.5v-293h-112v777z" />
    <glyph glyph-name="Hbar" unicode="&#x126;" horiz-adv-x="770" 
d="M762 636v-91h-82v-545h-119v333h-352v-333h-119v545h-82v91h82v112h119v-112h352v112h119v-112h82zM561 439v106h-352v-106h352z" />
    <glyph glyph-name="hbar" unicode="&#x127;" horiz-adv-x="609" 
d="M337 522q89 0 144 -58q56 -58 56 -155v-309h-113v294q0 57 -30.5 90.5t-81.5 33.5q-53 0 -86 -35.5t-33 -89.5v-293h-112v605h-77v87h77v85h112v-85h90v-87h-90v-150q45 67 144 67z" />
    <glyph glyph-name="Itilde" unicode="&#x128;" horiz-adv-x="286" 
d="M77 946q33 0 74 -29t61 -29q44 0 46 51h64q4 -55 -24 -95q-27 -40 -74 -40q-34 0 -74 28q-41 29 -61 29q-45 0 -45 -50h-65q-4 54 23 95q28 40 75 40zM207 748v-748h-119v748h119z" />
    <glyph glyph-name="itilde" unicode="&#x129;" 
d="M69 747q33 0 74 -29t61 -29q44 0 46 51h64q4 -56 -24 -96q-27 -40 -74 -40q-33 0 -74 29t-61 29q-45 0 -45 -51h-65q-5 55 24 96q27 40 74 40zM197 513v-513h-112v513h112z" />
    <glyph glyph-name="Imacron" unicode="&#x12a;" horiz-adv-x="286" 
d="M286 912v-86h-279v86h279zM203 748v-748h-119v748h119z" />
    <glyph glyph-name="imacron" unicode="&#x12b;" 
d="M279 715v-87h-279v87h279zM193 513v-513h-112v513h112z" />
    <glyph glyph-name="Ibreve" unicode="&#x12c;" horiz-adv-x="286" 
d="M224 948h92q0 -70 -45.5 -108.5t-124.5 -38.5q-78 0 -123.5 38.5t-45.5 108.5h92q0 -32 21 -50.5t56 -18.5q36 0 57 18.5t21 50.5zM203 748v-748h-119v748h119z" />
    <glyph glyph-name="ibreve" unicode="&#x12d;" 
d="M217 743h92q0 -70 -45.5 -108.5t-124.5 -38.5q-78 0 -123.5 38.5t-45.5 108.5h92q0 -32 21 -50.5t56 -18.5q36 0 57 18.5t21 50.5zM193 513v-513h-112v513h112z" />
    <glyph glyph-name="Iogonek" unicode="&#x12e;" horiz-adv-x="286" 
d="M203 748v-748h-50q-44 -23 -63 -42.5t-19 -44.5q0 -41 50 -41q29 0 53 12l11 -56q-40 -17 -83 -17q-53 0 -84 23t-31 66q0 68 97 108v740h119z" />
    <glyph glyph-name="iogonek" unicode="&#x12f;" 
d="M190 631q-21 -21 -50 -21t-50 21t-21 50t21 50t50 21t50 -21t21 -50t-21 -50zM131 -128q29 0 53 12l11 -56q-40 -17 -83 -17q-53 0 -84 23t-31 66q0 62 84 102v511h112v-513h-30q-44 -23 -63 -42.5t-19 -44.5q0 -41 50 -41z" />
    <glyph glyph-name="Idot" unicode="&#x130;" horiz-adv-x="286" 
d="M218 875q0 -30 -21 -50.5t-50 -20.5t-50 20.5t-21 50.5q0 29 21 50t50 21t50 -21t21 -50zM203 748v-748h-119v748h119z" />
    <glyph glyph-name="dotlessi" unicode="&#x131;" 
d="M193 513v-513h-112v513h112z" />
    <glyph glyph-name="Jcircumflex" unicode="&#x134;" horiz-adv-x="594" 
d="M517 945l118 -150h-96l-76 84l-77 -84h-95l118 150h108zM397 748h119v-498q0 -123 -65.5 -191.5t-180.5 -68.5q-110 0 -176.5 64t-72.5 177l119 19q4 -73 38 -113.5t93 -40.5q61 0 93.5 38.5t32.5 112.5v501z" />
    <glyph glyph-name="jcircumflex" unicode="&#x135;" 
d="M190 770l119 -173h-95l-78 98l-77 -98h-95l118 173h108zM82 513h112v-578q0 -98 -47 -148t-131 -50q-60 0 -103 26l44 92q26 -18 47 -18q78 0 78 92v584z" />
    <glyph glyph-name="Kcommaaccent" unicode="&#x136;" horiz-adv-x="695" 
d="M374 434l311 -434h-146l-245 340l-91 -105v-235h-119v748h119v-335l291 335h153zM357 -42q32 0 49.5 -21.5t17.5 -58.5q0 -137 -130 -207v48q52 38 62 97q-29 2 -48.5 22t-19.5 48q0 30 19.5 51t49.5 21z" />
    <glyph glyph-name="kcommaaccent" unicode="&#x137;" horiz-adv-x="557" 
d="M323 292l227 -292h-142l-164 208l-51 -52v-156h-112v777h112v-470l199 206h137zM293 -42q32 0 49.5 -21.5t17.5 -58.5q0 -137 -130 -207v48q52 38 62 97q-29 2 -48.5 22t-19.5 48q0 30 19.5 51t49.5 21z" />
    <glyph glyph-name="Lacute" unicode="&#x139;" horiz-adv-x="591" 
d="M389 942l-190 -147h-104l139 147h155zM203 748v-642h354v-106h-473v748h119z" />
    <glyph glyph-name="lacute" unicode="&#x13a;" 
d="M383 957l-190 -147h-104l139 147h155zM193 777v-777h-112v777h112z" />
    <glyph glyph-name="Lcommaaccent" unicode="&#x13b;" horiz-adv-x="591" 
d="M203 106h354v-106h-473v748h119v-642zM328 -42q32 0 49.5 -21.5t17.5 -58.5q0 -137 -130 -207v48q52 38 62 97q-29 2 -48.5 22t-19.5 48q0 30 19.5 51t49.5 21z" />
    <glyph glyph-name="lcommaaccent" unicode="&#x13c;" 
d="M193 777v-777h-112v777h112zM137 -42q32 0 49.5 -21.5t17.5 -58.5q0 -137 -130 -207v48q52 38 62 97q-29 2 -48.5 22t-19.5 48q0 30 19.5 51t49.5 21z" />
    <glyph glyph-name="Lcaron" unicode="&#x13d;" horiz-adv-x="591" 
d="M517 619q-29 2 -48.5 22t-19.5 48q0 30 19.5 51t49.5 21q32 0 49.5 -21.5t17.5 -58.5q0 -137 -130 -207v48q52 38 62 97zM203 748v-642h354v-106h-473v748h119z" />
    <glyph glyph-name="lcaron" unicode="&#x13e;" horiz-adv-x="407" 
d="M81 0v777h112v-777h-112zM328 761q32 0 49.5 -21.5t17.5 -58.5q0 -137 -130 -207v48q52 38 62 97q-29 2 -48.5 22t-19.5 48q0 30 19.5 51t49.5 21z" />
    <glyph glyph-name="Ldot" unicode="&#x13f;" horiz-adv-x="591" 
d="M203 748v-642h354v-106h-473v748h119zM449 470q30 0 51.5 -21t21.5 -52q0 -29 -21.5 -50t-51.5 -21q-29 0 -50 21t-21 50q0 31 21 52t50 21z" />
    <glyph glyph-name="ldot" unicode="&#x140;" horiz-adv-x="425" 
d="M193 777v-777h-112v777h112zM329 380q30 0 51.5 -21t21.5 -52q0 -29 -21.5 -50t-51.5 -21q-29 0 -50 21t-21 50q0 31 21 52t50 21z" />
    <glyph glyph-name="Lslash" unicode="&#x141;" horiz-adv-x="601" 
d="M215 106h354v-106h-473v269l-86 -22l-14 91l100 26v384h119v-354l101 26l14 -90l-115 -30v-194z" />
    <glyph glyph-name="lslash" unicode="&#x142;" horiz-adv-x="297" 
d="M314 305l-108 -34v-271h-112v235l-89 -28l-21 89l110 35v446h112v-411l87 28z" />
    <glyph glyph-name="Nacute" unicode="&#x143;" horiz-adv-x="756" 
d="M615 942l-190 -147h-104l139 147h155zM673 748v-748h-101l-369 528v-528h-119v748h100l370 -529v529h119z" />
    <glyph glyph-name="nacute" unicode="&#x144;" horiz-adv-x="613" 
d="M493 787l-134 -191h-88l95 191h127zM337 522q89 0 144 -58q56 -58 56 -155v-309h-113v294q0 57 -30.5 90.5t-81.5 33.5q-53 0 -86 -35.5t-33 -89.5v-293h-112v513h106v-68q44 77 150 77z" />
    <glyph glyph-name="Ncommaaccent" unicode="&#x145;" horiz-adv-x="756" 
d="M554 748h119v-748h-101l-369 528v-528h-119v748h100l370 -529v529zM386 -42q32 0 49.5 -21.5t17.5 -58.5q0 -137 -130 -207v48q52 38 62 97q-29 2 -48.5 22t-19.5 48q0 30 19.5 51t49.5 21z" />
    <glyph glyph-name="ncommaaccent" unicode="&#x146;" horiz-adv-x="613" 
d="M337 522q89 0 144 -58q56 -58 56 -155v-309h-113v294q0 57 -30.5 90.5t-81.5 33.5q-53 0 -86 -35.5t-33 -89.5v-293h-112v513h106v-68q44 77 150 77zM311 -42q32 0 49.5 -21.5t17.5 -58.5q0 -137 -130 -207v48q52 38 62 97q-29 2 -48.5 22t-19.5 48q0 30 19.5 51t49.5 21
z" />
    <glyph glyph-name="Ncaron" unicode="&#x147;" horiz-adv-x="756" 
d="M546 945l-118 -150h-108l-118 150h95l77 -83l76 83h96zM673 748v-748h-101l-369 528v-528h-119v748h100l370 -529v529h119z" />
    <glyph glyph-name="ncaron" unicode="&#x148;" horiz-adv-x="613" 
d="M490 767l-119 -172h-108l-118 172h95l77 -98l78 98h95zM337 522q89 0 144 -58q56 -58 56 -155v-309h-113v294q0 57 -30.5 90.5t-81.5 33.5q-53 0 -86 -35.5t-33 -89.5v-293h-112v513h106v-68q44 77 150 77z" />
    <glyph glyph-name="Eng" unicode="&#x14a;" horiz-adv-x="756" 
d="M554 748h119v-775q0 -101 -67 -164q-67 -64 -180 -64v105q61 0 94.5 39.5t33.5 111.5v25l-351 502v-528h-119v748h100l370 -529v529z" />
    <glyph glyph-name="eng" unicode="&#x14b;" horiz-adv-x="613" 
d="M337 522q89 0 144 -58q56 -58 56 -155v-373q0 -92 -53 -144.5t-145 -52.5v98q39 0 62 25.5t23 70.5v361q0 57 -30.5 90.5t-81.5 33.5q-53 0 -86 -35.5t-33 -89.5v-293h-112v513h106v-68q44 77 150 77z" />
    <glyph glyph-name="Omacron" unicode="&#x14c;" horiz-adv-x="870" 
d="M567 912v-86h-279v86h279zM435 758q167 0 273 -105q108 -103 108 -279q0 -175 -108 -280q-107 -104 -273 -104t-275 104q-107 105 -107 280t107 279q108 105 275 105zM435 652q-114 0 -188 -75q-73 -73 -73 -203q0 -129 73 -203q74 -75 188 -75q113 0 187 75
q73 74 73 203q0 130 -73 203q-74 75 -187 75z" />
    <glyph glyph-name="omacron" unicode="&#x14d;" horiz-adv-x="634" 
d="M455 715v-87h-279v87h279zM317 522q117 0 191 -73q76 -73 76 -193t-76 -193q-74 -73 -191 -73t-193 73q-75 73 -75 193t75 193q76 73 193 73zM163 256q0 -77 42.5 -123t111.5 -46t111.5 46t42.5 123q0 78 -42.5 124t-111.5 46t-111.5 -46t-42.5 -124z" />
    <glyph glyph-name="Obreve" unicode="&#x14e;" horiz-adv-x="870" 
d="M505 948h92q0 -70 -45.5 -108.5t-124.5 -38.5q-78 0 -123.5 38.5t-45.5 108.5h92q0 -32 21 -50.5t56 -18.5q36 0 57 18.5t21 50.5zM435 758q167 0 273 -105q108 -103 108 -279q0 -175 -108 -280q-107 -104 -273 -104t-275 104q-107 105 -107 280t107 279q108 105 275 105
zM435 652q-114 0 -188 -75q-73 -73 -73 -203q0 -129 73 -203q74 -75 188 -75q113 0 187 75q73 74 73 203q0 130 -73 203q-74 75 -187 75z" />
    <glyph glyph-name="obreve" unicode="&#x14f;" horiz-adv-x="634" 
d="M393 743h92q0 -70 -45.5 -108.5t-124.5 -38.5q-78 0 -123.5 38.5t-45.5 108.5h92q0 -32 21 -50.5t56 -18.5q36 0 57 18.5t21 50.5zM317 522q117 0 191 -73q76 -73 76 -193t-76 -193q-74 -73 -191 -73t-193 73q-75 73 -75 193t75 193q76 73 193 73zM163 256
q0 -77 42.5 -123t111.5 -46t111.5 46t42.5 123q0 78 -42.5 124t-111.5 46t-111.5 -46t-42.5 -124z" />
    <glyph glyph-name="Ohungarumlaut" unicode="&#x150;" horiz-adv-x="870" 
d="M452 955l-79 -157h-88l61 157h106zM636 955l-79 -157h-88l61 157h106zM435 758q167 0 273 -105q108 -103 108 -279q0 -175 -108 -280q-107 -104 -273 -104t-275 104q-107 105 -107 280t107 279q108 105 275 105zM435 652q-114 0 -188 -75q-73 -73 -73 -203
q0 -129 73 -203q74 -75 188 -75q113 0 187 75q73 74 73 203q0 130 -73 203q-74 75 -187 75z" />
    <glyph glyph-name="ohungarumlaut" unicode="&#x151;" horiz-adv-x="634" 
d="M345 771l-81 -167h-88l62 167h107zM529 771l-81 -167h-88l62 167h107zM317 522q117 0 191 -73q76 -73 76 -193t-76 -193q-74 -73 -191 -73t-193 73q-75 73 -75 193t75 193q76 73 193 73zM163 256q0 -77 42.5 -123t111.5 -46t111.5 46t42.5 123q0 78 -42.5 124t-111.5 46
t-111.5 -46t-42.5 -124z" />
    <glyph glyph-name="OE" unicode="&#x152;" horiz-adv-x="1208" 
d="M1166 643h-351v-206h307v-103h-307v-228h351v-106h-470v83q-104 -93 -261 -93q-166 0 -275 104q-107 105 -107 280t107 279q108 105 275 105q157 0 261 -93v83h470v-105zM435 96q113 0 187 75q73 74 73 203q0 130 -73 203q-74 75 -187 75q-114 0 -188 -75
q-73 -73 -73 -203q0 -129 73 -203q74 -75 188 -75z" />
    <glyph glyph-name="oe" unicode="&#x153;" horiz-adv-x="1016" 
d="M966 269v-55h-377q4 -58 41 -92.5t96 -34.5q100 0 122 73l113 -6q-15 -70 -80 -117t-152 -47q-134 0 -204 91q-75 -91 -208 -91q-117 0 -193 73q-75 73 -75 193t75 193q76 73 193 73q131 0 208 -90q71 90 201 90q110 0 175 -68t65 -185zM317 87q65 0 107 41t46 111v17v17
q-4 70 -46 111.5t-107 41.5q-69 0 -111.5 -46t-42.5 -124q0 -77 42.5 -123t111.5 -46zM725 426q-58 0 -94.5 -33t-40.5 -91h263q-2 58 -35 91t-93 33z" />
    <glyph glyph-name="Racute" unicode="&#x154;" horiz-adv-x="695" 
d="M557 942l-190 -147h-104l139 147h155zM660 0h-134l-158 286h-165v-286h-119v748h302q106 0 170 -61q65 -60 65 -170q0 -77 -34 -131.5t-95 -79.5zM202 643v-251h169q58 0 93 33t35 92t-35 92.5t-93 33.5h-169z" />
    <glyph glyph-name="racute" unicode="&#x155;" horiz-adv-x="357" 
d="M384 787l-134 -191h-88l95 191h127zM336 519v-109q-65 0 -104 -36.5t-39 -94.5v-279h-112v513h109v-72q38 78 146 78z" />
    <glyph glyph-name="Rcommaaccent" unicode="&#x156;" horiz-adv-x="695" 
d="M492 306l168 -306h-134l-158 286h-165v-286h-119v748h302q106 0 170 -61q65 -60 65 -170q0 -77 -34 -131.5t-95 -79.5zM202 643v-251h169q58 0 93 33t35 92t-35 92.5t-93 33.5h-169zM356 -42q32 0 49.5 -21.5t17.5 -58.5q0 -137 -130 -207v48q52 38 62 97q-29 2 -48.5 22
t-19.5 48q0 30 19.5 51t49.5 21z" />
    <glyph glyph-name="rcommaaccent" unicode="&#x157;" horiz-adv-x="357" 
d="M81 513h109v-72q38 78 146 78v-109q-65 0 -104 -36.5t-39 -94.5v-279h-112v513zM138 -42q32 0 49.5 -21.5t17.5 -58.5q0 -137 -130 -207v48q52 38 62 97q-29 2 -48.5 22t-19.5 48q0 30 19.5 51t49.5 21z" />
    <glyph glyph-name="Rcaron" unicode="&#x158;" horiz-adv-x="695" 
d="M370 795h-108l-118 150h95l77 -83l76 83h96zM660 0h-134l-158 286h-165v-286h-119v748h302q106 0 170 -61q65 -60 65 -170q0 -77 -34 -131.5t-95 -79.5zM202 643v-251h169q58 0 93 33t35 92t-35 92.5t-93 33.5h-169z" />
    <glyph glyph-name="rcaron" unicode="&#x159;" horiz-adv-x="357" 
d="M381 767l-119 -172h-108l-118 172h95l77 -98l78 98h95zM336 519v-109q-65 0 -104 -36.5t-39 -94.5v-279h-112v513h109v-72q38 78 146 78z" />
    <glyph glyph-name="Sacute" unicode="&#x15a;" horiz-adv-x="659" 
d="M570 942l-190 -147h-104l139 147h155zM327 758q118 0 189 -58q72 -58 77 -159l-121 -7q-3 56 -41.5 88.5t-101.5 32.5q-65 0 -102 -30.5t-37 -81.5t36 -74q36 -20 130 -43q133 -32 194 -78q62 -45 62 -137q0 -111 -76 -166q-74 -55 -194 -55q-126 0 -207 60
q-79 60 -84 167l121 7q4 -59 51 -95t119 -36q70 0 109.5 27.5t39.5 82.5q0 52 -41 75q-42 25 -138 47q-64 16 -99.5 29t-71.5 36q-73 48 -73 149q0 95 67 156q67 63 192 63z" />
    <glyph glyph-name="sacute" unicode="&#x15b;" horiz-adv-x="502" 
d="M419 787l-134 -191h-88l95 191h127zM246 522q86 0 137.5 -44.5t59.5 -118.5l-112 -6q-7 73 -88 73q-80 0 -80 -57q0 -27 24 -40q23 -9 29 -10l59 -14q95 -24 136 -57t41 -94q0 -77 -53.5 -120.5t-147.5 -43.5q-91 0 -146 43.5t-64 120.5l112 7q9 -74 100 -74
q40 0 63.5 15.5t23.5 42.5q0 30 -22 43q-20 12 -89 29q-45 10 -73 20t-54 25q-51 33 -51 105q0 71 52 113t143 42z" />
    <glyph glyph-name="Scircumflex" unicode="&#x15c;" horiz-adv-x="659" 
d="M383 945l118 -150h-96l-76 84l-77 -84h-95l118 150h108zM327 758q118 0 189 -58q72 -58 77 -159l-121 -7q-3 56 -41.5 88.5t-101.5 32.5q-65 0 -102 -30.5t-37 -81.5t36 -74q36 -20 130 -43q133 -32 194 -78q62 -45 62 -137q0 -111 -76 -166q-74 -55 -194 -55
q-126 0 -207 60q-79 60 -84 167l121 7q4 -59 51 -95t119 -36q70 0 109.5 27.5t39.5 82.5q0 52 -41 75q-42 25 -138 47q-64 16 -99.5 29t-71.5 36q-73 48 -73 149q0 95 67 156q67 63 192 63z" />
    <glyph glyph-name="scircumflex" unicode="&#x15d;" horiz-adv-x="502" 
d="M297 770l119 -173h-95l-78 98l-77 -98h-95l118 173h108zM246 522q86 0 137.5 -44.5t59.5 -118.5l-112 -6q-7 73 -88 73q-80 0 -80 -57q0 -27 24 -40q23 -9 29 -10l59 -14q95 -24 136 -57t41 -94q0 -77 -53.5 -120.5t-147.5 -43.5q-91 0 -146 43.5t-64 120.5l112 7
q9 -74 100 -74q40 0 63.5 15.5t23.5 42.5q0 30 -22 43q-20 12 -89 29q-45 10 -73 20t-54 25q-51 33 -51 105q0 71 52 113t143 42z" />
    <glyph glyph-name="Scedilla" unicode="&#x15e;" horiz-adv-x="659" 
d="M612 211q0 -101 -66 -157.5t-178 -62.5l-9 -36q50 -6 79 -31t29 -68q0 -52 -38 -80.5t-97 -28.5q-56 0 -95 19l19 68q26 -17 66 -17q61 0 61 40q0 42 -68 42q-17 0 -34 -4l28 96q-112 7 -184 67q-69 58 -74 159l121 7q4 -59 51 -95t119 -36q70 0 109.5 27.5t39.5 82.5
q0 52 -41 75q-42 25 -138 47q-64 16 -99.5 29t-71.5 36q-73 48 -73 149q0 95 67 156q67 63 192 63q118 0 189 -58q72 -58 77 -159l-121 -7q-3 56 -41.5 88.5t-101.5 32.5q-65 0 -102 -30.5t-37 -81.5t36 -74q36 -20 130 -43q133 -32 194 -78q62 -45 62 -137z" />
    <glyph glyph-name="scedilla" unicode="&#x15f;" horiz-adv-x="502" 
d="M452 154q0 -71 -46 -114t-128 -49l-9 -36q50 -6 79 -31t29 -68q0 -52 -38 -80.5t-97 -28.5q-56 0 -95 19l19 68q26 -17 66 -17q61 0 61 40q0 42 -68 42q-17 0 -34 -4l28 96q-77 7 -123.5 50t-54.5 113l112 7q9 -74 100 -74q40 0 63.5 15.5t23.5 42.5q0 30 -22 43
q-20 12 -89 29q-45 10 -73 20t-54 25q-51 33 -51 105q0 71 52 113t143 42q86 0 137.5 -44.5t59.5 -118.5l-112 -6q-7 73 -88 73q-80 0 -80 -57q0 -27 24 -40q23 -9 29 -10l59 -14q95 -24 136 -57t41 -94z" />
    <glyph glyph-name="Scaron" unicode="&#x160;" horiz-adv-x="659" 
d="M501 945l-118 -150h-108l-118 150h95l77 -83l76 83h96zM327 758q118 0 189 -58q72 -58 77 -159l-121 -7q-3 56 -41.5 88.5t-101.5 32.5q-65 0 -102 -30.5t-37 -81.5t36 -74q36 -20 130 -43q133 -32 194 -78q62 -45 62 -137q0 -111 -76 -166q-74 -55 -194 -55
q-126 0 -207 60q-79 60 -84 167l121 7q4 -59 51 -95t119 -36q70 0 109.5 27.5t39.5 82.5q0 52 -41 75q-42 25 -138 47q-64 16 -99.5 29t-71.5 36q-73 48 -73 149q0 95 67 156q67 63 192 63z" />
    <glyph glyph-name="scaron" unicode="&#x161;" horiz-adv-x="502" 
d="M416 767l-119 -172h-108l-118 172h95l77 -98l78 98h95zM246 522q86 0 137.5 -44.5t59.5 -118.5l-112 -6q-7 73 -88 73q-80 0 -80 -57q0 -27 24 -40q23 -9 29 -10l59 -14q95 -24 136 -57t41 -94q0 -77 -53.5 -120.5t-147.5 -43.5q-91 0 -146 43.5t-64 120.5l112 7
q9 -74 100 -74q40 0 63.5 15.5t23.5 42.5q0 30 -22 43q-20 12 -89 29q-45 10 -73 20t-54 25q-51 33 -51 105q0 71 52 113t143 42z" />
    <glyph glyph-name="Tcaron" unicode="&#x164;" horiz-adv-x="687" 
d="M518 945l-118 -150h-108l-118 150h95l77 -83l76 83h96zM669 748v-105h-266v-643h-119v643h-266v105h651z" />
    <glyph glyph-name="tcaron" unicode="&#x165;" horiz-adv-x="544" 
d="M464 761q32 0 49.5 -21.5t17.5 -58.5q0 -137 -130 -207v48q52 38 62 97q-29 2 -48.5 22t-19.5 48q0 30 19.5 51t49.5 21zM350 416h-131l-1 -235q0 -88 85 -88q15 0 48 5v-100q-37 -6 -75 -6q-81 0 -126 42t-44 124l1 258h-95v97h95l1 174h113l-1 -174h130v-97z" />
    <glyph glyph-name="Tbar" unicode="&#x166;" horiz-adv-x="687" 
d="M669 643h-266v-235h133v-91h-133v-317h-119v317h-133v91h133v235h-266v105h651v-105z" />
    <glyph glyph-name="tbar" unicode="&#x167;" horiz-adv-x="378" 
d="M303 93q15 0 48 5v-100q-37 -6 -75 -6q-81 0 -126 42t-44 124v68h-94v81h95v109h-95v97h95l1 174h113l-1 -174h130v-97h-131v-109h131v-81h-132v-45q0 -88 85 -88z" />
    <glyph glyph-name="Utilde" unicode="&#x168;" horiz-adv-x="770" 
d="M311 946q33 0 74 -29t61 -29q44 0 46 51h64q4 -55 -24 -95q-27 -40 -74 -40q-34 0 -74 28q-41 29 -61 29q-45 0 -45 -50h-65q-4 54 23 95q28 40 75 40zM573 748h119v-457q0 -143 -81.5 -222t-225.5 -79t-225.5 79t-81.5 222v457h119v-455q0 -96 48.5 -146.5t139.5 -50.5
q90 0 139 50.5t49 146.5v455z" />
    <glyph glyph-name="utilde" unicode="&#x169;" horiz-adv-x="596" 
d="M225 747q33 0 74 -29t61 -29q44 0 46 51h64q4 -56 -24 -96q-27 -40 -74 -40q-33 0 -74 29t-61 29q-45 0 -45 -51h-65q-4 55 23 96q28 40 75 40zM515 513v-513h-106v67q-17 -34 -55 -55.5t-90 -21.5q-86 0 -137 56.5t-51 150.5v316h112v-299q0 -57 27 -88t77 -31t80.5 36
t30.5 89v293h112z" />
    <glyph glyph-name="Umacron" unicode="&#x16a;" horiz-adv-x="770" 
d="M524 912v-86h-279v86h279zM573 748h119v-457q0 -143 -81.5 -222t-225.5 -79t-225.5 79t-81.5 222v457h119v-455q0 -96 48.5 -146.5t139.5 -50.5q90 0 139 50.5t49 146.5v455z" />
    <glyph glyph-name="umacron" unicode="&#x16b;" horiz-adv-x="596" 
d="M439 715v-87h-279v87h279zM515 513v-513h-106v67q-17 -34 -55 -55.5t-90 -21.5q-86 0 -137 56.5t-51 150.5v316h112v-299q0 -57 27 -88t77 -31t80.5 36t30.5 89v293h112z" />
    <glyph glyph-name="Ubreve" unicode="&#x16c;" horiz-adv-x="770" 
d="M462 948h92q0 -70 -45.5 -108.5t-124.5 -38.5q-78 0 -123.5 38.5t-45.5 108.5h92q0 -32 21 -50.5t56 -18.5q36 0 57 18.5t21 50.5zM573 748h119v-457q0 -143 -81.5 -222t-225.5 -79t-225.5 79t-81.5 222v457h119v-455q0 -96 48.5 -146.5t139.5 -50.5q90 0 139 50.5
t49 146.5v455z" />
    <glyph glyph-name="ubreve" unicode="&#x16d;" horiz-adv-x="596" 
d="M377 743h92q0 -70 -45.5 -108.5t-124.5 -38.5q-78 0 -123.5 38.5t-45.5 108.5h92q0 -32 21 -50.5t56 -18.5q36 0 57 18.5t21 50.5zM515 513v-513h-106v67q-17 -34 -55 -55.5t-90 -21.5q-86 0 -137 56.5t-51 150.5v316h112v-299q0 -57 27 -88t77 -31t80.5 36t30.5 89v293
h112z" />
    <glyph glyph-name="Uring" unicode="&#x16e;" horiz-adv-x="770" 
d="M385 997q45 0 76 -29t31 -73t-31 -73t-76 -29q-46 0 -77.5 29t-31.5 73t31.5 73t77.5 29zM385 940q-34 3 -43 -29q-10 -32 11 -51q13 -12 32 -10q19 0 32 13t13 32q0 20 -12.5 32.5t-32.5 12.5zM573 748h119v-457q0 -143 -81.5 -222t-225.5 -79t-225.5 79t-81.5 222v457
h119v-455q0 -96 48.5 -146.5t139.5 -50.5q90 0 139 50.5t49 146.5v455z" />
    <glyph glyph-name="uring" unicode="&#x16f;" horiz-adv-x="596" 
d="M300 809q51 0 86 -32.5t35 -80.5q0 -49 -35 -81.5t-86 -32.5t-86.5 33t-35.5 81q0 49 35 81t87 32zM300 744q-23 0 -37 -13.5t-14 -34.5q0 -22 14 -35t37 -13q22 0 36 13t14 35q0 21 -14 34.5t-36 13.5zM515 513v-513h-106v67q-17 -34 -55 -55.5t-90 -21.5
q-86 0 -137 56.5t-51 150.5v316h112v-299q0 -57 27 -88t77 -31t80.5 36t30.5 89v293h112z" />
    <glyph glyph-name="Uhungarumlaut" unicode="&#x170;" horiz-adv-x="770" 
d="M409 955l-79 -157h-88l61 157h106zM593 955l-79 -157h-88l61 157h106zM573 748h119v-457q0 -143 -81.5 -222t-225.5 -79t-225.5 79t-81.5 222v457h119v-455q0 -96 48.5 -146.5t139.5 -50.5q90 0 139 50.5t49 146.5v455z" />
    <glyph glyph-name="uhungarumlaut" unicode="&#x171;" horiz-adv-x="596" 
d="M329 771l-81 -167h-88l62 167h107zM513 771l-81 -167h-88l62 167h107zM515 513v-513h-106v67q-17 -34 -55 -55.5t-90 -21.5q-86 0 -137 56.5t-51 150.5v316h112v-299q0 -57 27 -88t77 -31t80.5 36t30.5 89v293h112z" />
    <glyph glyph-name="Uogonek" unicode="&#x172;" horiz-adv-x="770" 
d="M573 748h119v-457q0 -117 -57 -193t-160 -99q-43 -23 -62 -42t-19 -44q0 -41 50 -41q29 0 53 12l11 -56q-40 -17 -83 -17q-53 0 -84 23t-31 66q0 56 61 90q-138 4 -215.5 82.5t-77.5 218.5v457h119v-455q0 -96 48.5 -146.5t139.5 -50.5q90 0 139 50.5t49 146.5v455z" />
    <glyph glyph-name="uogonek" unicode="&#x173;" horiz-adv-x="596" 
d="M511 -117l11 -56q-40 -17 -83 -17q-53 0 -84 23t-31 66q0 63 85 103v65q-17 -34 -55 -55.5t-90 -21.5q-86 0 -137 56.5t-51 150.5v316h112v-299q0 -57 27 -88t77 -31t80.5 36t30.5 89v293h112v-513h-23q-46 -25 -65 -44t-19 -44q0 -41 50 -41q29 0 53 12z" />
    <glyph glyph-name="Wcircumflex" unicode="&#x174;" horiz-adv-x="1121" 
d="M615 945l118 -150h-96l-76 84l-77 -84h-95l118 150h108zM1105 748l-261 -748h-100l-183 529l-182 -529h-101l-261 748h128l185 -537l182 537h98l183 -537l184 537h128z" />
    <glyph glyph-name="wcircumflex" unicode="&#x175;" horiz-adv-x="832" 
d="M470 770l119 -173h-95l-78 98l-77 -98h-95l118 173h108zM824 513l-196 -513h-90l-122 325l-123 -325h-89l-196 513h121l123 -330l124 330h79l125 -330l123 330h121z" />
    <glyph glyph-name="Ycircumflex" unicode="&#x176;" horiz-adv-x="715" 
d="M412 945l118 -150h-96l-76 84l-77 -84h-95l118 150h108zM700 748l-283 -447v-301h-118v301l-284 447h138l205 -329l204 329h138z" />
    <glyph glyph-name="ycircumflex" unicode="&#x177;" horiz-adv-x="549" 
d="M329 770l119 -173h-95l-78 98l-77 -98h-95l118 173h108zM538 513l-326 -768h-123l126 291l-203 477h125l138 -351l138 351h125z" />
    <glyph glyph-name="Ydieresis" unicode="&#x178;" horiz-adv-x="715" 
d="M275 936q26 0 45 -18.5t19 -44.5q0 -27 -19 -45.5t-45 -18.5q-27 0 -45.5 18.5t-18.5 45.5q0 26 18.5 44.5t45.5 18.5zM443 936q27 0 45.5 -18.5t18.5 -44.5q0 -27 -18.5 -45.5t-45.5 -18.5q-26 0 -45 18.5t-19 45.5q0 26 19 44.5t45 18.5zM700 748l-283 -447v-301h-118
v301l-284 447h138l205 -329l204 329h138z" />
    <glyph glyph-name="Zacute" unicode="&#x179;" horiz-adv-x="621" 
d="M551 942l-190 -147h-104l139 147h155zM577 748v-90l-389 -552h398v-106h-550v90l388 553h-378v105h531z" />
    <glyph glyph-name="zacute" unicode="&#x17a;" horiz-adv-x="451" 
d="M405 787l-134 -191h-88l95 191h127zM409 513v-75l-245 -347h255v-91h-386v74l246 347h-240v92h370z" />
    <glyph glyph-name="Zdotaccent" unicode="&#x17b;" horiz-adv-x="621" 
d="M381 875q0 -30 -21 -50.5t-50 -20.5t-50 20.5t-21 50.5q0 29 21 50t50 21t50 -21t21 -50zM577 748v-90l-389 -552h398v-106h-550v90l388 553h-378v105h531z" />
    <glyph glyph-name="zdotaccent" unicode="&#x17c;" horiz-adv-x="451" 
d="M179 731q21 21 50 21t50 -21t21 -50t-21 -50t-50 -21t-50 21t-21 50t21 50zM409 513v-75l-245 -347h255v-91h-386v74l246 347h-240v92h370z" />
    <glyph glyph-name="Zcaron" unicode="&#x17d;" horiz-adv-x="621" 
d="M482 945l-118 -150h-108l-118 150h95l77 -83l76 83h96zM577 748v-90l-389 -552h398v-106h-550v90l388 553h-378v105h531z" />
    <glyph glyph-name="zcaron" unicode="&#x17e;" horiz-adv-x="451" 
d="M402 767l-119 -172h-108l-118 172h95l77 -98l78 98h95zM409 513v-75l-245 -347h255v-91h-386v74l246 347h-240v92h370z" />
    <glyph glyph-name="florin" unicode="&#x192;" horiz-adv-x="437" 
d="M350 786q84 0 140 -43l-46 -92q-33 35 -82 35q-69 0 -83 -80l-17 -93h140v-94h-156l-100 -561h-114l99 561h-103v94h120l20 112q28 161 182 161z" />
    <glyph glyph-name="Aringacute" unicode="&#x1fa;" horiz-adv-x="758" 
d="M387 772q-46 0 -77.5 29t-31.5 73q0 54 45 84l127 112h142l-158 -104q60 -27 60 -92q0 -44 -31 -73t-76 -29zM387 829q19 0 32 12.5t13 32.5t-12.5 32.5t-32.5 12.5q-34 3 -43 -29q-10 -32 11 -51q13 -12 32 -10zM429 748l317 -748h-131l-69 167h-334l-70 -167h-130
l316 748h101zM258 273h243l-121 291z" />
    <glyph glyph-name="aringacute" unicode="&#x1fb;" horiz-adv-x="548" 
d="M277 579q-46 0 -77.5 29t-31.5 73q0 52 40 80l132 116h142l-159 -103q28 -12 44.5 -36.5t16.5 -56.5q0 -44 -31 -73t-76 -29zM277 636q19 0 32 13t13 32q0 20 -12.5 32.5t-32.5 12.5q-34 3 -43 -29q-10 -32 11 -51q13 -12 32 -10zM267 522q99 0 152 -52.5t53 -150.5v-319
h-113v46q-59 -56 -139 -56q-79 0 -125 39.5t-46 110.5q0 144 188 155l122 7v15q0 107 -91 107q-44 0 -68 -24.5t-24 -62.5l-113 4q0 72 56 126q55 55 148 55zM360 197v18l-107 -7q-91 -4 -91 -66q0 -58 77 -58q57 0 89 29t32 84z" />
    <glyph glyph-name="AEacute" unicode="&#x1fc;" horiz-adv-x="1034" 
d="M899 942l-190 -147h-104l139 147h155zM992 643h-351v-206h307v-103h-307v-228h351v-106h-470v167h-259l-111 -167h-145l501 748h484v-105zM333 273h189v286z" />
    <glyph glyph-name="aeacute" unicode="&#x1fd;" horiz-adv-x="906" 
d="M613 787l-134 -191h-88l95 191h127zM857 269v-55h-377q4 -58 41 -92.5t96 -34.5q100 0 122 73l113 -6q-15 -70 -80 -117t-152 -47q-130 0 -202 89q-69 -89 -193 -89q-81 0 -128.5 40.5t-47.5 111.5q0 142 188 153l122 7v15q0 109 -91 109q-44 0 -68 -24.5t-24 -64.5
l-113 4q0 72 56 126q55 55 148 55q111 0 162 -74q71 74 188 74q110 0 175 -68t65 -185zM616 426q-58 0 -94.5 -33t-40.5 -91h263q-2 58 -35 91t-93 33zM360 197v18l-107 -7q-91 -4 -91 -64q0 -57 77 -57q55 0 88 27t33 83z" />
    <glyph glyph-name="Oslashacute" unicode="&#x1fe;" horiz-adv-x="856" 
d="M669 942l-190 -147h-104l139 147h155zM689 791l73 -55l-59 -77q113 -108 113 -285q0 -175 -108 -280q-107 -104 -273 -104q-116 0 -205 52l-63 -83l-73 55l64 83q-105 107 -105 277q0 175 107 279q108 105 275 105q108 0 194 -46zM174 374q0 -110 56 -183l331 432
q-56 29 -126 29q-114 0 -188 -75q-73 -73 -73 -203zM435 96q113 0 187 75q73 74 73 203q0 116 -63 192l-334 -435q59 -35 137 -35z" />
    <glyph glyph-name="oslashacute" unicode="&#x1ff;" horiz-adv-x="634" 
d="M492 787l-134 -191h-88l95 191h127zM487 543l62 -46l-38 -50q73 -73 73 -191q0 -120 -76 -193q-74 -73 -191 -73q-69 0 -129 29l-44 -58l-62 46l43 56q-76 73 -76 193t75 193q76 73 193 73q74 0 131 -30zM163 256q0 -62 28 -105l196 260q-32 15 -70 15q-69 0 -111.5 -46
t-42.5 -124zM317 87q69 0 111.5 46t42.5 123q0 62 -26 103l-195 -258q33 -14 67 -14z" />
    <glyph glyph-name="Scommaaccent" unicode="&#x218;" horiz-adv-x="659" 
d="M356 426q133 -32 194 -78q62 -45 62 -137q0 -111 -76 -166q-74 -55 -194 -55q-126 0 -207 60q-79 60 -84 167l121 7q4 -59 51 -95t119 -36q70 0 109.5 27.5t39.5 82.5q0 52 -41 75q-42 25 -138 47q-64 16 -99.5 29t-71.5 36q-73 48 -73 149q0 95 67 156q67 63 192 63
q118 0 189 -58q72 -58 77 -159l-121 -7q-3 56 -41.5 88.5t-101.5 32.5q-65 0 -102 -30.5t-37 -81.5t36 -74q36 -20 130 -43zM338 -47q32 0 49.5 -21.5t17.5 -58.5q0 -137 -130 -207v48q52 38 62 97q-29 2 -48.5 22t-19.5 48q0 30 19.5 51t49.5 21z" />
    <glyph glyph-name="scommaaccent" unicode="&#x219;" horiz-adv-x="502" 
d="M216 319l59 -14q95 -24 136 -57t41 -94q0 -77 -53.5 -120.5t-147.5 -43.5q-91 0 -146 43.5t-64 120.5l112 7q9 -74 100 -74q40 0 63.5 15.5t23.5 42.5q0 30 -22 43q-20 12 -89 29q-45 10 -73 20t-54 25q-51 33 -51 105q0 71 52 113t143 42q86 0 137.5 -44.5t59.5 -118.5
l-112 -6q-7 73 -88 73q-80 0 -80 -57q0 -27 24 -40q23 -9 29 -10zM248 -47q32 0 49.5 -21.5t17.5 -58.5q0 -137 -130 -207v48q52 38 62 97q-29 2 -48.5 22t-19.5 48q0 30 19.5 51t49.5 21z" />
    <glyph glyph-name="uni021A" unicode="&#x21a;" horiz-adv-x="687" 
d="M18 748h651v-105h-266v-643h-119v643h-266v105zM344 -42q32 0 49.5 -21.5t17.5 -58.5q0 -137 -130 -207v48q52 38 62 97q-29 2 -48.5 22t-19.5 48q0 30 19.5 51t49.5 21z" />
    <glyph glyph-name="uni021B" unicode="&#x21b;" horiz-adv-x="378" 
d="M303 93q15 0 48 5v-100q-37 -6 -75 -6q-81 0 -126 42t-44 124l1 258h-95v97h95l1 174h113l-1 -174h130v-97h-131l-1 -235q0 -88 85 -88zM221 -50q32 0 49.5 -21.5t17.5 -58.5q0 -137 -130 -207v48q52 38 62 97q-29 2 -48.5 22t-19.5 48q0 30 19.5 51t49.5 21z" />
    <glyph glyph-name="dotlessj" unicode="&#x237;" 
d="M82 513h112v-578q0 -98 -47 -148t-131 -50q-60 0 -103 26l44 92q26 -18 47 -18q78 0 78 92v584z" />
    <glyph glyph-name="circumflex" unicode="&#x2c6;" horiz-adv-x="370" 
d="M239 770l119 -173h-95l-78 98l-77 -98h-95l118 173h108z" />
    <glyph glyph-name="caron" unicode="&#x2c7;" horiz-adv-x="370" 
d="M358 767l-119 -172h-108l-118 172h95l77 -98l78 98h95z" />
    <glyph glyph-name="breve" unicode="&#x2d8;" horiz-adv-x="370" 
d="M262 743h92q0 -70 -45.5 -108.5t-124.5 -38.5q-78 0 -123.5 38.5t-45.5 108.5h92q0 -32 21 -50.5t56 -18.5q36 0 57 18.5t21 50.5z" />
    <glyph glyph-name="dotaccent" unicode="&#x2d9;" horiz-adv-x="173" 
d="M36 731q21 21 50 21t50 -21t21 -50t-21 -50t-50 -21t-50 21t-21 50t21 50z" />
    <glyph glyph-name="ring" unicode="&#x2da;" horiz-adv-x="272" 
d="M137 809q51 0 86 -32.5t35 -80.5q0 -49 -35 -81.5t-86 -32.5t-86.5 33t-35.5 81q0 49 35 81t87 32zM137 744q-23 0 -37 -13.5t-14 -34.5q0 -22 14 -35t37 -13q22 0 36 13t14 35q0 21 -14 34.5t-36 13.5z" />
    <glyph glyph-name="ogonek" unicode="&#x2db;" horiz-adv-x="233" 
d="M173 30l18 -26q-47 -25 -66.5 -44.5t-19.5 -44.5q0 -41 50 -41q29 0 53 12l11 -56q-40 -17 -83 -17q-53 0 -84 23t-31 66q0 44 37 74t115 54z" />
    <glyph glyph-name="tilde" unicode="&#x2dc;" horiz-adv-x="371" 
d="M116 747q33 0 74 -29t61 -29q45 0 46 51h64q5 -56 -24 -96q-27 -40 -74 -40q-33 0 -74 29t-61 29q-45 0 -45 -51h-65q-4 55 23 96q28 40 75 40z" />
    <glyph glyph-name="hungarumlaut" unicode="&#x2dd;" horiz-adv-x="380" 
d="M183 771l-81 -167h-88l62 167h107zM367 771l-81 -167h-88l62 167h107z" />
    <glyph glyph-name="uni0326" unicode="&#x326;" horiz-adv-x="0" 
d="M111 -42q32 0 49.5 -21.5t17.5 -58.5q0 -137 -130 -207v48q52 38 62 97q-29 2 -48.5 22t-19.5 48q0 30 19.5 51t49.5 21z" />
    <glyph glyph-name="Omega" unicode="&#x3a9;" horiz-adv-x="790" 
d="M722 376q0 -88 -38 -166q-38 -76 -87 -123h171v-87h-292v80q59 40 106 122q46 82 46 170q0 116 -62 190q-61 73 -171 73t-171 -73q-62 -74 -62 -190q0 -88 46 -170q47 -82 106 -122v-80h-292v87h171q-49 47 -87 123q-38 78 -38 166q0 151 88 248q89 98 239 98t239 -98
q88 -97 88 -248z" />
    <glyph glyph-name="mu" unicode="&#x3bc;" horiz-adv-x="601" 
d="M408 513h112v-513h-106v67q-17 -34 -55 -55.5t-90 -21.5q-40 0 -76 14v-259h-112v768h112v-299q0 -57 27 -88t77 -31t80.5 36t30.5 89v293z" />
    <glyph glyph-name="pi" unicode="&#x3c0;" horiz-adv-x="687" 
d="M573 527l87 -50q-42 -117 -150 -117h-15l-28 -226q-6 -48 32 -48q21 0 47 20l50 -66q-46 -48 -113 -48q-59 0 -86 35.5t-20 100.5l28 232h-111l-26 -208q-12 -84 -45 -152h-105q46 96 57 171l24 189h-28q-52 0 -92 -46l-52 77q37 37 73 53t93 16h261q48 0 74.5 16
t44.5 51z" />
    <glyph glyph-name="Wgrave" unicode="&#x1e80;" horiz-adv-x="1121" 
d="M469 942l139 -147h-104l-190 147h155zM1105 748l-261 -748h-100l-183 529l-182 -529h-101l-261 748h128l185 -537l182 537h98l183 -537l184 537h128z" />
    <glyph glyph-name="wgrave" unicode="&#x1e81;" horiz-adv-x="832" 
d="M363 787l94 -191h-88l-134 191h128zM824 513l-196 -513h-90l-122 325l-123 -325h-89l-196 513h121l123 -330l124 330h79l125 -330l123 330h121z" />
    <glyph glyph-name="Wacute" unicode="&#x1e82;" horiz-adv-x="1121" 
d="M802 942l-190 -147h-104l139 147h155zM1105 748l-261 -748h-100l-183 529l-182 -529h-101l-261 748h128l185 -537l182 537h98l183 -537l184 537h128z" />
    <glyph glyph-name="wacute" unicode="&#x1e83;" horiz-adv-x="832" 
d="M592 787l-134 -191h-88l95 191h127zM824 513l-196 -513h-90l-122 325l-123 -325h-89l-196 513h121l123 -330l124 330h79l125 -330l123 330h121z" />
    <glyph glyph-name="Wdieresis" unicode="&#x1e84;" horiz-adv-x="1121" 
d="M478 936q26 0 45 -18.5t19 -44.5q0 -27 -19 -45.5t-45 -18.5q-27 0 -45.5 18.5t-18.5 45.5q0 26 18.5 44.5t45.5 18.5zM646 936q27 0 45.5 -18.5t18.5 -44.5q0 -27 -18.5 -45.5t-45.5 -18.5q-26 0 -45 18.5t-19 45.5q0 26 19 44.5t45 18.5zM1105 748l-261 -748h-100
l-183 529l-182 -529h-101l-261 748h128l185 -537l182 537h98l183 -537l184 537h128z" />
    <glyph glyph-name="wdieresis" unicode="&#x1e85;" horiz-adv-x="832" 
d="M330 743q26 0 45 -18.5t19 -44.5q0 -27 -18.5 -45t-45.5 -18t-45.5 18t-18.5 45q0 26 18.5 44.5t45.5 18.5zM498 743q27 0 45.5 -18.5t18.5 -44.5q0 -27 -18.5 -45t-45.5 -18t-45.5 18t-18.5 45q0 26 19 44.5t45 18.5zM824 513l-196 -513h-90l-122 325l-123 -325h-89
l-196 513h121l123 -330l124 330h79l125 -330l123 330h121z" />
    <glyph glyph-name="Ygrave" unicode="&#x1ef2;" horiz-adv-x="715" 
d="M266 942l139 -147h-104l-190 147h155zM700 748l-283 -447v-301h-118v301l-284 447h138l205 -329l204 329h138z" />
    <glyph glyph-name="ygrave" unicode="&#x1ef3;" horiz-adv-x="549" 
d="M222 787l94 -191h-88l-134 191h128zM538 513l-326 -768h-123l126 291l-203 477h125l138 -351l138 351h125z" />
    <glyph glyph-name="endash" unicode="&#x2013;" horiz-adv-x="564" 
d="M519 314v-105h-474v105h474z" />
    <glyph glyph-name="emdash" unicode="&#x2014;" horiz-adv-x="796" 
d="M751 314v-105h-706v105h706z" />
    <glyph glyph-name="quoteleft" unicode="&#x2018;" horiz-adv-x="201" 
d="M107 616q29 -2 48.5 -22t19.5 -48q0 -30 -19.5 -51t-49.5 -21q-32 0 -49.5 21.5t-17.5 58.5q0 137 130 207v-48q-52 -38 -62 -97z" />
    <glyph glyph-name="quoteright" unicode="&#x2019;" horiz-adv-x="201" 
d="M95 761q32 0 49.5 -21.5t17.5 -58.5q0 -137 -130 -207v48q52 38 62 97q-29 2 -48.5 22t-19.5 48q0 30 19.5 51t49.5 21z" />
    <glyph glyph-name="quotesinglbase" unicode="&#x201a;" horiz-adv-x="201" 
d="M95 133q32 0 49.5 -21.5t17.5 -58.5q0 -137 -130 -207v48q52 38 62 97q-29 2 -48.5 22t-19.5 48q0 30 19.5 51t49.5 21z" />
    <glyph glyph-name="quotedblleft" unicode="&#x201c;" horiz-adv-x="386" 
d="M103 616q29 -2 48.5 -22t19.5 -48q0 -30 -19.5 -51t-49.5 -21q-32 0 -49.5 21.5t-17.5 58.5q0 137 130 207v-48q-52 -38 -62 -97zM289 616q29 -2 48.5 -22t19.5 -48q0 -30 -19.5 -51t-49.5 -21q-32 0 -49.5 21.5t-17.5 58.5q0 137 130 207v-48q-52 -38 -62 -97z" />
    <glyph glyph-name="quotedblright" unicode="&#x201d;" horiz-adv-x="386" 
d="M91 761q32 0 49.5 -21.5t17.5 -58.5q0 -137 -130 -207v48q52 38 62 97q-29 2 -48.5 22t-19.5 48q0 30 19.5 51t49.5 21zM277 761q32 0 49.5 -21.5t17.5 -58.5q0 -137 -130 -207v48q52 38 62 97q-29 2 -48.5 22t-19.5 48q0 30 19.5 51t49.5 21z" />
    <glyph glyph-name="quotedblbase" unicode="&#x201e;" horiz-adv-x="386" 
d="M95 133q32 0 49.5 -21.5t17.5 -58.5q0 -137 -130 -207v48q52 38 62 97q-29 2 -48.5 22t-19.5 48q0 30 19.5 51t49.5 21zM280 133q32 0 49.5 -21.5t17.5 -58.5q0 -137 -130 -207v48q52 38 62 97q-29 2 -48.5 22t-19.5 48q0 30 19.5 51t49.5 21z" />
    <glyph glyph-name="dagger" unicode="&#x2020;" horiz-adv-x="511" 
d="M312 748v-200h181v-101h-181v-514h-112v514h-181v101h181v200h112z" />
    <glyph glyph-name="daggerdbl" unicode="&#x2021;" horiz-adv-x="511" 
d="M312 748v-200h181v-101h-181v-212h181v-102h-181v-200h-112v200h-181v102h181v212h-181v101h181v200h112z" />
    <glyph glyph-name="bullet" unicode="&#x2022;" horiz-adv-x="349" 
d="M175 378q50 0 86 -36t36 -87q0 -52 -36 -88t-86 -36q-52 0 -88 36t-36 88q0 51 36 87t88 36z" />
    <glyph glyph-name="ellipsis" unicode="&#x2026;" horiz-adv-x="692" 
d="M113 134q30 0 51.5 -21t21.5 -52q0 -29 -21.5 -50t-51.5 -21q-29 0 -50 21t-21 50q0 31 21 52t50 21zM339 134q30 0 51.5 -21t21.5 -52q0 -29 -21.5 -50t-51.5 -21q-29 0 -50 21t-21 50q0 31 21 52t50 21zM566 134q30 0 51.5 -21t21.5 -52q0 -29 -21.5 -50t-51.5 -21
q-29 0 -50 21t-21 50q0 31 21 52t50 21z" />
    <glyph glyph-name="perthousand" unicode="&#x2030;" horiz-adv-x="1254" 
d="M204 758q76 0 122.5 -49.5t46.5 -132.5q0 -82 -48 -133q-47 -50 -121 -50t-122 50q-47 52 -47 133q0 82 47 132t122 50zM742 748l-513 -748h-109l513 748h109zM204 679q-38 0 -62 -28q-24 -27 -24 -75t24 -76t62 -28q39 0 62.5 28t23.5 76t-23.5 75.5t-62.5 27.5z
M658 355q76 0 122.5 -49.5t46.5 -132.5q0 -82 -48 -133q-47 -50 -121 -50t-122 50q-47 52 -47 133q0 82 47 132t122 50zM1050 355q76 0 122.5 -49.5t46.5 -132.5q0 -82 -48 -133q-47 -50 -121 -50t-122 50q-47 52 -47 133q0 82 47 132t122 50zM658 69q39 0 62.5 28t23.5 76
t-24 75q-22 28 -62 28q-39 0 -63 -28q-23 -28 -23 -75q0 -48 23.5 -76t62.5 -28zM1050 69q39 0 62.5 28t23.5 76t-24 75q-22 28 -62 28q-39 0 -63 -28q-23 -28 -23 -75q0 -48 23.5 -76t62.5 -28z" />
    <glyph glyph-name="guilsinglleft" unicode="&#x2039;" horiz-adv-x="320" 
d="M221 480l81 -71l-151 -153l151 -153l-81 -71l-206 224z" />
    <glyph glyph-name="guilsinglright" unicode="&#x203a;" horiz-adv-x="320" 
d="M99 480l207 -224l-207 -224l-80 71l151 153l-151 153z" />
    <glyph glyph-name="fraction" unicode="&#x2044;" horiz-adv-x="208" 
d="M421 748l-518 -748h-115l518 748h115z" />
    <glyph glyph-name="Euro" unicode="&#x20ac;" horiz-adv-x="706" 
d="M615 154l50 -99q-92 -65 -219 -65q-116 0 -204 69q-88 70 -119 194h-114l26 70h76q-2 42 -2 51q0 6 2 48h-102l26 70h87q30 125 119 196q88 70 207 70q120 0 205 -64l-37 -98q-68 56 -163 56q-75 0 -129 -41.5t-78 -118.5h327l-26 -70h-315q-2 -40 -2 -48q0 -27 3 -51
h273l-26 -70h-233q24 -75 78.5 -116t127.5 -41q95 0 162 58z" />
    <glyph glyph-name="trademark" unicode="&#x2122;" horiz-adv-x="887" 
d="M359 748v-80h-125v-279h-83v279h-124v80h332zM824 748v-359h-83v181l-104 -178h-38l-104 178v-181h-83v359h70l136 -235l136 235h70z" />
    <glyph glyph-name="estimated" unicode="&#x212e;" horiz-adv-x="610" 
d="M318 539q108 0 179 -68t71 -190h-400v-176q0 -43 30 -56q44 -35 120 -35q70 0 128.5 33.5t95.5 93.5l21 -14q-91 -139 -245 -139q-118 0 -197 76t-79 198q0 124 79 200q80 77 197 77zM318 513q-72 0 -121 -35q-29 -14 -29 -54v-118h284v119q0 27 -6 39.5t-25 21.5
q-40 27 -103 27z" />
    <glyph glyph-name="partialdiff" unicode="&#x2202;" horiz-adv-x="614" 
d="M286 758q280 0 280 -460q0 -147 -70.5 -228t-197.5 -81q-108 0 -181 70t-73 183q0 109 70 175t181 66q89 0 151 -54q-13 223 -157 223q-88 0 -155 -67l-64 98q98 75 216 75zM306 95q63 0 102 40t39 105v4q-1 65 -40.5 105.5t-100.5 40.5q-60 0 -101 -41q-40 -40 -40 -106
t39 -107t102 -41z" />
    <glyph glyph-name="product" unicode="&#x220f;" horiz-adv-x="651" 
d="M628 748v-105h-99v-807h-102v807h-204v-807h-101v807h-100v105h606z" />
    <glyph glyph-name="summation" unicode="&#x2211;" horiz-adv-x="600" 
d="M556 748v-105h-371l202 -269l-202 -268h371v-106h-508v87l215 287l-215 287v87h508z" />
    <glyph glyph-name="minus" unicode="&#x2212;" horiz-adv-x="547" 
d="M515 423v-105h-483v105h483z" />
    <glyph glyph-name="radical" unicode="&#x221a;" horiz-adv-x="652" 
d="M534 694l92 -39l-288 -732l-148 332l-109 -70l-56 89l207 129l104 -248z" />
    <glyph glyph-name="infinity" unicode="&#x221e;" horiz-adv-x="783" 
d="M568 500q80 0 132 -57q52 -55 52 -138q0 -84 -52 -140q-51 -56 -132 -56q-99 0 -177 97l-18 22l-18 -22q-78 -82 -158 -82q-73 0 -120 51q-46 52 -46 129q0 76 46 128q47 53 120 53q84 0 157 -85l17 -21l15 17q47 55 87.5 79.5t94.5 24.5zM568 405q-34 0 -61 -19t-61 -61
l-17 -22l18 -23q22 -25 35 -37q41 -39 86 -39q39 0 64 29t25 72q0 42 -25 71t-64 29zM199 393q-36 0 -57.5 -25t-21.5 -64t21.5 -64t57.5 -25q56 0 104 64l18 24l-18 22q-53 68 -104 68z" />
    <glyph glyph-name="integral" unicode="&#x222b;" horiz-adv-x="338" 
d="M250 758q46 0 95 -15l-19 -86q-27 10 -53 10q-28 0 -40.5 -16.5t-12.5 -54.5v-606q0 -161 -129 -161q-51 0 -96 15l19 86q27 -10 50 -10q31 0 45 17.5t14 55.5v607q0 158 127 158z" />
    <glyph glyph-name="approxequal" unicode="&#x2248;" horiz-adv-x="539" 
d="M472 570l51 -74q-67 -88 -155 -88q-46 0 -101 30t-88 30q-36 0 -61 -12.5t-51 -43.5l-51 75q68 86 152 86q38 0 94 -30q55 -30 95 -30q38 0 64 13t51 44zM472 331l51 -75q-67 -87 -155 -87q-46 0 -101 30q-56 30 -88 30q-36 0 -61 -12.5t-51 -43.5l-51 74q68 87 152 87
q39 0 94 -31q56 -30 95 -30q68 0 115 58z" />
    <glyph glyph-name="notequal" unicode="&#x2260;" horiz-adv-x="547" 
d="M515 437h-173l-42 -136h215v-106h-247l-39 -125l-96 23l31 102h-132v106h165l41 136h-206v106h239l38 124l97 -23l-31 -101h140v-106z" />
    <glyph glyph-name="lessequal" unicode="&#x2264;" horiz-adv-x="527" 
d="M494 682l1 -115l-241 -107l241 -107l-1 -115l-466 222zM495 186v-106h-467v106h467z" />
    <glyph glyph-name="greaterequal" unicode="&#x2265;" horiz-adv-x="527" 
d="M33 682l466 -222l-466 -222l-1 115l241 107l-241 107zM499 186v-106h-467v106h467z" />
    <glyph glyph-name="lozenge" unicode="&#x25ca;" horiz-adv-x="546" 
d="M309 748l204 -402l-204 -401h-72l-205 401l205 402h72zM274 586l-124 -240l124 -240l123 240z" />
    <glyph glyph-name="fl" unicode="&#xfb02;" horiz-adv-x="633" 
d="M302 782q24 0 44 -3v-97q-24 2 -32 2q-43 0 -69.5 -26t-26.5 -71v-74h126v-97h-126v-416h-112v416h-97v97h97v71q0 92 53 145t143 53zM552 777v-777h-112v777h112z" />
    <glyph glyph-name="NULL" horiz-adv-x="0" 
 />
    <glyph glyph-name="CR" horiz-adv-x="333" 
 />
    <glyph glyph-name="n.001" horiz-adv-x="613" 
d="M339 522q89 0 143 -55q55 -54 55 -148v-319h-113v294q0 57 -30.5 90.5t-81.5 33.5q-53 0 -86 -35.5t-33 -89.5v-293h-112v513h106v-74q15 36 56 59.5t96 23.5z" />
    <glyph glyph-name="germandbls.cap" horiz-adv-x="695" 
d="M333 756q168 0 269 -122l-103 -171q155 -56 155 -225q0 -112 -76 -179q-74 -67 -197 -67q-55 0 -94 9l23 105q27 -8 66 -8q69 0 112 38t43 101q0 73 -48 111.5t-151 57.5l116 201q-39 44 -120 44q-58 0 -95.5 -34.5t-37.5 -90.5v-526h-119v524q0 105 73 168q73 64 184 64
z" />
    <glyph glyph-name="a.sups" horiz-adv-x="448" 
d="M221 756q169 0 169 -163v-256h-95v40q-39 -48 -122 -48q-64 0 -100 31t-36 88q0 116 171 127l81 5v20q0 33 -17.5 51.5t-50.5 18.5q-34 0 -54 -18.5t-20 -46.5l-99 3q0 58 47 103q48 45 126 45zM290 495v16l-74 -5q-77 -5 -77 -53q0 -45 56 -47q40 -1 67.5 22.5
t27.5 66.5z" />
    <glyph glyph-name="b.sups" horiz-adv-x="524" 
d="M62 959h101v-253q15 22 49 36t75 14q87 0 143 -59q55 -58 55 -155t-55 -155t-143 -58q-44 0 -79 15t-51 40v-47h-95v622zM270 670q-49 0 -78.5 -31.5t-29.5 -85.5v-21q0 -54 29.5 -85.5t78.5 -31.5q52 0 83 34t31 93t-31 93.5t-83 34.5z" />
    <glyph glyph-name="c.sups" horiz-adv-x="470" 
d="M246 756q77 0 129.5 -42.5t62.5 -114.5l-98 -9q-5 37 -30.5 58.5t-63.5 21.5q-48 0 -77 -34t-29 -94q0 -59 29 -93t77 -34q39 0 64 20.5t30 55.5l98 -9q-11 -71 -63.5 -112t-128.5 -41q-92 0 -150 57q-58 58 -58 156q0 99 58 156q58 58 150 58z" />
    <glyph glyph-name="d.sups" horiz-adv-x="524" 
d="M461 959v-622h-94v47q-16 -25 -51.5 -40t-79.5 -15q-88 0 -143 58t-55 155t55 155q56 59 143 59q42 0 76 -14t49 -36v253h100zM253 670q-51 0 -82 -34.5t-31 -93.5t31 -93t82 -34q49 0 78.5 31.5t29.5 85.5v21q0 54 -29.5 85.5t-78.5 31.5z" />
    <glyph glyph-name="e.sups" horiz-adv-x="477" 
d="M439 552v-45h-294q3 -44 29.5 -68t70.5 -24q74 0 89 56l101 -6q-11 -61 -63.5 -98.5t-124.5 -37.5q-93 0 -151 57q-58 58 -58 156q0 99 57 156q58 58 150 58q90 0 142 -54.5t52 -149.5zM244 670q-40 0 -66.5 -23.5t-31.5 -63.5h191q-3 40 -27.5 63.5t-65.5 23.5z" />
    <glyph glyph-name="f.sups" horiz-adv-x="290" 
d="M246 963q22 0 37 -3v-87q-8 2 -25 2q-33 0 -53.5 -20t-20.5 -53v-54h98v-87h-98v-324h-101v324h-76v87h76v52q0 75 44.5 119t118.5 44z" />
    <glyph glyph-name="g.sups" horiz-adv-x="521" 
d="M236 756q44 0 79.5 -15t51.5 -40v47h94v-429q0 -89 -55.5 -141t-148.5 -52q-89 0 -142.5 40.5t-65.5 112.5l101 4q4 -33 32.5 -53t70.5 -20q51 0 79.5 27t28.5 75v67q-36 -50 -125 -50q-88 0 -143 58t-55 155t55 155q56 59 143 59zM253 670q-51 0 -82 -34.5t-31 -93.5
t31 -93t82 -34q49 0 78.5 31.5t29.5 85.5v21q0 54 -29.5 85.5t-78.5 31.5z" />
    <glyph glyph-name="h.sups" horiz-adv-x="489" 
d="M62 959h101v-253q14 22 43.5 36t68.5 14q72 0 115.5 -44t43.5 -119v-256h-101v233q0 43 -22.5 68t-60.5 25q-39 0 -63 -26.5t-24 -67.5v-232h-101v622z" />
    <glyph glyph-name="i.sups" horiz-adv-x="225" 
d="M174 888q0 -26 -18 -43.5t-43 -17.5q-40 -3 -56.5 37.5t12.5 67.5q27 30 67 12.5t38 -56.5zM163 748v-411h-101v411h101z" />
    <glyph glyph-name="j.sups" horiz-adv-x="225" 
d="M112 950q26 0 44 -18t18 -44t-18 -43.5t-44 -17.5t-43.5 17.5t-17.5 43.5t18 44t43 18zM63 748h100v-458q0 -75 -43.5 -118.5t-116.5 -43.5q-8 0 -38 2v88q11 -3 26 -3q33 0 52.5 19.5t19.5 53.5v460z" />
    <glyph glyph-name="k.sups" horiz-adv-x="453" 
d="M163 959v-369l148 158h122l-162 -178l179 -233h-126l-123 160l-38 -41v-119h-101v622h101z" />
    <glyph glyph-name="l.sups" horiz-adv-x="224" 
d="M163 959v-622h-101v622h101z" />
    <glyph glyph-name="m.sups" horiz-adv-x="746" 
d="M532 756q71 0 113 -43.5t42 -119.5v-256h-101v233q0 44 -20.5 68.5t-57.5 24.5q-39 0 -61 -25.5t-22 -68.5v-232h-101v233q0 44 -20.5 68.5t-58.5 24.5t-60 -26t-22 -68v-232h-101v411h95v-43q31 51 113 51q91 0 132 -68q41 68 130 68z" />
    <glyph glyph-name="n.sups" horiz-adv-x="492" 
d="M275 756q72 0 115.5 -44t43.5 -119v-256h-101v233q0 43 -22.5 68t-60.5 25q-39 0 -63 -26.5t-24 -67.5v-232h-101v411h95v-43q13 21 45.5 36t72.5 15z" />
    <glyph glyph-name="o.sups" horiz-adv-x="509" 
d="M99 697q62 59 155 59t155 -59q61 -58 61 -155t-61 -155t-155 -58t-155 58t-61 155t61 155zM254 670q-51 0 -82.5 -34.5t-31.5 -93.5t31 -93t83 -34t84 34.5t32 92.5q0 59 -32 93.5t-84 34.5z" />
    <glyph glyph-name="p.sups" horiz-adv-x="524" 
d="M287 756q87 0 143 -59q55 -58 55 -155t-55 -155t-143 -58q-41 0 -75 14t-49 36v-246h-101v615h95v-47q16 25 51 40t79 15zM270 670q-49 0 -78.5 -31.5t-29.5 -85.5v-21q0 -54 29.5 -85.5t78.5 -31.5q52 0 83 34t31 93t-31 93.5t-83 34.5z" />
    <glyph glyph-name="q.sups" horiz-adv-x="524" 
d="M236 756q44 0 79.5 -15t51.5 -40v47h94v-615h-100v246q-15 -22 -49 -36t-76 -14q-88 0 -143 58t-55 155t55 155q56 59 143 59zM253 670q-51 0 -82 -34.5t-31 -93.5t31 -93t82 -34q49 0 78.5 31.5t29.5 85.5v21q0 54 -29.5 85.5t-78.5 31.5z" />
    <glyph glyph-name="r.sups" horiz-adv-x="288" 
d="M275 753v-97q-51 0 -81.5 -28t-30.5 -73v-218h-101v411h97v-43q36 48 116 48z" />
    <glyph glyph-name="s.sups" horiz-adv-x="403" 
d="M197 756q71 0 113.5 -36.5t48.5 -98.5l-100 -6q-4 55 -62 55q-59 0 -59 -41q0 -19 24 -30q22 -7 63 -15q75 -19 108 -45.5t33 -76.5q0 -62 -44 -97.5t-121 -35.5q-75 0 -119.5 36t-51.5 100l101 6q5 -56 70 -56q64 0 64 43q0 20 -15 28.5t-70 20.5q-75 16 -109 41
q-33 24 -33 81q0 59 42 93t117 34z" />
    <glyph glyph-name="t.sups" horiz-adv-x="303" 
d="M248 420q21 0 38 4v-90q-28 -4 -63 -4q-68 0 -105 34t-36 102l1 195h-76v87h76l1 139h101l-1 -139h101v-87h-102l-1 -180q0 -61 66 -61z" />
    <glyph glyph-name="u.sups" horiz-adv-x="479" 
d="M417 748v-411h-95v43q-34 -51 -113 -51q-71 0 -111 41.5t-40 116.5v261h101v-237q0 -88 76 -88q38 0 60 24t22 63v238h100z" />
    <glyph glyph-name="v.sups" horiz-adv-x="447" 
d="M441 748l-178 -411h-79l-178 411h110l108 -255l107 255h110z" />
    <glyph glyph-name="w.sups" horiz-adv-x="672" 
d="M666 748l-157 -411h-78l-95 254l-95 -254h-77l-158 411h110l93 -249l93 249h69l93 -249l93 249h109z" />
    <glyph glyph-name="x.sups" horiz-adv-x="432" 
d="M419 748l-131 -202l136 -209h-119l-89 135l-85 -135h-121l135 208l-132 203h120l83 -130l84 130h119z" />
    <glyph glyph-name="y.sups" horiz-adv-x="447" 
d="M438 748l-262 -615h-110l103 240l-160 375h110l105 -255l104 255h110z" />
    <glyph glyph-name="z.sups" horiz-adv-x="365" 
d="M330 748v-70l-188 -260h196v-81h-312v69l188 260h-184v82h300z" />
    <glyph glyph-name="zero.onum" horiz-adv-x="649" 
d="M600 296q0 -142 -76 -224q-75 -82 -200 -82t-201 82q-75 82 -75 224q0 140 75 222q77 83 201 83q125 0 200 -83q76 -82 76 -222zM325 496q-72 0 -113 -53t-41 -147t41 -147t113 -53q71 0 112 53t41 147q0 93 -41 146.5t-112 53.5z" />
    <glyph glyph-name="one.onum" horiz-adv-x="381" 
d="M296 590v-590h-118v443l-121 -94l-50 94l202 147h87z" />
    <glyph glyph-name="two.onum" horiz-adv-x="539" 
d="M276 600q107 0 164 -53.5t57 -148.5q0 -63 -33.5 -113.5t-103.5 -104.5l-98 -74h242v-106h-450v91l213 157l45 33q16 14 32 30q34 34 34 85q0 98 -99 98q-52 0 -80 -32t-29 -91l-119 6q1 105 61 164t164 59z" />
    <glyph glyph-name="three.onum" horiz-adv-x="562" 
d="M278 600q104 0 163.5 -57t59.5 -154q0 -113 -99 -160q51 -15 83 -60.5t32 -110.5q0 -105 -65 -165q-64 -61 -172 -61q-111 0 -173.5 58.5t-67.5 164.5l119 7q10 -124 121 -124q56 0 87 32t31 90q0 56 -33.5 85.5t-92.5 29.5h-75v106h73q50 0 81 29.5t31 78.5q0 51 -27 78
t-76 27q-50 0 -78.5 -30.5t-31.5 -85.5l-118 6q3 102 63 159t165 57z" />
    <glyph glyph-name="four.onum" horiz-adv-x="599" 
d="M458 590v-485h117v-106h-117v-157h-117v157h-314v98l331 493h100zM340 375l-182 -270h182v270z" />
    <glyph glyph-name="five.onum" horiz-adv-x="564" 
d="M294 308q99 0 163 -62q63 -62 63 -171t-65 -176q-64 -67 -177 -67q-107 0 -169.5 57t-67.5 158l119 7q11 -116 119 -116q57 0 89.5 36.5t32.5 97.5q0 60 -32 95t-87 35q-58 0 -105 -36h-110v424h424v-105h-306v-204q46 27 109 27z" />
    <glyph glyph-name="six.onum" horiz-adv-x="599" 
d="M355 748h142l-193 -263q110 -2 181 -71q72 -67 72 -178q0 -112 -73 -179q-71 -67 -183 -67t-185 67q-72 67 -72 179q0 84 53 158zM301 96q61 0 98.5 39.5t37.5 104.5t-37.5 103t-98.5 38q-72 0 -108 -48q-28 -37 -28 -93q0 -66 37.5 -105t98.5 -39z" />
    <glyph glyph-name="seven.onum" horiz-adv-x="540" 
d="M513 590v-96l-325 -652h-131l325 643h-361v105h492z" />
    <glyph glyph-name="eight.onum" horiz-adv-x="606" 
d="M535 553q0 -106 -92 -156q52 -25 81.5 -72.5t29.5 -109.5q0 -102 -71 -164q-70 -61 -180 -61q-111 0 -181 61t-70 164q0 62 29 109t81 72q-92 48 -92 157q0 94 65 150q64 55 167 55t167 -55q66 -55 66 -150zM189 547q0 -47 32 -75t82 -28q51 0 82.5 28t31.5 75
q0 48 -31.5 76.5t-82.5 28.5t-82.5 -28.5t-31.5 -76.5zM302 340q-58 0 -95 -33t-37 -89q0 -55 37 -88.5t95 -33.5q59 0 96 33.5t37 88.5q0 56 -36.5 89t-96.5 33z" />
    <glyph glyph-name="nine.onum" horiz-adv-x="599" 
d="M298 600q111 0 184 -68q73 -67 73 -178q0 -84 -53 -158l-258 -354h-142l193 263q-109 1 -182 70q-71 69 -71 179t72 178q74 68 184 68zM298 209q72 0 108 48q28 37 28 93q0 66 -37.5 105t-98.5 39t-98.5 -39.5t-37.5 -104.5t37.5 -103t98.5 -38z" />
    <glyph glyph-name="zero.slash" horiz-adv-x="648" 
d="M599 374q0 -182 -75 -283t-200 -101q-126 0 -201 101t-75 283t75 283t201 101t200 -101q75 -101 75 -283zM324 652q-155 0 -155 -278q0 -106 24 -174l215 421q-31 31 -84 31zM324 96q154 0 154 278q0 102 -23 169l-214 -418q35 -29 83 -29z" />
    <glyph glyph-name="zero.subs" horiz-adv-x="371" 
d="M342 126q0 -100 -42 -156t-114 -56t-114.5 56.5t-42.5 155.5t42.5 155t114.5 56t114 -56t42 -155zM253 126q0 134 -68 134t-68 -134t68 -134t68 134z" />
    <glyph glyph-name="one.subs" horiz-adv-x="228" 
d="M187 331v-411h-87v297l-60 -45l-37 70l129 89h55z" />
    <glyph glyph-name="two.subs" horiz-adv-x="316" 
d="M156 337q64 0 98 -34.5t34 -93.5q0 -69 -69 -146l-62 -66h134v-77h-264v60l129 137q45 47 45 93q0 50 -43 50q-48 0 -48 -56l-85 5q1 60 36 94t95 34z" />
    <glyph glyph-name="three.subs" horiz-adv-x="326" 
d="M160 337q61 0 95 -31.5t34 -87.5q0 -60 -52 -85q27 -9 43 -33.5t16 -58.5q0 -59 -37.5 -93t-98.5 -34q-63 0 -98.5 33.5t-37.5 91.5l87 6q5 -53 49 -53q23 0 36 13.5t13 37.5q0 50 -54 50h-42v74h41q22 0 36 13t14 34q0 22 -12 34t-32 12q-43 0 -45 -50l-85 5
q1 58 34.5 90t95.5 32z" />
    <glyph glyph-name="four.subs" horiz-adv-x="348" 
d="M275 331v-255h55v-78h-55v-78h-87v78h-172v68l176 265h83zM189 213l-96 -137h96v137z" />
    <glyph glyph-name="five.subs" horiz-adv-x="322" 
d="M171 182q57 0 92 -35t35 -96q0 -63 -37.5 -100t-101.5 -37q-60 0 -96 32.5t-38 87.5l86 5q5 -47 49 -47q24 0 37.5 15.5t13.5 41.5t-13.5 40.5t-37.5 14.5t-44 -16h-77v243h242v-77h-155v-81q18 9 45 9z" />
    <glyph glyph-name="six.subs" horiz-adv-x="347" 
d="M192 331h105l-102 -142q55 -6 90 -43.5t35 -93.5q0 -62 -40.5 -100t-104.5 -38t-105.5 38t-41.5 100q0 44 30 89zM174 115q-32 0 -46 -20q-12 -17 -12 -40q-4 -43 35.5 -58.5t64.5 12.5q16 16 16 46q0 29 -15.5 44.5t-42.5 15.5z" />
    <glyph glyph-name="seven.subs" horiz-adv-x="315" 
d="M293 331v-67l-162 -344h-96l158 334h-176v77h276z" />
    <glyph glyph-name="eight.subs" horiz-adv-x="349" 
d="M308 220q0 -50 -39 -81q50 -32 50 -97q0 -58 -40 -93t-104 -35q-65 0 -105 34.5t-40 93.5q0 63 49 96q-39 34 -39 82q0 53 37.5 85t96.5 32t96.5 -32t37.5 -85zM175 260q-34 4 -48.5 -29t10.5 -53q23 -20 58 -9t31 43q0 23 -14.5 35.5t-36.5 12.5zM117 43
q-3 -31 27.5 -44.5t60.5 0t27 44.5q3 32 -27 46t-60.5 0t-27.5 -46z" />
    <glyph glyph-name="nine.subs" horiz-adv-x="347" 
d="M173 337q64 0 105.5 -38t41.5 -100q0 -46 -31 -89l-133 -190h-105l102 142q-55 6 -90 43.5t-35 93.5q0 62 40.5 100t104.5 38zM174 136q29 0 46 20q12 16 12 40q4 43 -35.5 59t-65.5 -12q-16 -16 -16 -46q0 -29 16 -45t43 -16z" />
    <glyph glyph-name="zero.sups" horiz-adv-x="371" 
d="M342 608q0 -100 -42 -156t-114 -56t-114.5 56.5t-42.5 155.5t42.5 155t114.5 56t114 -56t42 -155zM253 608q0 134 -68 134t-68 -134t68 -134t68 134z" />
    <glyph glyph-name="one.sups" horiz-adv-x="228" 
d="M187 813v-411h-87v297l-60 -45l-37 70l129 89h55z" />
    <glyph glyph-name="two.sups" horiz-adv-x="316" 
d="M156 819q64 0 98 -34.5t34 -93.5q0 -70 -69 -146l-62 -66h134v-77h-264v60l129 137q45 47 45 93q0 50 -43 50q-48 0 -48 -56l-85 5q1 60 36 94t95 34z" />
    <glyph glyph-name="three.sups" horiz-adv-x="326" 
d="M160 819q61 0 95 -31.5t34 -87.5q0 -60 -52 -85q27 -9 43 -33.5t16 -58.5q0 -59 -37.5 -93t-98.5 -34q-63 0 -98.5 33.5t-37.5 91.5l87 6q5 -53 49 -53q23 0 36 13.5t13 37.5q0 50 -54 50h-42v74h41q22 0 36 13t14 34q0 22 -12 34t-32 12q-43 0 -45 -50l-85 5
q1 58 34.5 90t95.5 32z" />
    <glyph glyph-name="four.sups" horiz-adv-x="348" 
d="M275 813v-255h55v-78h-55v-78h-87v78h-172v68l176 265h83zM189 695l-96 -137h96v137z" />
    <glyph glyph-name="five.sups" horiz-adv-x="322" 
d="M171 664q57 0 92 -35t35 -96q0 -63 -37.5 -100t-101.5 -37q-60 0 -96 32.5t-38 87.5l86 5q5 -47 49 -47q24 0 37.5 15.5t13.5 41.5t-13.5 40.5t-37.5 14.5t-44 -16h-77v243h242v-77h-155v-81q18 9 45 9z" />
    <glyph glyph-name="six.sups" horiz-adv-x="347" 
d="M192 813h105l-102 -142q55 -6 90 -43.5t35 -93.5q0 -62 -40.5 -100t-104.5 -38t-105.5 38t-41.5 100q0 44 30 89zM174 597q-32 0 -46 -20q-12 -17 -12 -40q-4 -43 35.5 -58.5t64.5 12.5q16 16 16 46q0 29 -15.5 44.5t-42.5 15.5z" />
    <glyph glyph-name="seven.sups" horiz-adv-x="315" 
d="M293 813v-67l-162 -344h-96l158 334h-176v77h276z" />
    <glyph glyph-name="eight.sups" horiz-adv-x="349" 
d="M308 702q0 -50 -39 -81q50 -32 50 -97q0 -58 -40 -93t-104 -35q-65 0 -105 34.5t-40 93.5q0 63 49 96q-39 34 -39 82q0 53 37.5 85t96.5 32t96.5 -32t37.5 -85zM175 742q-34 4 -48.5 -29t10.5 -53q23 -20 58 -9t31 43q0 23 -14.5 35.5t-36.5 12.5zM117 525
q-3 -31 27.5 -44.5t60.5 0t27 44.5q3 32 -27 46t-60.5 0t-27.5 -46z" />
    <glyph glyph-name="nine.sups" horiz-adv-x="347" 
d="M173 819q64 0 105.5 -38t41.5 -100q0 -46 -31 -89l-133 -190h-105l102 142q-55 6 -90 43.5t-35 93.5q0 62 40.5 100t104.5 38zM174 618q29 0 46 20q12 16 12 40q4 43 -35.5 59t-65.5 -12q-16 -16 -16 -46q0 -29 16 -45t43 -16z" />
    <glyph glyph-name="zero.tnum" horiz-adv-x="650" 
d="M600 374q0 -182 -75 -283t-200 -101q-126 0 -201 101t-75 283t75 283t201 101t200 -101q75 -101 75 -283zM325 652q-155 0 -155 -278t155 -278q154 0 154 278t-154 278z" />
    <glyph glyph-name="one.tnum" horiz-adv-x="650" 
d="M419 748v-642h144v-106h-422v106h159v485l-123 -86l-54 90l209 153h87z" />
    <glyph glyph-name="two.tnum" horiz-adv-x="650" 
d="M549 547q0 -85 -37 -152q-36 -66 -104 -140l-139 -149h287v-106h-451v98l215 230q64 67 87 110t23 104q0 51 -26 80.5t-73 29.5q-108 0 -109 -130l-119 7q2 108 61 168.5t164 60.5t163 -55.5t58 -155.5z" />
    <glyph glyph-name="three.tnum" horiz-adv-x="650" 
d="M324 758q104 0 163.5 -57t59.5 -154q0 -113 -99 -160q51 -15 83 -60.5t32 -110.5q0 -104 -65 -166q-64 -60 -172 -60q-111 0 -173.5 58.5t-67.5 164.5l119 7q10 -124 121 -124q56 0 87 32t31 90q0 56 -33.5 85.5t-92.5 29.5h-75v106h73q50 0 81 29.5t31 78.5q0 51 -27 78
t-76 27q-50 0 -78.5 -30.5t-31.5 -85.5l-118 6q3 102 63 159t165 57z" />
    <glyph glyph-name="four.tnum" horiz-adv-x="650" 
d="M478 748v-485h117v-106h-117v-157h-117v157h-314v98l331 493h100zM360 533l-182 -270h182v270z" />
    <glyph glyph-name="five.tnum" horiz-adv-x="650" 
d="M336 466q99 0 163 -62q63 -62 63 -171t-65 -177q-65 -66 -177 -66q-107 0 -169.5 57t-67.5 158l119 7q11 -116 119 -116q57 0 89.5 36.5t32.5 97.5q0 60 -32 95t-87 35q-58 0 -105 -36h-110v424h424v-105h-306v-204q47 27 109 27z" />
    <glyph glyph-name="six.tnum" horiz-adv-x="650" 
d="M377 748h142l-193 -263q110 -2 181 -71q72 -67 72 -178q0 -112 -73 -179q-71 -67 -183 -67t-185 67q-72 67 -72 179q0 84 53 158zM323 96q61 0 98.5 39.5t37.5 104.5t-37.5 103t-98.5 38q-72 0 -108 -48q-28 -37 -28 -93q0 -66 37.5 -105t98.5 -39z" />
    <glyph glyph-name="seven.tnum" horiz-adv-x="650" 
d="M562 748v-96l-325 -652h-131l325 643h-361v105h492z" />
    <glyph glyph-name="eight.tnum" horiz-adv-x="650" 
d="M557 553q0 -106 -92 -156q52 -25 81.5 -72.5t29.5 -109.5q0 -102 -71 -164q-70 -61 -180 -61q-111 0 -181 61t-70 164q0 62 29 109t81 72q-92 48 -92 157q0 94 65 150q64 55 167 55t167 -55q66 -55 66 -150zM211 547q0 -47 32 -75t82 -28q51 0 82.5 28t31.5 75
q0 48 -31.5 76.5t-82.5 28.5t-82.5 -28.5t-31.5 -76.5zM324 340q-58 0 -95 -33t-37 -89q0 -55 37 -88.5t95 -33.5q59 0 96 33.5t37 88.5q0 56 -36.5 89t-96.5 33z" />
    <glyph glyph-name="nine.tnum" horiz-adv-x="650" 
d="M327 758q111 0 184 -68q73 -67 73 -178q0 -84 -53 -158l-258 -354h-142l193 263q-109 1 -182 70q-71 69 -71 179t72 178q74 68 184 68zM327 367q72 0 108 48q28 37 28 93q0 66 -37.5 105t-98.5 39t-98.5 -39.5t-37.5 -104.5t37.5 -103t98.5 -38z" />
    <glyph glyph-name="zero.dnom" horiz-adv-x="371" 
d="M342 206q0 -100 -42 -156t-114 -56t-114.5 56.5t-42.5 155.5t42.5 155t114.5 56t114 -56t42 -155zM253 206q0 134 -68 134t-68 -134t68 -134t68 134z" />
    <glyph glyph-name="one.dnom" horiz-adv-x="228" 
d="M187 411v-411h-87v297l-60 -45l-37 70l129 89h55z" />
    <glyph glyph-name="two.dnom" horiz-adv-x="316" 
d="M156 417q64 0 98 -34.5t34 -93.5q0 -69 -69 -146l-62 -66h134v-77h-264v60l129 137q45 47 45 93q0 50 -43 50q-48 0 -48 -56l-85 5q1 60 36 94t95 34z" />
    <glyph glyph-name="three.dnom" horiz-adv-x="326" 
d="M160 417q61 0 95 -31.5t34 -87.5q0 -60 -52 -85q27 -9 43 -33.5t16 -58.5q0 -59 -37.5 -93t-98.5 -34q-63 0 -98.5 33.5t-37.5 91.5l87 6q5 -53 49 -53q23 0 36 13.5t13 37.5q0 50 -54 50h-42v74h41q22 0 36 13t14 34q0 22 -12 34t-32 12q-43 0 -45 -50l-85 5
q1 58 34.5 90t95.5 32z" />
    <glyph glyph-name="four.dnom" horiz-adv-x="348" 
d="M275 411v-255h55v-78h-55v-78h-87v78h-172v68l176 265h83zM189 293l-96 -137h96v137z" />
    <glyph glyph-name="five.dnom" horiz-adv-x="322" 
d="M171 262q57 0 92 -35t35 -96q0 -63 -37.5 -100t-101.5 -37q-60 0 -96 32.5t-38 87.5l86 5q5 -47 49 -47q24 0 37.5 15.5t13.5 41.5t-13.5 40.5t-37.5 14.5t-44 -16h-77v243h242v-77h-155v-81q18 9 45 9z" />
    <glyph glyph-name="six.dnom" horiz-adv-x="347" 
d="M192 411h105l-102 -142q55 -6 90 -43.5t35 -93.5q0 -62 -40.5 -100t-104.5 -38t-105.5 38t-41.5 100q0 44 30 89zM174 195q-32 0 -46 -20q-12 -17 -12 -40q-4 -43 35.5 -58.5t64.5 12.5q16 16 16 46q0 29 -15.5 44.5t-42.5 15.5z" />
    <glyph glyph-name="seven.dnom" horiz-adv-x="315" 
d="M293 411v-67l-162 -344h-96l158 334h-176v77h276z" />
    <glyph glyph-name="eight.dnom" horiz-adv-x="349" 
d="M308 300q0 -50 -39 -81q50 -32 50 -97q0 -58 -40 -93t-104 -35q-65 0 -105 34.5t-40 93.5q0 63 49 96q-39 34 -39 82q0 53 37.5 85t96.5 32t96.5 -32t37.5 -85zM175 340q-34 4 -48.5 -29t10.5 -53q23 -20 58 -9t31 43q0 23 -14.5 35.5t-36.5 12.5zM117 123
q-3 -31 27.5 -44.5t60.5 0t27 44.5q3 32 -27 46t-60.5 0t-27.5 -46z" />
    <glyph glyph-name="nine.dnom" horiz-adv-x="347" 
d="M173 417q64 0 105.5 -38t41.5 -100q0 -46 -31 -89l-133 -190h-105l102 142q-55 6 -90 43.5t-35 93.5q0 62 40.5 100t104.5 38zM174 216q29 0 46 20q12 16 12 40q4 43 -35.5 59t-65.5 -12q-16 -16 -16 -46q0 -29 16 -45t43 -16z" />
    <glyph glyph-name="zero.numr" horiz-adv-x="371" 
d="M342 527q0 -100 -42 -156t-114 -56t-114.5 56.5t-42.5 155.5t42.5 155t114.5 56t114 -56t42 -155zM253 527q0 134 -68 134t-68 -134t68 -134t68 134z" />
    <glyph glyph-name="one.numr" horiz-adv-x="228" 
d="M187 733v-411h-87v297l-60 -45l-37 70l129 89h55z" />
    <glyph glyph-name="two.numr" horiz-adv-x="316" 
d="M156 738q64 0 98 -34.5t34 -93.5q0 -70 -69 -146l-62 -66h134v-77h-264v60l129 137q45 46 45 93q0 50 -43 50q-48 0 -48 -56l-85 5q1 60 36 94t95 34z" />
    <glyph glyph-name="three.numr" horiz-adv-x="326" 
d="M160 738q61 0 95 -31.5t34 -87.5q0 -60 -52 -85q27 -9 43 -33.5t16 -58.5q0 -59 -37.5 -93t-98.5 -34q-63 0 -98.5 33.5t-37.5 91.5l87 6q5 -53 49 -53q23 0 36 13.5t13 37.5q0 50 -54 50h-42v74h41q22 0 36 13t14 34q0 22 -12 34t-32 12q-43 0 -45 -50l-85 5
q1 58 34.5 90t95.5 32z" />
    <glyph glyph-name="four.numr" horiz-adv-x="348" 
d="M275 732v-255h55v-78h-55v-78h-87v78h-172v68l176 265h83zM189 614l-96 -137h96v137z" />
    <glyph glyph-name="five.numr" horiz-adv-x="322" 
d="M171 584q57 0 92 -35t35 -96q0 -63 -37.5 -100t-101.5 -37q-60 0 -96 32.5t-38 87.5l86 5q5 -47 49 -47q24 0 37.5 15.5t13.5 41.5t-13.5 40.5t-37.5 14.5t-44 -16h-77v243h242v-77h-155v-81q18 9 45 9z" />
    <glyph glyph-name="six.numr" horiz-adv-x="347" 
d="M192 732h105l-102 -142q55 -6 90 -43.5t35 -93.5q0 -62 -40.5 -100t-104.5 -38t-105.5 38t-41.5 100q0 44 30 89zM174 516q-32 0 -46 -20q-12 -16 -12 -40q-4 -43 35.5 -58.5t64.5 12.5q16 16 16 46q0 29 -15.5 44.5t-42.5 15.5z" />
    <glyph glyph-name="seven.numr" horiz-adv-x="315" 
d="M293 733v-67l-162 -344h-96l158 334h-176v77h276z" />
    <glyph glyph-name="eight.numr" horiz-adv-x="349" 
d="M308 621q0 -49 -39 -81q50 -32 50 -97q0 -58 -40 -93t-104 -35q-65 0 -105 34.5t-40 93.5q0 63 49 96q-39 35 -39 82q0 53 37.5 85t96.5 32t96.5 -32t37.5 -85zM175 661q-34 4 -48.5 -29t10.5 -53q23 -20 58 -9t31 43q0 23 -14.5 35.5t-36.5 12.5zM117 444
q-3 -31 27.5 -44.5t60.5 0t27 44.5q3 32 -27 46t-60.5 0t-27.5 -46z" />
    <glyph glyph-name="nine.numr" horiz-adv-x="347" 
d="M173 738q64 0 105.5 -38t41.5 -100q0 -46 -31 -89l-133 -190h-105l102 142q-55 6 -90 43.5t-35 93.5q0 62 40.5 100t104.5 38zM174 537q29 0 46 20q12 17 12 40q4 43 -35.5 59t-65.5 -12q-16 -16 -16 -46q0 -29 16 -45t43 -16z" />
    <glyph glyph-name="periodcentered.cap" horiz-adv-x="240" 
d="M113 497q30 0 51.5 -21t21.5 -52q0 -29 -21.5 -50t-51.5 -21q-29 0 -50 21t-21 50q0 31 21 52t50 21z" />
    <glyph glyph-name="exclamdown.cap" horiz-adv-x="299" 
d="M151 614q-30 0 -51.5 21t-21.5 52q0 29 21.5 50t51.5 21q29 0 50 -21t21 -50q0 -31 -21 -52t-50 -21zM85 0l6 534h119l6 -534h-131z" />
    <glyph glyph-name="questiondown.cap" horiz-adv-x="516" 
d="M261 614q-30 0 -51.5 21t-21.5 52q0 29 21.5 50t51.5 21q29 0 50 -21t21 -50q0 -31 -21 -52t-50 -21zM257 -11q-110 0 -175 60q-64 61 -64 160q0 56 24 93t79 79q44 33 61.5 60t17.5 64v29h119v-34q0 -46 -22.5 -82t-73.5 -77q-45 -35 -64 -63.5t-19 -66.5
q0 -54 31.5 -85.5t85.5 -31.5t86 30.5t37 85.5l119 -8q-4 -97 -71 -156q-64 -57 -171 -57z" />
    <glyph glyph-name="braceleft.cap" 
d="M252 770v-94h-6q-48 0 -63 -34t-1 -113q5 -41 6.5 -73.5t-13.5 -55t-49 -27.5q48 -7 59 -54q10 -45 -3 -103q-13 -79 1.5 -113t62.5 -34h6v-94h-6q-102 0 -150.5 60.5t-24.5 170.5q20 59 10.5 89.5t-54.5 30.5h-8v93h8q45 0 54.5 30.5t-10.5 89.5q-24 110 24.5 170.5
t150.5 60.5h6z" />
    <glyph glyph-name="braceright.cap" 
d="M22 676v94h6q103 0 151 -60.5t24 -170.5q-19 -59 -10 -89.5t54 -30.5h8v-93h-8q-45 0 -54 -30.5t10 -89.5q24 -110 -24 -170.5t-151 -60.5h-6v94h6q48 0 62.5 34t1.5 113q-14 60 -4 103q10 47 60 54q-34 5 -49 27.5t-13.5 55t6.5 73.5q14 79 -1 113t-63 34h-6z" />
    <glyph glyph-name="bracketleft.cap" horiz-adv-x="283" 
d="M262 770v-94h-94v-607h94v-94h-206v795h206z" />
    <glyph glyph-name="bracketright.cap" horiz-adv-x="292" 
d="M228 770v-795h-206v94h94v607h-94v94h206z" />
    <glyph glyph-name="parenleft.cap" 
d="M159 773l97 -34q-105 -174 -105 -377q0 -202 105 -376l-97 -35q-120 181 -120 411q0 231 120 411z" />
    <glyph glyph-name="parenright.cap" horiz-adv-x="271" 
d="M19 739l97 34q120 -180 120 -411q0 -230 -120 -411l-97 35q105 174 105 376q0 203 -105 377z" />
    <glyph glyph-name="emdash.cap" horiz-adv-x="796" 
d="M751 429v-105h-706v105h706z" />
    <glyph glyph-name="endash.cap" horiz-adv-x="564" 
d="M519 429v-105h-474v105h474z" />
    <glyph glyph-name="hyphen.cap" horiz-adv-x="404" 
d="M359 429v-105h-314v105h314z" />
    <glyph glyph-name="guillemotleft.cap" horiz-adv-x="553" 
d="M187 611l89 -56l-135 -170l135 -171l-89 -56l-172 227zM445 611l89 -56l-135 -170l135 -171l-89 -56l-172 227z" />
    <glyph glyph-name="guillemotright.cap" horiz-adv-x="553" 
d="M108 611l172 -226l-172 -227l-89 56l135 171l-135 170zM365 611l172 -226l-172 -227l-89 56l135 171l-135 170z" />
    <glyph glyph-name="guilsinglleft.cap" horiz-adv-x="320" 
d="M221 609l81 -71l-151 -153l151 -153l-81 -71l-206 224z" />
    <glyph glyph-name="guilsinglright.cap" horiz-adv-x="320" 
d="M99 609l207 -224l-207 -224l-80 71l151 153l-151 153z" />
    <glyph glyph-name="emdash_guilsinglright" horiz-adv-x="867" 
d="M598 506l234 -247l-234 -248l-79 71l125 131h-599v93h598l-124 129z" />
    <glyph glyph-name="endash_guilsinglright" horiz-adv-x="602" 
d="M333 506l234 -247l-234 -248l-79 71l126 131h-335v93h333l-124 129z" />
    <glyph glyph-name="guilsinglleft_emdash" horiz-adv-x="867" 
d="M269 506l79 -71l-124 -129h598v-93h-600l126 -131l-79 -71l-234 248z" />
    <glyph glyph-name="guilsinglleft_endash" horiz-adv-x="602" 
d="M269 506l79 -71l-124 -129h333v-93h-336l127 -131l-79 -71l-234 248z" />
    <glyph glyph-name="at.cap" horiz-adv-x="812" 
d="M406 736q158 0 261 -103q104 -104 104 -260q0 -99 -40.5 -152t-113.5 -53q-75 0 -97 55q-46 -58 -135 -58q-85 0 -137 57q-52 56 -52 152t52 153t137 57q93 0 129 -55v42h82v-282q0 -49 42 -49q30 0 47.5 35.5t17.5 97.5q0 128 -85 213t-212 85q-129 0 -213 -85
q-84 -86 -84 -213q0 -132 85 -214t207 -82q104 0 183 47l18 -63q-83 -50 -201 -50q-153 0 -257 101q-103 102 -103 261q0 157 103 260t262 103zM510 364v21q0 58 -29.5 90t-81.5 32t-83.5 -35.5t-31.5 -97.5t31.5 -97.5t83.5 -35.5t81.5 32t29.5 91z" />
    <glyph glyph-name="acute.case" horiz-adv-x="324" 
d="M308 944l-190 -147h-104l139 147h155z" />
    <glyph glyph-name="breve.case" horiz-adv-x="370" 
d="M262 950h92q0 -70 -45.5 -108.5t-124.5 -38.5q-78 0 -123.5 38.5t-45.5 108.5h92q0 -32 21 -50.5t56 -18.5q36 0 57 18.5t21 50.5z" />
    <glyph glyph-name="caron.case" horiz-adv-x="372" 
d="M358 947l-118 -150h-108l-118 150h95l77 -83l76 83h96z" />
    <glyph glyph-name="circumflex.case" horiz-adv-x="372" 
d="M240 947l118 -150h-96l-76 84l-77 -84h-95l118 150h108z" />
    <glyph glyph-name="dieresis.case" horiz-adv-x="328" 
d="M80 938q26 0 45 -18.5t19 -44.5q0 -27 -19 -45.5t-45 -18.5q-27 0 -45.5 18.5t-18.5 45.5q0 26 18.5 44.5t45.5 18.5zM248 938q27 0 45.5 -18.5t18.5 -44.5q0 -27 -18.5 -45.5t-45.5 -18.5q-26 0 -45 18.5t-19 45.5q0 26 19 44.5t45 18.5z" />
    <glyph glyph-name="dotaccent.case" horiz-adv-x="173" 
d="M157 877q0 -30 -21 -50.5t-50 -20.5t-50 20.5t-21 50.5q0 29 21 50t50 21t50 -21t21 -50z" />
    <glyph glyph-name="grave.case" horiz-adv-x="324" 
d="M170 944l139 -147h-104l-190 147h155z" />
    <glyph glyph-name="hungarumlaut.case" horiz-adv-x="378" 
d="M180 957l-79 -157h-88l61 157h106zM364 957l-79 -157h-88l61 157h106z" />
    <glyph glyph-name="macron.case" horiz-adv-x="304" 
d="M291 914v-86h-279v86h279z" />
    <glyph glyph-name="ring.case" horiz-adv-x="248" 
d="M125 999q45 0 76 -29t31 -73t-31 -73t-76 -29q-46 0 -77.5 29t-31.5 73t31.5 73t77.5 29zM125 942q-34 3 -43 -29q-10 -32 11 -51q13 -12 32 -10q19 0 32 13t13 32q0 20 -12.5 32.5t-32.5 12.5z" />
    <glyph glyph-name="tilde.case" horiz-adv-x="371" 
d="M116 948q33 0 74 -29t61 -29q45 0 46 51h64q4 -55 -24 -95q-27 -40 -74 -40q-34 0 -74 28q-41 29 -61 29q-45 0 -45 -50h-65q-4 54 23 95q28 40 75 40z" />
    <glyph glyph-name="anneau" horiz-adv-x="588" 
d="M295 760q112 0 188 -73t76 -181t-76 -181t-188 -73q-114 0 -190 73t-76 181t76 181t190 73zM294 720q-97 0 -158 -61q-62 -60 -62 -153q0 -92 62 -154q61 -60 158 -60q96 0 157 60q63 62 63 154t-63 153q-61 61 -157 61z" />
    <glyph glyph-name="_498" horiz-adv-x="600" 
 />
    </font>
</defs>
</svg>
